<svg xmlns="http://www.w3.org/2000/svg" xmlns:xlink="http://www.w3.org/1999/xlink" width="220" zoomAndPan="magnify" viewBox="0 0 165 82.499998" height="110" preserveAspectRatio="xMidYMid meet" version="1.0"><defs><clipPath id="2e80cda781"><path d="M 0.496094 0 L 164.503906 0 L 164.503906 82.003906 L 0.496094 82.003906 Z M 0.496094 0 " clip-rule="nonzero"/></clipPath><clipPath id="842c484358"><path d="M 9 10.671875 L 156 10.671875 L 156 54 L 9 54 Z M 9 10.671875 " clip-rule="nonzero"/></clipPath></defs><g clip-path="url(#2e80cda781)"><path fill="#ffffff" d="M 0.496094 0 L 164.503906 0 L 164.503906 82.003906 L 0.496094 82.003906 Z M 0.496094 0 " fill-opacity="1" fill-rule="nonzero"/><path fill="#ffffff" d="M 0.496094 0 L 164.503906 0 L 164.503906 82.003906 L 0.496094 82.003906 Z M 0.496094 0 " fill-opacity="1" fill-rule="nonzero"/></g><g clip-path="url(#842c484358)"><path fill="#000000" d="M 152.980469 36.179688 C 150.765625 33.816406 146.445312 32.078125 142.316406 33.382812 C 143.328125 28.300781 138.226562 24.378906 133.5625 26.386719 C 133.070312 26.601562 132.738281 26.976562 132.222656 27.148438 C 130.082031 22.335938 126.21875 18.503906 119.769531 18.058594 C 116.34375 17.820312 113.367188 18.902344 111.210938 20.28125 C 108.957031 21.722656 107.25 23.613281 106.097656 26.003906 C 104.625 24.640625 100.976562 24.21875 98.882812 25.117188 C 97.265625 20.421875 93.925781 16.8125 88.980469 15.257812 C 83.105469 13.410156 77.050781 15.460938 73.910156 18.503906 C 70.574219 14.253906 65.332031 10.390625 57.429688 10.933594 C 53.070312 11.234375 49.652344 12.953125 47.082031 15.003906 C 46.164062 15.738281 45.429688 16.558594 44.59375 17.167969 C 40.691406 15.246094 35.660156 16.738281 33.09375 19.011719 C 31.160156 20.722656 29.992188 23.214844 29.644531 26.070312 C 24.238281 23 17.621094 27.464844 19.042969 33.761719 C 16.242188 34.046875 14.105469 35.070312 12.527344 36.6875 C 10.988281 38.269531 9.804688 40.625 9.78125 43.429688 C 9.738281 48.867188 13.84375 52.902344 18.980469 53.222656 C 20.417969 53.3125 22 53.0625 23.1875 52.625 C 23.363281 52.578125 23.496094 52.417969 23.496094 52.222656 C 23.496094 51.992188 23.308594 51.804688 23.074219 51.804688 C 23.027344 51.804688 22.980469 51.816406 22.941406 51.828125 L 22.898438 51.847656 C 21.746094 52.308594 20.496094 52.535156 19.105469 52.457031 C 14.292969 52.191406 10.253906 48.332031 10.546875 43.046875 C 10.695312 40.429688 11.859375 38.378906 13.421875 36.941406 C 14.980469 35.511719 17.105469 34.453125 20 34.527344 C 18.613281 30.1875 21.253906 26.117188 25.496094 25.816406 C 27.480469 25.671875 29.175781 26.5 30.414062 27.660156 C 30.203125 21.644531 34.335938 17.339844 39.800781 17.039062 C 41.730469 16.933594 43.394531 17.402344 44.847656 18.183594 C 48.292969 14.480469 52.835938 11.234375 60.113281 11.699219 C 66.605469 12.109375 70.953125 15.679688 73.84375 19.644531 C 76.78125 16.484375 82.738281 14.042969 88.726562 15.957031 C 93.660156 17.535156 97.027344 21.210938 98.371094 26.195312 C 100.710938 24.761719 104.863281 25.410156 106.355469 27.148438 C 108.527344 22.605469 112.761719 18.367188 119.769531 18.882812 C 126.363281 19.367188 129.980469 23.257812 131.902344 28.484375 C 133.742188 26.238281 138.03125 26.035156 140.207031 28.359375 C 141.546875 29.789062 142.261719 32.484375 141.101562 34.652344 C 141.089844 34.703125 141.035156 34.714844 141.035156 34.78125 C 142.449219 34.117188 143.886719 33.585938 145.953125 33.699219 C 148.773438 33.855469 150.792969 35.089844 152.277344 36.625 C 153.816406 38.214844 154.960938 40.324219 154.960938 43.175781 C 154.960938 48.34375 151.132812 52.332031 146.019531 52.648438 C 145.625 52.671875 145.238281 52.675781 144.863281 52.65625 C 144.84375 52.65625 144.824219 52.652344 144.804688 52.652344 C 144.578125 52.652344 144.394531 52.816406 144.394531 53.019531 C 144.394531 53.175781 144.511719 53.316406 144.65625 53.363281 C 144.746094 53.394531 144.839844 53.40625 144.933594 53.410156 C 151.082031 53.75 155.429688 48.992188 155.726562 43.683594 C 155.898438 40.589844 154.601562 37.910156 152.980469 36.179688 " fill-opacity="1" fill-rule="nonzero"/></g><path fill="#000000" d="M 25.484375 52.234375 L 25.484375 30.734375 C 25.484375 30.414062 25.625 30.253906 25.902344 30.253906 C 25.988281 30.253906 26.074219 30.304688 26.160156 30.414062 C 26.246094 30.519531 26.289062 30.625 26.289062 30.734375 L 26.289062 41.292969 C 26.929688 39.992188 27.859375 38.945312 29.070312 38.15625 C 30.277344 37.367188 31.613281 36.972656 33.070312 36.972656 C 35.191406 36.972656 36.996094 37.734375 38.484375 39.261719 C 39.972656 40.785156 40.71875 42.625 40.71875 44.78125 C 40.71875 46.933594 39.972656 48.785156 38.484375 50.332031 C 36.996094 51.878906 35.191406 52.652344 33.070312 52.652344 C 31.613281 52.652344 30.277344 52.257812 29.070312 51.46875 C 27.859375 50.679688 26.929688 49.644531 26.289062 48.363281 L 26.289062 52.234375 C 26.289062 52.34375 26.25 52.4375 26.175781 52.523438 C 26.101562 52.609375 26.011719 52.652344 25.902344 52.652344 C 25.625 52.652344 25.484375 52.511719 25.484375 52.234375 M 26.289062 44.492188 L 26.289062 44.78125 C 26.289062 46.722656 26.953125 48.386719 28.28125 49.773438 C 29.609375 51.160156 31.210938 51.851562 33.085938 51.851562 C 34.960938 51.851562 36.566406 51.160156 37.90625 49.773438 C 39.246094 48.386719 39.914062 46.722656 39.914062 44.78125 C 39.914062 42.839844 39.246094 41.1875 37.90625 39.820312 C 36.566406 38.457031 34.976562 37.773438 33.132812 37.773438 C 31.292969 37.773438 29.707031 38.429688 28.378906 39.742188 C 27.050781 41.050781 26.351562 42.636719 26.289062 44.492188 " fill-opacity="1" fill-rule="nonzero"/><path fill="#000000" d="M 57.335938 44.203125 L 57.335938 44.332031 C 57.292969 44.589844 57.164062 44.714844 56.949219 44.714844 L 42.9375 44.714844 L 42.9375 44.8125 C 42.9375 46.730469 43.605469 48.378906 44.945312 49.753906 C 46.285156 51.132812 47.898438 51.832031 49.78125 51.851562 C 50.960938 51.851562 52.046875 51.5625 53.042969 50.988281 C 54.039062 50.410156 54.839844 49.632812 55.4375 48.652344 C 55.589844 48.4375 55.777344 48.40625 56 48.554688 C 56.226562 48.707031 56.261719 48.886719 56.113281 49.101562 C 55.425781 50.167969 54.523438 51.027344 53.398438 51.675781 C 52.273438 52.328125 51.066406 52.652344 49.78125 52.652344 C 47.683594 52.628906 45.894531 51.855469 44.414062 50.332031 C 42.9375 48.808594 42.175781 46.96875 42.132812 44.8125 C 42.175781 42.636719 42.9375 40.785156 44.414062 39.261719 C 45.894531 37.738281 47.65625 36.972656 49.703125 36.972656 C 51.746094 36.972656 53.492188 37.667969 54.941406 39.054688 C 56.386719 40.441406 57.183594 42.15625 57.335938 44.203125 M 54.28125 39.5625 C 52.996094 38.390625 51.492188 37.804688 49.765625 37.804688 C 48.039062 37.804688 46.53125 38.390625 45.234375 39.5625 C 43.9375 40.738281 43.183594 42.199219 42.96875 43.949219 L 56.53125 43.949219 C 56.316406 42.199219 55.566406 40.738281 54.28125 39.5625 " fill-opacity="1" fill-rule="nonzero"/><path fill="#000000" d="M 72.921875 45.835938 C 72.921875 44.214844 71.035156 43.050781 67.265625 42.347656 L 67.203125 42.347656 C 65.53125 42.027344 64.082031 41.582031 62.863281 41.003906 C 61.640625 40.429688 60.746094 39.6875 60.179688 38.78125 C 59.609375 37.875 59.328125 36.941406 59.328125 35.980469 C 59.328125 34.125 60.148438 32.601562 61.785156 31.40625 C 63.425781 30.210938 65.316406 29.613281 67.457031 29.613281 C 68.402344 29.613281 69.363281 29.773438 70.351562 30.09375 C 71.335938 30.414062 72.070312 30.710938 72.550781 30.988281 C 73.035156 31.265625 73.671875 31.660156 74.464844 32.171875 C 74.828125 32.429688 75.058594 32.78125 75.15625 33.230469 C 75.253906 33.675781 75.175781 34.085938 74.929688 34.460938 C 74.683594 34.835938 74.335938 35.070312 73.886719 35.164062 C 73.4375 35.261719 73.019531 35.179688 72.632812 34.925781 C 71.625 34.242188 70.730469 33.730469 69.949219 33.390625 C 69.167969 33.046875 68.335938 32.878906 67.457031 32.878906 C 66.042969 32.878906 64.886719 33.207031 63.988281 33.867188 C 63.085938 34.53125 62.636719 35.234375 62.636719 35.980469 C 62.636719 36.34375 62.722656 36.652344 62.894531 36.910156 C 63.492188 37.890625 65.113281 38.625 67.746094 39.117188 L 67.8125 39.117188 C 69.613281 39.480469 71.089844 39.925781 72.246094 40.460938 C 74.902344 41.761719 76.234375 43.554688 76.234375 45.835938 C 76.234375 47.820312 75.355469 49.445312 73.597656 50.714844 C 71.839844 51.984375 69.816406 52.621094 67.523438 52.621094 C 64.714844 52.597656 61.972656 51.53125 59.296875 49.417969 C 58.953125 49.144531 58.753906 48.769531 58.699219 48.300781 C 58.648438 47.832031 58.757812 47.425781 59.039062 47.082031 C 59.316406 46.742188 59.691406 46.546875 60.164062 46.492188 C 60.632812 46.441406 61.042969 46.5625 61.382812 46.859375 C 63.441406 48.523438 65.488281 49.34375 67.523438 49.324219 C 69.128906 49.324219 70.429688 48.957031 71.425781 48.21875 C 72.425781 47.484375 72.921875 46.6875 72.921875 45.835938 " fill-opacity="1" fill-rule="nonzero"/><path fill="#000000" d="M 80.425781 52.140625 C 80.074219 52.480469 79.65625 52.652344 79.171875 52.652344 C 78.691406 52.652344 78.273438 52.480469 77.917969 52.140625 C 77.566406 51.796875 77.390625 51.382812 77.390625 50.890625 L 77.390625 32.011719 C 77.390625 31.523438 77.558594 31.105469 77.902344 30.765625 C 78.246094 30.425781 78.664062 30.253906 79.15625 30.253906 C 79.648438 30.253906 80.074219 30.425781 80.425781 30.765625 C 80.78125 31.105469 80.957031 31.523438 80.957031 32.011719 L 80.957031 37.582031 C 82.136719 36.960938 83.28125 36.652344 84.394531 36.652344 C 86.324219 36.652344 87.972656 37.339844 89.34375 38.714844 C 90.714844 40.09375 91.402344 41.742188 91.402344 43.660156 L 91.402344 50.890625 C 91.402344 51.382812 91.230469 51.796875 90.886719 52.140625 C 90.542969 52.480469 90.128906 52.652344 89.632812 52.652344 C 89.140625 52.652344 88.722656 52.480469 88.382812 52.140625 C 88.039062 51.796875 87.867188 51.382812 87.867188 50.890625 L 87.867188 43.660156 C 87.867188 42.722656 87.527344 41.914062 86.855469 41.242188 C 86.179688 40.574219 85.359375 40.226562 84.394531 40.203125 C 83.453125 40.226562 82.648438 40.570312 81.984375 41.242188 C 81.320312 41.914062 80.976562 42.722656 80.957031 43.660156 L 80.957031 50.890625 C 80.957031 51.382812 80.78125 51.796875 80.425781 52.140625 " fill-opacity="1" fill-rule="nonzero"/><path fill="#000000" d="M 94.148438 50.316406 C 92.683594 48.757812 91.949219 46.875 91.949219 44.667969 C 91.949219 42.460938 92.683594 40.574219 94.148438 39.003906 C 95.617188 37.4375 97.433594 36.652344 99.597656 36.652344 C 101.117188 36.652344 102.542969 37.121094 103.871094 38.0625 C 103.980469 37.65625 104.183594 37.320312 104.484375 37.054688 C 104.78125 36.785156 105.152344 36.652344 105.589844 36.652344 C 106.03125 36.652344 106.414062 36.824219 106.75 37.164062 C 107.082031 37.507812 107.246094 37.910156 107.246094 38.378906 L 107.246094 50.957031 C 107.246094 51.425781 107.082031 51.824219 106.75 52.15625 C 106.414062 52.484375 106.03125 52.652344 105.589844 52.652344 C 105.152344 52.652344 104.78125 52.523438 104.484375 52.265625 C 104.183594 52.011719 103.980469 51.679688 103.871094 51.273438 C 102.566406 52.191406 101.140625 52.652344 99.597656 52.652344 C 97.433594 52.652344 95.617188 51.871094 94.148438 50.316406 M 95.386719 44.667969 C 95.386719 45.957031 95.777344 47.042969 96.558594 47.914062 C 97.34375 48.789062 98.347656 49.226562 99.582031 49.226562 C 100.8125 49.226562 101.832031 48.789062 102.632812 47.914062 C 103.4375 47.042969 103.839844 45.964844 103.839844 44.683594 C 103.839844 43.402344 103.433594 42.316406 102.617188 41.421875 C 101.804688 40.523438 100.792969 40.078125 99.582031 40.078125 C 98.371094 40.078125 97.367188 40.519531 96.578125 41.402344 C 95.785156 42.289062 95.386719 43.378906 95.386719 44.667969 " fill-opacity="1" fill-rule="nonzero"/><path fill="#000000" d="M 113.578125 38.570312 C 114.070312 37.996094 114.746094 37.53125 115.601562 37.179688 C 116.457031 36.828125 117.242188 36.65625 117.949219 36.667969 C 118.65625 36.679688 119.175781 36.84375 119.507812 37.164062 C 119.839844 37.484375 120.003906 37.875 120.003906 38.332031 C 120.003906 38.792969 119.839844 39.191406 119.507812 39.53125 C 119.175781 39.875 118.773438 40.042969 118.300781 40.042969 C 116.308594 40.042969 114.734375 41.65625 113.578125 44.875 L 113.578125 50.957031 C 113.578125 51.425781 113.40625 51.824219 113.0625 52.15625 C 112.71875 52.484375 112.308594 52.652344 111.824219 52.652344 C 111.34375 52.652344 110.9375 52.484375 110.605469 52.15625 C 110.273438 51.824219 110.105469 51.425781 110.105469 50.957031 L 110.105469 38.347656 C 110.105469 37.878906 110.273438 37.484375 110.605469 37.164062 C 110.9375 36.84375 111.34375 36.683594 111.824219 36.683594 C 112.308594 36.683594 112.71875 36.84375 113.0625 37.164062 C 113.40625 37.484375 113.578125 37.878906 113.578125 38.347656 Z M 113.578125 38.570312 " fill-opacity="1" fill-rule="nonzero"/><path fill="#000000" d="M 123.78125 58.140625 C 123.429688 58.492188 123.011719 58.667969 122.527344 58.667969 C 122.046875 58.667969 121.632812 58.492188 121.292969 58.140625 C 120.949219 57.785156 120.777344 57.386719 120.777344 56.9375 L 120.777344 38.347656 C 120.777344 37.878906 120.941406 37.480469 121.273438 37.148438 C 121.605469 36.816406 122.003906 36.652344 122.464844 36.652344 C 122.925781 36.652344 123.320312 36.78125 123.652344 37.035156 C 123.984375 37.292969 124.183594 37.601562 124.246094 37.964844 C 125.597656 37.089844 127.054688 36.652344 128.617188 36.652344 C 130.761719 36.652344 132.59375 37.441406 134.113281 39.019531 C 135.636719 40.597656 136.394531 42.488281 136.394531 44.683594 C 136.394531 46.882812 135.636719 48.753906 134.113281 50.300781 C 132.59375 51.847656 130.761719 52.621094 128.617188 52.621094 C 126.96875 52.621094 125.53125 52.183594 124.3125 51.308594 L 124.3125 56.941406 C 124.3125 57.386719 124.136719 57.785156 123.78125 58.140625 M 131.640625 41.453125 C 130.804688 40.578125 129.785156 40.140625 128.585938 40.140625 C 127.386719 40.140625 126.375 40.582031 125.550781 41.46875 C 124.722656 42.355469 124.3125 43.457031 124.3125 44.78125 C 124.3125 46.101562 124.730469 47.136719 125.566406 47.882812 C 126.378906 48.78125 127.382812 49.226562 128.570312 49.226562 C 129.757812 49.226562 130.777344 48.78125 131.625 47.882812 C 132.46875 46.988281 132.894531 45.925781 132.894531 44.699219 C 132.894531 43.472656 132.476562 42.390625 131.640625 41.453125 " fill-opacity="1" fill-rule="nonzero"/><path fill="#000000" d="M 138.886719 52.1875 C 138.425781 51.730469 138.195312 51.167969 138.195312 50.507812 C 138.195312 49.847656 138.425781 49.28125 138.886719 48.8125 C 139.347656 48.34375 139.910156 48.109375 140.574219 48.109375 C 141.238281 48.109375 141.804688 48.34375 142.277344 48.8125 C 142.75 49.28125 142.984375 49.847656 142.984375 50.507812 C 142.984375 51.167969 142.75 51.730469 142.277344 52.1875 C 141.804688 52.644531 141.238281 52.875 140.574219 52.875 C 139.910156 52.875 139.347656 52.644531 138.886719 52.1875 " fill-opacity="1" fill-rule="nonzero"/><path fill="#000000" d="M 40.265625 64.582031 C 40.265625 64.46875 40.324219 64.371094 40.441406 64.292969 C 40.558594 64.214844 40.683594 64.171875 40.816406 64.171875 C 40.984375 64.171875 41.09375 64.242188 41.140625 64.386719 L 42.949219 69.390625 L 44.40625 64.820312 C 44.445312 64.683594 44.546875 64.617188 44.714844 64.617188 C 44.878906 64.617188 44.984375 64.695312 45.023438 64.855469 L 46.421875 69.484375 L 48.273438 64.386719 C 48.300781 64.246094 48.402344 64.175781 48.582031 64.175781 C 48.714844 64.175781 48.839844 64.210938 48.957031 64.285156 C 49.074219 64.363281 49.132812 64.460938 49.132812 64.582031 C 49.132812 64.667969 49.117188 64.738281 49.078125 64.792969 L 46.875 70.742188 C 46.828125 70.894531 46.703125 70.96875 46.507812 70.96875 C 46.367188 70.96875 46.269531 70.898438 46.21875 70.761719 L 44.742188 66.175781 L 43.296875 70.679688 C 43.242188 70.871094 43.113281 70.96875 42.90625 70.96875 C 42.710938 70.96875 42.582031 70.875 42.527344 70.6875 L 40.320312 64.792969 C 40.285156 64.71875 40.265625 64.648438 40.265625 64.582031 " fill-opacity="1" fill-rule="nonzero"/><path fill="#000000" d="M 50.195312 68.28125 L 50.195312 66.703125 C 50.195312 66 50.460938 65.394531 50.988281 64.882812 C 51.515625 64.371094 52.152344 64.117188 52.894531 64.117188 C 53.609375 64.117188 54.230469 64.359375 54.753906 64.847656 C 55.273438 65.335938 55.535156 65.949219 55.535156 66.679688 C 55.535156 66.941406 55.503906 67.152344 55.445312 67.3125 C 55.382812 67.46875 55.285156 67.582031 55.148438 67.648438 C 55.011719 67.714844 54.886719 67.753906 54.773438 67.773438 C 54.660156 67.792969 54.503906 67.800781 54.308594 67.800781 L 51.113281 67.800781 L 51.113281 68.324219 C 51.113281 68.875 51.316406 69.320312 51.714844 69.652344 C 52.117188 69.984375 52.632812 70.152344 53.261719 70.152344 C 53.582031 70.152344 53.863281 70.105469 54.101562 70.011719 C 54.34375 69.917969 54.527344 69.824219 54.652344 69.730469 C 54.78125 69.632812 54.882812 69.589844 54.957031 69.589844 C 55.0625 69.589844 55.152344 69.636719 55.234375 69.734375 C 55.3125 69.835938 55.351562 69.929688 55.351562 70.023438 C 55.351562 70.222656 55.152344 70.425781 54.746094 70.636719 C 54.339844 70.847656 53.835938 70.953125 53.234375 70.953125 C 52.339844 70.953125 51.609375 70.707031 51.042969 70.214844 C 50.480469 69.722656 50.195312 69.078125 50.195312 68.28125 M 51.113281 67.125 L 53.941406 67.125 C 54.222656 67.125 54.410156 67.097656 54.503906 67.035156 C 54.597656 66.976562 54.644531 66.847656 54.644531 66.652344 C 54.644531 66.183594 54.480469 65.777344 54.144531 65.421875 C 53.808594 65.066406 53.390625 64.890625 52.878906 64.890625 C 52.390625 64.890625 51.972656 65.058594 51.628906 65.394531 C 51.285156 65.730469 51.113281 66.128906 51.113281 66.59375 Z M 51.113281 67.125 " fill-opacity="1" fill-rule="nonzero"/><path fill="#000000" d="M 59.914062 70.488281 L 59.914062 64.539062 C 59.914062 64.445312 59.957031 64.367188 60.042969 64.300781 C 60.128906 64.234375 60.234375 64.203125 60.367188 64.203125 C 60.488281 64.203125 60.59375 64.234375 60.679688 64.300781 C 60.761719 64.367188 60.804688 64.449219 60.804688 64.542969 L 60.804688 65.199219 C 60.976562 64.886719 61.222656 64.628906 61.546875 64.421875 C 61.871094 64.21875 62.25 64.117188 62.683594 64.117188 C 63.136719 64.117188 63.542969 64.246094 63.898438 64.507812 C 64.257812 64.765625 64.519531 65.109375 64.691406 65.535156 C 64.925781 65.074219 65.234375 64.71875 65.621094 64.480469 C 66.007812 64.238281 66.414062 64.117188 66.835938 64.117188 C 67.476562 64.117188 68.035156 64.355469 68.503906 64.835938 C 68.976562 65.3125 69.210938 65.949219 69.210938 66.746094 L 69.210938 70.488281 C 69.210938 70.582031 69.164062 70.667969 69.078125 70.742188 C 68.988281 70.816406 68.875 70.855469 68.746094 70.855469 C 68.621094 70.855469 68.515625 70.816406 68.425781 70.742188 C 68.335938 70.667969 68.292969 70.582031 68.292969 70.488281 L 68.292969 66.757812 C 68.292969 66.203125 68.128906 65.769531 67.804688 65.453125 C 67.480469 65.132812 67.105469 64.976562 66.683594 64.976562 C 66.25 64.976562 65.863281 65.136719 65.53125 65.460938 C 65.195312 65.78125 65.03125 66.195312 65.03125 66.699219 L 65.03125 70.503906 C 65.03125 70.738281 64.875 70.855469 64.5625 70.855469 C 64.261719 70.855469 64.109375 70.738281 64.109375 70.503906 L 64.109375 66.714844 C 64.109375 66.21875 63.953125 65.804688 63.636719 65.472656 C 63.320312 65.140625 62.941406 64.976562 62.5 64.976562 C 62.058594 64.976562 61.667969 65.136719 61.335938 65.460938 C 61 65.78125 60.832031 66.214844 60.832031 66.757812 L 60.832031 70.488281 C 60.832031 70.582031 60.785156 70.667969 60.691406 70.742188 C 60.597656 70.816406 60.488281 70.855469 60.367188 70.855469 C 60.246094 70.855469 60.140625 70.816406 60.050781 70.742188 C 59.960938 70.667969 59.914062 70.582031 59.914062 70.488281 " fill-opacity="1" fill-rule="nonzero"/><path fill="#000000" d="M 70.554688 69.097656 C 70.554688 68.359375 70.832031 67.84375 71.394531 67.558594 C 71.953125 67.269531 72.769531 67.125 73.84375 67.125 L 74.566406 67.125 L 74.566406 66.796875 C 74.566406 66.289062 74.429688 65.851562 74.15625 65.476562 C 73.882812 65.105469 73.460938 64.917969 72.898438 64.917969 C 72.519531 64.917969 72.179688 64.984375 71.875 65.117188 C 71.566406 65.253906 71.40625 65.320312 71.386719 65.320312 C 71.273438 65.320312 71.183594 65.269531 71.117188 65.167969 C 71.050781 65.066406 71.019531 64.953125 71.019531 64.832031 C 71.019531 64.65625 71.222656 64.492188 71.625 64.34375 C 72.03125 64.191406 72.464844 64.117188 72.925781 64.117188 C 73.8125 64.117188 74.457031 64.371094 74.867188 64.882812 C 75.277344 65.394531 75.484375 66.042969 75.484375 66.832031 L 75.484375 70.488281 C 75.484375 70.589844 75.441406 70.679688 75.355469 70.75 C 75.269531 70.820312 75.164062 70.855469 75.03125 70.855469 C 74.910156 70.855469 74.808594 70.820312 74.726562 70.75 C 74.648438 70.679688 74.605469 70.589844 74.605469 70.488281 L 74.605469 69.871094 C 73.976562 70.589844 73.265625 70.953125 72.472656 70.953125 C 71.910156 70.953125 71.449219 70.796875 71.089844 70.480469 C 70.730469 70.167969 70.554688 69.707031 70.554688 69.097656 M 71.472656 69.011719 C 71.472656 69.40625 71.585938 69.699219 71.808594 69.890625 C 72.035156 70.082031 72.332031 70.179688 72.699219 70.179688 C 73.140625 70.179688 73.5625 70.015625 73.964844 69.6875 C 74.363281 69.359375 74.566406 69.03125 74.566406 68.703125 L 74.566406 67.800781 L 73.972656 67.800781 C 73.59375 67.800781 73.277344 67.816406 73.019531 67.84375 C 72.757812 67.871094 72.503906 67.925781 72.246094 68 C 71.992188 68.074219 71.800781 68.195312 71.667969 68.363281 C 71.535156 68.53125 71.472656 68.75 71.472656 69.011719 " fill-opacity="1" fill-rule="nonzero"/><path fill="#000000" d="M 77.289062 70.488281 L 77.289062 60.460938 C 77.289062 60.367188 77.332031 60.285156 77.417969 60.222656 C 77.503906 60.15625 77.609375 60.121094 77.742188 60.121094 C 77.875 60.121094 77.984375 60.15625 78.074219 60.222656 C 78.164062 60.285156 78.207031 60.367188 78.207031 60.460938 L 78.207031 67.308594 L 81.65625 64.257812 C 81.75 64.203125 81.820312 64.171875 81.867188 64.171875 C 81.980469 64.171875 82.085938 64.21875 82.183594 64.308594 C 82.285156 64.398438 82.332031 64.496094 82.332031 64.609375 C 82.332031 64.722656 82.300781 64.808594 82.234375 64.863281 L 80.160156 66.675781 L 82.601562 70.234375 C 82.640625 70.3125 82.65625 70.375 82.65625 70.433594 C 82.65625 70.535156 82.605469 70.640625 82.503906 70.742188 C 82.398438 70.84375 82.285156 70.898438 82.164062 70.898438 C 82.050781 70.898438 81.957031 70.839844 81.882812 70.726562 L 79.507812 67.253906 L 78.207031 68.394531 L 78.207031 70.488281 C 78.207031 70.582031 78.164062 70.667969 78.074219 70.742188 C 77.984375 70.816406 77.875 70.855469 77.742188 70.855469 C 77.621094 70.855469 77.511719 70.816406 77.425781 70.742188 C 77.335938 70.667969 77.289062 70.582031 77.289062 70.488281 " fill-opacity="1" fill-rule="nonzero"/><path fill="#000000" d="M 83.363281 68.28125 L 83.363281 66.703125 C 83.363281 66 83.628906 65.394531 84.15625 64.882812 C 84.683594 64.371094 85.320312 64.117188 86.0625 64.117188 C 86.777344 64.117188 87.398438 64.359375 87.921875 64.847656 C 88.445312 65.335938 88.703125 65.949219 88.703125 66.679688 C 88.703125 66.941406 88.675781 67.152344 88.613281 67.3125 C 88.550781 67.46875 88.453125 67.582031 88.316406 67.648438 C 88.179688 67.714844 88.054688 67.753906 87.941406 67.773438 C 87.828125 67.792969 87.671875 67.800781 87.476562 67.800781 L 84.285156 67.800781 L 84.285156 68.324219 C 84.285156 68.875 84.484375 69.320312 84.882812 69.652344 C 85.285156 69.984375 85.796875 70.152344 86.429688 70.152344 C 86.75 70.152344 87.03125 70.105469 87.269531 70.011719 C 87.511719 69.917969 87.695312 69.824219 87.820312 69.730469 C 87.949219 69.632812 88.050781 69.589844 88.125 69.589844 C 88.230469 69.589844 88.320312 69.636719 88.402344 69.734375 C 88.480469 69.835938 88.519531 69.929688 88.519531 70.023438 C 88.519531 70.222656 88.316406 70.425781 87.914062 70.636719 C 87.507812 70.847656 87.003906 70.953125 86.402344 70.953125 C 85.507812 70.953125 84.777344 70.707031 84.210938 70.214844 C 83.648438 69.722656 83.363281 69.078125 83.363281 68.28125 M 84.285156 67.125 L 87.109375 67.125 C 87.390625 67.125 87.582031 67.097656 87.675781 67.035156 C 87.769531 66.976562 87.816406 66.847656 87.816406 66.652344 C 87.816406 66.183594 87.648438 65.777344 87.3125 65.421875 C 86.980469 65.066406 86.558594 64.890625 86.050781 64.890625 C 85.558594 64.890625 85.144531 65.058594 84.796875 65.394531 C 84.453125 65.730469 84.285156 66.128906 84.285156 66.59375 Z M 84.285156 67.125 " fill-opacity="1" fill-rule="nonzero"/><path fill="#000000" d="M 93.269531 70.488281 L 93.269531 60.910156 C 93.269531 60.6875 93.421875 60.574219 93.734375 60.574219 C 94.042969 60.574219 94.199219 60.6875 94.199219 60.910156 L 94.199219 70.488281 C 94.199219 70.601562 94.152344 70.691406 94.058594 70.753906 C 93.964844 70.820312 93.855469 70.855469 93.734375 70.855469 C 93.601562 70.855469 93.492188 70.820312 93.402344 70.753906 C 93.3125 70.691406 93.269531 70.601562 93.269531 70.488281 " fill-opacity="1" fill-rule="nonzero"/><path fill="#000000" d="M 95.570312 61 C 95.570312 60.890625 95.601562 60.792969 95.660156 60.703125 C 95.722656 60.617188 95.8125 60.574219 95.925781 60.574219 L 101.589844 60.574219 C 101.703125 60.574219 101.789062 60.613281 101.851562 60.699219 C 101.910156 60.78125 101.941406 60.875 101.941406 60.988281 C 101.941406 61.109375 101.910156 61.210938 101.851562 61.300781 C 101.789062 61.386719 101.703125 61.429688 101.589844 61.429688 L 99.230469 61.429688 L 99.230469 70.488281 C 99.230469 70.601562 99.183594 70.6875 99.089844 70.753906 C 98.996094 70.820312 98.886719 70.851562 98.761719 70.851562 C 98.632812 70.851562 98.519531 70.820312 98.429688 70.753906 C 98.339844 70.6875 98.296875 70.597656 98.296875 70.488281 L 98.296875 61.429688 L 95.925781 61.429688 C 95.820312 61.429688 95.734375 61.390625 95.667969 61.304688 C 95.601562 61.222656 95.570312 61.121094 95.570312 61 " fill-opacity="1" fill-rule="nonzero"/><path fill="#000000" d="M 106.039062 70.488281 L 106.039062 64.539062 C 106.039062 64.445312 106.078125 64.367188 106.164062 64.300781 C 106.25 64.234375 106.359375 64.203125 106.488281 64.203125 C 106.613281 64.203125 106.714844 64.234375 106.800781 64.300781 C 106.886719 64.367188 106.929688 64.449219 106.929688 64.542969 L 106.929688 65.242188 C 107.097656 64.929688 107.347656 64.664062 107.675781 64.445312 C 108.003906 64.226562 108.386719 64.117188 108.820312 64.117188 L 109.316406 64.117188 C 109.410156 64.117188 109.492188 64.160156 109.570312 64.246094 C 109.644531 64.332031 109.683594 64.433594 109.683594 64.546875 C 109.683594 64.660156 109.644531 64.761719 109.570312 64.847656 C 109.492188 64.933594 109.410156 64.976562 109.316406 64.976562 L 108.820312 64.976562 C 108.332031 64.976562 107.898438 65.164062 107.519531 65.542969 C 107.144531 65.921875 106.957031 66.417969 106.957031 67.023438 L 106.957031 70.488281 C 106.957031 70.582031 106.910156 70.667969 106.820312 70.742188 C 106.730469 70.816406 106.621094 70.855469 106.488281 70.855469 C 106.367188 70.855469 106.261719 70.816406 106.171875 70.742188 C 106.082031 70.667969 106.039062 70.582031 106.039062 70.488281 " fill-opacity="1" fill-rule="nonzero"/><path fill="#000000" d="M 110.726562 68.308594 L 110.726562 64.554688 C 110.726562 64.46875 110.773438 64.390625 110.863281 64.3125 C 110.953125 64.238281 111.0625 64.199219 111.195312 64.199219 C 111.308594 64.199219 111.410156 64.238281 111.503906 64.3125 C 111.597656 64.386719 111.644531 64.46875 111.644531 64.550781 L 111.644531 68.296875 C 111.644531 68.765625 111.820312 69.183594 112.167969 69.546875 C 112.515625 69.910156 112.929688 70.09375 113.410156 70.09375 C 113.890625 70.09375 114.304688 69.910156 114.65625 69.546875 C 115.003906 69.183594 115.175781 68.765625 115.175781 68.296875 L 115.175781 64.539062 C 115.175781 64.445312 115.222656 64.363281 115.316406 64.300781 C 115.414062 64.234375 115.519531 64.203125 115.644531 64.203125 C 115.765625 64.203125 115.871094 64.234375 115.960938 64.300781 C 116.050781 64.367188 116.09375 64.445312 116.09375 64.539062 L 116.09375 68.308594 C 116.09375 69.011719 115.828125 69.628906 115.296875 70.15625 C 114.765625 70.6875 114.136719 70.953125 113.410156 70.953125 C 112.675781 70.953125 112.046875 70.6875 111.519531 70.15625 C 110.992188 69.628906 110.726562 69.011719 110.726562 68.308594 " fill-opacity="1" fill-rule="nonzero"/><path fill="#000000" d="M 117.890625 70.488281 L 117.890625 64.539062 C 117.890625 64.4375 117.929688 64.355469 118.015625 64.292969 C 118.101562 64.230469 118.210938 64.203125 118.339844 64.203125 C 118.453125 64.203125 118.554688 64.234375 118.636719 64.300781 C 118.722656 64.367188 118.765625 64.449219 118.765625 64.542969 L 118.765625 65.199219 C 118.925781 64.894531 119.171875 64.640625 119.5 64.429688 C 119.828125 64.222656 120.214844 64.117188 120.660156 64.117188 C 121.335938 64.117188 121.925781 64.375 122.425781 64.890625 C 122.921875 65.40625 123.171875 66.023438 123.171875 66.746094 L 123.171875 70.488281 C 123.171875 70.601562 123.125 70.691406 123.03125 70.753906 C 122.9375 70.820312 122.828125 70.851562 122.707031 70.851562 C 122.59375 70.851562 122.488281 70.820312 122.394531 70.753906 C 122.300781 70.691406 122.253906 70.601562 122.253906 70.488281 L 122.253906 66.757812 C 122.253906 66.296875 122.078125 65.886719 121.730469 65.523438 C 121.382812 65.15625 120.96875 64.972656 120.488281 64.972656 C 120.046875 64.972656 119.65625 65.136719 119.316406 65.464844 C 118.976562 65.792969 118.808594 66.222656 118.808594 66.757812 L 118.808594 70.488281 C 118.808594 70.582031 118.761719 70.667969 118.667969 70.742188 C 118.574219 70.816406 118.464844 70.855469 118.339844 70.855469 C 118.210938 70.855469 118.101562 70.816406 118.015625 70.742188 C 117.929688 70.664062 117.890625 70.582031 117.890625 70.488281 " fill-opacity="1" fill-rule="nonzero"/><path fill="#000000" d="M 124.65625 70.242188 C 124.65625 70.042969 124.714844 69.871094 124.832031 69.734375 C 124.953125 69.601562 125.101562 69.53125 125.285156 69.53125 C 125.449219 69.53125 125.589844 69.601562 125.714844 69.746094 C 125.835938 69.886719 125.898438 70.050781 125.898438 70.242188 C 125.898438 70.425781 125.835938 70.585938 125.714844 70.726562 C 125.589844 70.867188 125.449219 70.9375 125.285156 70.9375 C 125.101562 70.9375 124.953125 70.871094 124.832031 70.734375 C 124.714844 70.597656 124.65625 70.433594 124.65625 70.242188 " fill-opacity="1" fill-rule="nonzero"/></svg>