<?xml version="1.0" encoding="UTF-8"?><svg xmlns="http://www.w3.org/2000/svg" viewBox="0 0 623.62 255.12"><defs><style>.cls-1{fill:#fff;}.cls-2{fill:#324c92;}.cls-3{fill:#494444;}.cls-4{fill:#9b9a9b;}.cls-5{fill:#878587;}</style></defs><g id="BG"><rect class="cls-1" y="0" width="623.62" height="255.12"/></g><g id="Logo"><g><g><path class="cls-2" d="m225.62,152.42c2.41,0,4.45.32,6.12.97,1.67.65,3.04,1.53,4.12,2.64,1.07,1.12,1.84,2.42,2.31,3.92s.7,3.11.7,4.85c0,1.47-.36,3.01-1.07,4.62-.71,1.61-1.9,2.9-3.55,3.88,1.61.98,2.78,2.27,3.51,3.85.74,1.58,1.1,3.2,1.1,4.85,0,1.56-.23,3.09-.7,4.58-.47,1.5-1.23,2.82-2.28,3.98-1.05,1.16-2.42,2.1-4.12,2.81-1.7.71-3.75,1.07-6.16,1.07h-20.94v-7.36h22.01c1.43,0,2.59-.48,3.48-1.44.89-.96,1.34-2.22,1.34-3.78,0-1.29-.47-2.43-1.4-3.41-.94-.98-2.05-1.47-3.35-1.47h-22.08v-7.36h22.01c1.43,0,2.59-.48,3.48-1.44.89-.96,1.34-2.13,1.34-3.51,0-1.3-.47-2.43-1.4-3.41-.94-.98-2.05-1.47-3.35-1.47h-22.08v-7.36h20.95Z"/><path class="cls-2" d="m244.23,152.42h7.36v42.02h-7.36v-42.02Z"/><path class="cls-2" d="m279.36,152.42c12.62,0,19,6.96,19.14,20.88v.2c0,13.96-6.36,20.95-19.07,20.95h-3.35c-12.71,0-19.07-6.98-19.07-20.95v-.2c.04-6.91,1.65-12.12,4.82-15.62,3.17-3.5,7.94-5.25,14.32-5.25h3.21Zm1.94,34.66c6.56,0,9.84-4.51,9.84-13.52,0-4.73-.82-8.21-2.44-10.44-1.63-2.23-4.12-3.35-7.46-3.35h-6.96c-3.35,0-5.83,1.12-7.46,3.35-1.63,2.23-2.44,5.71-2.44,10.44,0,9.01,3.28,13.52,9.84,13.52h7.09Z"/><path class="cls-3" d="m321.25,152.42c12.71,0,19.07,6.98,19.07,20.94v.2c-.13,13.92-6.51,20.88-19.14,20.88h-17.27v-42.02h17.33Zm-9.97,34.66h11.78c3.35,0,5.83-1.12,7.46-3.34,1.63-2.23,2.44-5.71,2.44-10.44,0-9.01-3.28-13.52-9.84-13.52h-11.85v27.3Z"/><path class="cls-3" d="m378.26,159.78h-22.08c-1.3,0-2.41.49-3.35,1.47-.94.98-1.4,2.12-1.4,3.41,0,1.38.45,2.55,1.34,3.51.89.96,2.05,1.44,3.48,1.44h22.02v7.36h-22.08c-1.3,0-2.41.49-3.35,1.47-.94.98-1.4,2.12-1.4,3.41,0,1.56.45,2.82,1.34,3.78.89.96,2.05,1.44,3.48,1.44h22.02v7.36h-20.94c-2.46,0-4.52-.36-6.19-1.07-1.67-.71-3.04-1.66-4.08-2.84-1.05-1.18-1.81-2.51-2.28-3.98-.47-1.47-.7-2.99-.7-4.55,0-1.65.36-3.27,1.07-4.85.71-1.58,1.87-2.87,3.48-3.85-1.65-.98-2.83-2.27-3.51-3.88-.69-1.61-1.04-3.15-1.04-4.62,0-1.74.24-3.37.74-4.88.49-1.52,1.26-2.83,2.31-3.95,1.05-1.11,2.41-1.98,4.08-2.61,1.67-.63,3.71-.94,6.12-.94h20.94v7.36h0Z"/><path class="cls-3" d="m402.75,194.44c-12.71,0-19.07-6.98-19.07-20.95v-.2c.13-13.92,6.51-20.88,19.14-20.88h15.32v7.36h-17.2c-3.35,0-5.83,1.12-7.46,3.35-1.63,2.23-2.44,5.71-2.44,10.44,0,9.01,3.28,13.52,9.84,13.52h17.2v7.36h-15.32Z"/></g><g><path class="cls-4" d="m256.99,53.87c4.44,0,8.04,3.6,8.04,8.04s-3.6,8.03-8.04,8.03-8.03-3.6-8.03-8.03,3.6-8.04,8.03-8.04Z"/><circle class="cls-4" cx="256.99" cy="42.06" r="8.04"/><circle class="cls-4" cx="256.99" cy="22.21" r="8.03"/><path class="cls-4" d="m278.25,109.65c4.44,0,8.04,3.6,8.04,8.03s-3.6,8.04-8.04,8.04-8.03-3.6-8.03-8.04c0-4.44,3.6-8.03,8.03-8.03Z"/><path class="cls-2" d="m344.2,109.65c4.44,0,8.03,3.6,8.03,8.03s-3.59,8.04-8.03,8.04-8.04-3.6-8.04-8.04,3.6-8.03,8.04-8.03Z"/><circle class="cls-4" cx="278.25" cy="97.83" r="8.03"/><path class="cls-3" d="m262.88,73.72c1.18,0,2.14.96,2.14,2.14v27.86c0,1.18-.96,2.14-2.14,2.14h-11.78c-1.18,0-2.14-.96-2.14-2.14v-27.86c0-1.18.96-2.14,2.14-2.14h11.78Z"/><path class="cls-3" d="m306.49,93.58c1.18,0,2.14.96,2.14,2.14v27.86c0,1.18-.96,2.14-2.14,2.14h-11.78c-1.18,0-2.14-.96-2.14-2.14v-27.86c0-1.18.96-2.14,2.14-2.14h11.78Z"/><path class="cls-3" d="m328.29,93.58c1.18,0,2.14.96,2.14,2.14v27.86c0,1.18-.96,2.14-2.14,2.14h-11.79c-1.18,0-2.14-.96-2.14-2.14v-27.86c0-1.18.96-2.14,2.14-2.14h11.79Z"/><path class="cls-3" d="m306.49,57.65c1.18,0,2.14.96,2.14,2.14v27.86c0,1.19-.96,2.14-2.14,2.14h-11.78c-1.18,0-2.14-.96-2.14-2.14v-27.86c0-1.18.96-2.14,2.14-2.14h11.78Z"/><path class="cls-3" d="m306.49,21.14c1.18,0,2.14.96,2.14,2.14v27.86c0,1.18-.96,2.14-2.14,2.14h-11.78c-1.18,0-2.14-.96-2.14-2.14v-27.86c0-1.18.96-2.14,2.14-2.14h11.78Z"/><path class="cls-4" d="m321.91,73.75c4.44,0,8.03,3.6,8.03,8.04s-3.59,8.04-8.03,8.04-8.04-3.6-8.04-8.04,3.6-8.04,8.04-8.04Z"/><path class="cls-3" d="m371.39,93.84c1.18,0,2.14.96,2.14,2.14v27.86c0,1.18-.96,2.14-2.14,2.14h-11.79c-1.18,0-2.14-.96-2.14-2.14v-27.86c0-1.19.96-2.14,2.14-2.14h11.79Z"/><path class="cls-4" d="m365.01,74.02c4.44,0,8.04,3.6,8.04,8.04s-3.6,8.03-8.04,8.03-8.04-3.6-8.04-8.03,3.6-8.04,8.04-8.04Z"/><path class="cls-3" d="m371.15,37.83c1.18,0,2.15.96,2.15,2.14v27.86c0,1.18-.96,2.14-2.15,2.14h-11.79c-1.18,0-2.14-.96-2.14-2.14v-27.86c0-1.18.96-2.14,2.14-2.14h11.79Z"/><path class="cls-4" d="m364.77,18.01c4.43,0,8.03,3.6,8.03,8.03s-3.6,8.04-8.03,8.04-8.04-3.6-8.04-8.04,3.6-8.03,8.04-8.03Z"/><path class="cls-4" d="m321.91,53.9c4.44,0,8.03,3.6,8.03,8.03s-3.59,8.04-8.03,8.04-8.04-3.6-8.04-8.04,3.6-8.03,8.04-8.03Z"/></g><g><path class="cls-5" d="m179.99,222.22c-.04-.97-.08-1.94-.12-2.91.68.03,1.36.06,2.03.08.67.02,1.35.03,2.03.03s1.35-.01,2.02-.03c.67-.02,1.34-.05,2.02-.08-.05.23-.07.45-.07.68s.02.45.07.68c-.48-.03-.93-.06-1.33-.09-.4-.03-.83-.06-1.27-.09-.45-.03-.94-.06-1.46-.08-.53-.02-1.17-.03-1.91-.03-.01.48-.03.95-.06,1.39s-.03.94-.03,1.5c0,.59,0,1.17.01,1.72,0,.56.01.99.01,1.27.67,0,1.26,0,1.79-.02.53-.02,1.01-.03,1.45-.06.44-.02.84-.05,1.21-.07.37-.02.72-.05,1.06-.08-.05.23-.07.46-.07.7,0,.23.02.45.07.68-.39-.05-.85-.08-1.37-.12-.52-.03-1.04-.05-1.57-.06-.52,0-1.01-.02-1.48-.02-.46,0-.83-.01-1.1-.01,0,.14,0,.28-.01.44,0,.16-.01.36-.01.6v2.25c0,.86,0,1.58.01,2.13,0,.56.02.98.03,1.27h1.59c.57,0,1.14-.01,1.69-.03.55-.02,1.07-.05,1.57-.09.49-.04.92-.09,1.28-.17-.03.11-.05.22-.06.35,0,.13-.01.25-.01.35,0,.24.02.44.07.59-.68-.03-1.36-.05-2.03-.05h-4.12c-.68,0-1.37.01-2.07.05.05-.97.09-1.94.12-2.9.04-.96.06-1.94.06-2.94v-3.91c0-1-.02-1.99-.06-2.95Z"/><path class="cls-5" d="m191.95,229.55c-.7-1.79-1.47-3.59-2.3-5.43.2.03.39.06.57.08.18.02.37.03.57.03.17,0,.33-.01.5-.03.17-.02.33-.05.5-.08.47,1.5.98,2.97,1.53,4.42.55,1.44,1.17,2.93,1.85,4.44.3-.62.6-1.29.9-2.01.3-.72.59-1.46.89-2.24.3-.77.58-1.55.86-2.33.28-.78.56-1.54.83-2.28.27.08.51.11.7.11s.43-.04.7-.11c-.82,1.83-1.62,3.64-2.41,5.43-.79,1.79-1.51,3.57-2.16,5.36-.23-.03-.46-.05-.7-.05s-.48.01-.73.05c-.7-1.79-1.4-3.57-2.1-5.36Z"/><path class="cls-5" d="m201.4,226.93c.33-.72.75-1.3,1.28-1.75.53-.45,1.12-.77,1.78-.98.66-.2,1.31-.31,1.96-.31s1.32.1,1.98.31c.65.2,1.24.53,1.77.98.53.44.96,1.03,1.28,1.75.33.72.49,1.59.49,2.62s-.16,1.9-.49,2.62c-.33.72-.75,1.3-1.28,1.75-.53.45-1.12.76-1.77.94-.65.18-1.31.27-1.98.27s-1.3-.09-1.96-.27c-.66-.18-1.25-.5-1.78-.94-.53-.45-.96-1.03-1.28-1.75-.33-.72-.49-1.59-.49-2.62s.16-1.9.49-2.62Zm1.68,4.46c.11.59.31,1.12.58,1.58.27.46.63.83,1.09,1.1.45.27,1.01.41,1.68.41s1.23-.14,1.68-.41c.45-.27.82-.64,1.09-1.1.27-.46.47-.99.58-1.58.11-.59.17-1.2.17-1.84s-.06-1.25-.17-1.84c-.11-.59-.31-1.12-.58-1.58-.27-.46-.64-.83-1.09-1.1-.45-.27-1.01-.41-1.68-.41s-1.23.14-1.68.41c-.45.27-.82.64-1.09,1.1-.27.46-.47.99-.58,1.58-.11.59-.17,1.2-.17,1.84s.06,1.25.17,1.84Z"/><path class="cls-5" d="m215.04,222.65c0-.6-.02-1.2-.03-1.79-.02-.59-.03-1.15-.06-1.69-.02-.54-.05-1-.08-1.37.42.08.76.12,1.02.12s.6-.04,1.02-.12c-.03.38-.06.84-.08,1.37-.02.54-.04,1.1-.06,1.69-.01.59-.03,1.19-.03,1.79,0,.61-.01,1.17-.01,1.68v4.11c0,.51,0,1.08.01,1.68,0,.61.02,1.21.03,1.79.01.59.03,1.15.06,1.68.02.53.05.97.08,1.32-.35-.03-.69-.05-1.02-.05s-.68.01-1.02.05c.03-.35.06-.79.08-1.32.02-.53.04-1.09.06-1.68.01-.59.03-1.19.03-1.79,0-.6.01-1.17.01-1.68v-4.11c0-.51,0-1.08-.01-1.68Z"/><path class="cls-5" d="m221.83,229.55c-.7-1.79-1.47-3.59-2.3-5.43.2.03.39.06.57.08.18.02.37.03.57.03.17,0,.33-.01.5-.03.17-.02.33-.05.5-.08.47,1.5.98,2.97,1.53,4.42.55,1.44,1.17,2.93,1.85,4.44.3-.62.6-1.29.9-2.01.3-.72.59-1.46.89-2.24.29-.77.58-1.55.86-2.33.28-.78.56-1.54.83-2.28.27.08.51.11.7.11s.43-.04.7-.11c-.82,1.83-1.62,3.64-2.41,5.43-.79,1.79-1.51,3.57-2.16,5.36-.23-.03-.46-.05-.7-.05s-.48.01-.73.05c-.7-1.79-1.4-3.57-2.1-5.36Z"/><path class="cls-5" d="m232.75,219.35c.23-.23.5-.34.82-.34s.59.11.82.34c.23.23.34.5.34.82s-.11.59-.34.82c-.23.23-.5.34-.82.34s-.59-.11-.82-.34c-.23-.23-.34-.5-.34-.82,0-.32.11-.59.34-.82Zm-.06,6.87c-.02-.75-.07-1.45-.15-2.1.42.08.76.11,1.02.11s.6-.04,1.02-.11c-.08.65-.12,1.35-.15,2.1-.02.75-.03,1.46-.03,2.15v2.36c0,.68.01,1.4.03,2.15.02.75.07,1.43.15,2.03-.35-.03-.69-.05-1.02-.05s-.68.01-1.02.05c.08-.61.12-1.28.15-2.03.02-.75.03-1.46.03-2.15v-2.36c0-.68-.01-1.4-.03-2.15Z"/><path class="cls-5" d="m245.19,225.95c-.44-.58-1.04-.87-1.82-.87-1.06,0-1.84.32-2.33.97-.49.65-.74,1.57-.74,2.75v1.93c0,.68.01,1.4.03,2.15.02.75.07,1.43.15,2.03-.35-.03-.69-.05-1.02-.05s-.67.01-1.02.05c.08-.61.12-1.28.15-2.03.02-.75.03-1.46.03-2.15v-2.36c0-.68-.01-1.4-.03-2.15-.02-.75-.07-1.45-.15-2.1.42.08.76.11,1.02.11.12,0,.25-.01.4-.03.14-.02.31-.05.51-.08-.05.61-.07,1.21-.07,1.82h.05c.43-.65.93-1.15,1.53-1.51.59-.36,1.3-.53,2.12-.53.43,0,.85.06,1.29.18s.82.33,1.17.63c.35.29.63.7.85,1.2.22.51.33,1.15.33,1.94,0,.65-.02,1.32-.05,2.01-.03.69-.05,1.42-.05,2.19v1.48c0,.24,0,.48.01.72,0,.23.02.46.03.67-.31-.03-.63-.05-.97-.05s-.64.01-.94.05c.03-.79.06-1.6.1-2.43.04-.83.06-1.69.06-2.56v-1.39c0-1.13-.22-1.99-.66-2.57Z"/><path class="cls-5" d="m250.82,225.95c.23-.46.54-.84.94-1.15.4-.3.86-.53,1.39-.68.52-.15,1.08-.23,1.67-.23.29,0,.56,0,.83.02.26.02.6.04,1.01.07.35.03.66.05.93.07.27.02.49.02.66.02.85,0,1.46-.04,1.84-.11-.01.08-.03.15-.03.24,0,.08-.01.16-.01.24s0,.16.01.24c0,.08.02.16.03.24-.44-.03-.87-.06-1.28-.1-.42-.04-.83-.06-1.24-.08l-.05.05c.47.26.85.66,1.14,1.19.29.54.43,1.09.43,1.67,0,1.14-.38,2.02-1.15,2.67-.76.64-1.79.96-3.08.96-.21,0-.42,0-.62-.02-.2-.02-.41-.02-.62-.02-.27,0-.53.1-.76.3-.24.2-.35.45-.35.75,0,.39.09.68.28.86.19.18.54.28,1.05.3.42.02.84.03,1.25.03.41,0,.83.02,1.25.04.7.01,1.29.1,1.78.25.49.15.89.36,1.2.61.31.26.54.55.68.89.14.33.22.69.22,1.09,0,.53-.1,1.07-.31,1.61-.2.55-.52,1.04-.95,1.48-.43.44-.99.8-1.67,1.09-.68.29-1.5.43-2.45.43-1.47,0-2.63-.29-3.47-.87-.85-.58-1.27-1.38-1.27-2.4,0-.39.07-.76.22-1.09.14-.33.33-.63.56-.88.23-.26.48-.46.77-.61.29-.15.58-.27.89-.34v-.05c-.47-.14-.83-.36-1.07-.68-.24-.32-.36-.69-.36-1.13,0-.26.05-.49.15-.7.1-.21.22-.4.37-.57.15-.17.33-.3.52-.41.2-.1.39-.17.57-.2v-.05c-.7-.3-1.24-.73-1.64-1.28-.39-.55-.59-1.24-.59-2.08,0-.64.11-1.18.34-1.64Zm6.93,9.46c-.53-.36-1.41-.55-2.63-.55-1.14,0-2.01.19-2.63.56-.62.37-.93,1.04-.93,2.01,0,.51.09.95.26,1.32.17.36.41.66.7.89.3.23.65.4,1.06.5.41.11.85.16,1.32.16s.9-.06,1.34-.18c.44-.12.83-.3,1.17-.54.34-.24.62-.55.83-.92.21-.37.32-.81.32-1.33,0-.91-.27-1.54-.8-1.9Zm-1.11-10.11c-.45-.5-1.05-.75-1.79-.75-.82,0-1.45.28-1.91.83-.45.55-.68,1.29-.68,2.22s.21,1.71.62,2.26c.42.55,1.06.83,1.94.83.44,0,.81-.09,1.12-.26.31-.17.57-.41.77-.7.2-.3.36-.63.45-1.02.1-.38.15-.79.15-1.22,0-.95-.23-1.68-.68-2.18Z"/><path class="cls-5" d="m269.18,222.25c-.04-.96-.08-1.94-.12-2.94.2.03.39.06.57.08.18.02.36.03.55.03s.36-.01.55-.03c.18-.02.37-.05.57-.08-.05,1-.09,1.98-.12,2.94-.04.96-.06,1.94-.06,2.94v3.91c0,1,.02,1.98.06,2.95.04.97.08,1.92.12,2.86-.35-.03-.72-.05-1.11-.05s-.76.01-1.11.05c.05-.94.09-1.89.12-2.86.04-.97.06-1.95.06-2.95v-3.91c0-1-.02-1.98-.06-2.94Z"/><path class="cls-5" d="m286.64,234.38c-.3.14-.65.27-1.07.38-.42.11-.88.22-1.4.31-.51.09-1.05.14-1.61.14-1.2,0-2.3-.17-3.31-.51-1.01-.34-1.89-.86-2.62-1.56-.74-.7-1.31-1.55-1.73-2.55-.42-1.01-.62-2.15-.62-3.44s.21-2.44.62-3.44c.42-1.01,1-1.86,1.75-2.55.75-.7,1.65-1.23,2.69-1.59,1.04-.36,2.19-.54,3.45-.54,1,0,1.91.1,2.74.31.83.2,1.56.45,2.19.74-.12.21-.22.5-.3.86-.08.36-.14.67-.18.91l-.14.04c-.15-.18-.36-.38-.64-.61-.27-.23-.59-.45-.95-.66-.36-.21-.77-.39-1.23-.53-.45-.14-.95-.22-1.5-.22-.89,0-1.72.14-2.49.43-.76.29-1.43.73-2,1.33-.57.6-1.01,1.36-1.33,2.27s-.48,2-.48,3.26.16,2.34.48,3.26c.32.92.76,1.67,1.33,2.27.57.6,1.23,1.04,2,1.33.76.29,1.59.43,2.49.43.54,0,1.05-.07,1.51-.2.46-.14.89-.3,1.27-.49.39-.19.73-.39,1.04-.61.31-.22.57-.41.78-.58l.09.09-.2,1.34c-.14.12-.35.25-.65.4Z"/><path class="cls-5" d="m293.78,220.49c-.39,0-.81,0-1.24.01-.43,0-.86.02-1.3.04-.43.02-.85.05-1.25.08-.4.03-.76.07-1.08.12.08-.27.11-.51.11-.73,0-.17-.04-.4-.11-.7,1,.03,1.98.06,2.93.08.95.02,1.93.03,2.93.03s1.97-.01,2.93-.03c.95-.02,1.93-.05,2.93-.08-.08.3-.11.54-.11.73,0,.2.04.43.11.7-.32-.05-.68-.08-1.08-.12-.4-.03-.82-.06-1.25-.08-.43-.02-.86-.04-1.29-.04-.43,0-.84-.01-1.24-.01-.05,1.56-.07,3.13-.07,4.7v3.91c0,1,.02,1.98.06,2.95.04.97.08,1.92.13,2.86-.35-.03-.72-.05-1.11-.05s-.76.01-1.11.05c.05-.94.09-1.89.13-2.86.04-.97.06-1.95.06-2.95v-3.91c0-1.57-.02-3.14-.07-4.7Z"/><path class="cls-5" d="m309.57,222.25c-.04-.96-.08-1.94-.12-2.94.2.03.39.06.57.08.18.02.36.03.55.03s.36-.01.55-.03c.18-.02.37-.05.57-.08-.05,1-.09,1.98-.12,2.94-.04.96-.06,1.94-.06,2.94v3.91c0,1,.02,1.98.06,2.95.04.97.08,1.92.12,2.86-.35-.03-.72-.05-1.11-.05s-.76.01-1.11.05c.04-.94.09-1.89.12-2.86.04-.97.06-1.95.06-2.95v-3.91c0-1-.02-1.98-.06-2.94Z"/><path class="cls-5" d="m322.19,225.95c-.44-.58-1.05-.87-1.82-.87-1.06,0-1.84.32-2.33.97-.49.65-.74,1.57-.74,2.75v1.93c0,.68.01,1.4.03,2.15.02.75.07,1.43.15,2.03-.35-.03-.69-.05-1.02-.05s-.67.01-1.02.05c.08-.61.12-1.28.15-2.03.02-.75.04-1.46.04-2.15v-2.36c0-.68-.01-1.4-.04-2.15-.02-.75-.07-1.45-.15-2.1.42.08.76.11,1.02.11.12,0,.26-.01.4-.03.15-.02.31-.05.51-.08-.04.61-.07,1.21-.07,1.82h.05c.42-.65.93-1.15,1.52-1.51.59-.36,1.3-.53,2.12-.53.42,0,.85.06,1.29.18.43.12.82.33,1.17.63.35.29.63.7.85,1.2.22.51.33,1.15.33,1.94,0,.65-.02,1.32-.05,2.01-.03.69-.05,1.42-.05,2.19v1.48c0,.24,0,.48.01.72,0,.23.02.46.03.67-.31-.03-.63-.05-.96-.05s-.64.01-.94.05c.03-.79.06-1.6.1-2.43.04-.83.05-1.69.05-2.56v-1.39c0-1.13-.22-1.99-.66-2.57Z"/><path class="cls-5" d="m331.63,219.33c-.33,0-.62.06-.85.19-.23.13-.43.3-.58.5-.15.2-.26.44-.33.72-.07.27-.1.56-.1.86,0,.27.03.67.09,1.18.06.52.13,1.01.21,1.48.39,0,.78,0,1.17-.01.39,0,.78-.01,1.17-.01-.01.08-.02.15-.03.23,0,.08-.01.15-.01.23s0,.15.01.23.02.15.03.23c-.39-.01-.78-.03-1.17-.04-.39-.02-.78-.02-1.17-.02,0,1.65,0,3.29.01,4.92,0,1.63.03,3.27.08,4.92-.17-.03-.34-.05-.51-.05h-.48c-.32,0-.66.01-1.01.05.11-1.65.17-3.28.18-4.89.01-1.61.02-3.26.02-4.94-.27,0-.54,0-.82.02-.27.02-.55.03-.82.04.02-.08.03-.15.03-.23,0-.08.01-.15.01-.23s0-.15-.01-.23c0-.08-.02-.15-.03-.23.27,0,.55,0,.83.01.28,0,.55.01.81.01,0-.44.05-.92.14-1.43.09-.52.22-1.02.4-1.52.17-.5.38-.97.63-1.42.24-.45.51-.82.82-1.12.27-.27.62-.51,1.03-.73.42-.21.84-.32,1.29-.32.16,0,.32.02.45.07-.01.3-.03.61-.05.91-.02.3-.03.6-.03.91l-.14.07c-.36-.23-.78-.34-1.25-.34Z"/><path class="cls-5" d="m339.14,225.74c-.22-.08-.44-.12-.67-.12-.36,0-.69.08-.98.25-.29.16-.53.39-.73.67-.2.28-.35.61-.45,1-.11.39-.16.8-.16,1.24v2.5c0,1.01,0,1.79.01,2.33,0,.54.04.97.08,1.3-.3-.03-.6-.05-.91-.05-.33,0-.65.01-.95.05.05-.51.07-1.22.08-2.1,0-.89.01-1.97.01-3.26v-.73c0-.59,0-1.27-.01-2.04s-.03-1.66-.08-2.66c.17.03.33.06.48.08.15.02.31.03.48.03.14,0,.28-.01.43-.03.15-.02.31-.05.48-.08-.06.54-.09.98-.1,1.3,0,.32-.01.62-.01.91l.05.02c.89-1.64,1.89-2.45,3-2.45.14,0,.26,0,.35.02.1.02.22.05.37.11-.08.18-.12.46-.14.83-.02.37-.02.71-.02,1.01l-.16.11c-.08-.09-.23-.17-.44-.25Z"/><path class="cls-5" d="m343.76,224.17c.57-.18,1.16-.27,1.77-.27.54,0,1.05.08,1.5.24.45.16.84.39,1.16.68.32.3.58.65.76,1.07.18.42.28.87.28,1.37,0,.86-.02,1.72-.05,2.58-.03.86-.05,1.76-.05,2.71,0,.18,0,.37.01.58,0,.2.04.38.1.54.06.16.15.29.26.4.12.11.29.16.51.16.08,0,.16,0,.24-.01.08,0,.16-.03.24-.08v.5c-.17.08-.38.14-.63.18-.25.05-.52.07-.83.07-.49,0-.87-.12-1.13-.37-.26-.25-.41-.57-.46-.97-.54.55-1.08.95-1.61,1.2-.53.26-1.18.38-1.95.38-.38,0-.74-.05-1.11-.16-.36-.1-.68-.28-.96-.52-.28-.24-.51-.53-.68-.87-.17-.34-.26-.73-.26-1.17,0-.91.28-1.61.85-2.11.57-.5,1.35-.83,2.34-1,.81-.14,1.45-.25,1.91-.35.46-.1.8-.2,1.02-.3s.35-.23.4-.37c.05-.14.07-.33.07-.56,0-.38-.05-.74-.14-1.09-.09-.35-.23-.65-.43-.91-.2-.26-.45-.47-.77-.63-.32-.16-.7-.24-1.16-.24-.61,0-1.17.14-1.69.41-.52.27-.91.65-1.17,1.13h-.25v-1.18c.68-.52,1.31-.87,1.89-1.05Zm2.83,5.31c-.34.06-.68.12-1.03.19-.35.07-.69.16-1.03.26-.34.1-.64.25-.9.43-.26.18-.48.41-.63.68-.16.27-.24.62-.24,1.05,0,.71.2,1.25.61,1.61.41.36.86.55,1.36.55.57,0,1.1-.16,1.57-.48.48-.32.84-.69,1.1-1.11l.09-3.41c-.26.09-.55.17-.89.23Z"/><path class="cls-5" d="m353.26,233.3c.16.18.35.35.57.51.22.16.47.29.75.4.28.11.58.16.9.16.29,0,.56-.05.83-.14.27-.09.5-.22.7-.38.2-.17.37-.38.49-.64.12-.26.18-.55.18-.89,0-.47-.13-.83-.4-1.08-.27-.25-.59-.45-.99-.61-.4-.16-.83-.3-1.29-.42-.47-.12-.9-.29-1.29-.51-.39-.22-.72-.51-.99-.87-.27-.36-.4-.86-.4-1.5,0-.5.08-.96.25-1.37.16-.42.41-.78.73-1.08.32-.3.71-.54,1.18-.72.47-.17,1.01-.26,1.62-.26.56,0,1.03.08,1.42.23.38.15.75.29,1.1.41-.12.23-.23.51-.34.84-.11.33-.18.59-.2.77h-.27c-.12-.36-.36-.69-.7-.98-.35-.29-.78-.43-1.3-.43-.23,0-.45.04-.68.11-.23.08-.43.19-.61.34-.18.15-.33.35-.46.59-.12.24-.18.53-.18.86,0,.48.13.86.4,1.12.26.27.59.47.99.62.39.15.82.29,1.29.4.47.12.9.27,1.29.48.39.2.72.49.99.85.27.36.4.86.4,1.5,0,.44-.09.87-.28,1.29-.19.42-.46.8-.82,1.15-.36.34-.78.61-1.28.8-.5.19-1.07.28-1.7.28-.7,0-1.28-.07-1.75-.2-.47-.14-.86-.3-1.18-.48.09-.2.19-.47.28-.81s.15-.62.15-.85h.27c.07.15.19.32.35.5Z"/><path class="cls-5" d="m363.92,221.08c-.05.58-.08,1.14-.1,1.69-.02.55-.05,1.11-.08,1.67.16,0,.48,0,.93-.01.46,0,.94-.02,1.48-.06-.02.05-.02.13-.02.25v.48c0,.1,0,.18.02.23-.2-.01-.4-.02-.61-.03-.21,0-.44-.01-.68-.01h-1.11c-.02.06-.04.3-.06.73-.02.42-.04.93-.06,1.51-.02.58-.03,1.19-.03,1.83,0,.64-.01,1.21-.01,1.7,0,.42.01.84.03,1.25.02.41.09.78.22,1.1.12.33.3.59.55.78.24.2.59.29,1.04.29.12,0,.29-.01.49-.04.2-.03.38-.07.53-.12v.55c-.26.05-.54.1-.85.17-.31.07-.61.1-.9.1-.95,0-1.66-.23-2.11-.7-.46-.47-.68-1.16-.68-2.07,0-.41,0-.85.02-1.33.01-.48.03-1,.06-1.57.02-.57.04-1.19.06-1.88.01-.69.02-1.46.02-2.31h-.73c-.12,0-.25,0-.39.01-.14,0-.28.02-.43.03.01-.09.02-.18.03-.26,0-.08.01-.17.01-.26,0-.08,0-.15-.01-.23s-.02-.15-.03-.23c.68.05,1.18.07,1.5.07-.01-.3-.02-.68-.03-1.14,0-.45-.02-.92-.06-1.41l1.88-.79h.12Z"/><path class="cls-5" d="m372.92,225.74c-.22-.08-.44-.12-.67-.12-.36,0-.69.08-.98.25-.29.16-.53.39-.73.67-.2.28-.35.61-.46,1-.1.39-.16.8-.16,1.24v2.5c0,1.01,0,1.79.01,2.33s.03.97.08,1.3c-.3-.03-.61-.05-.91-.05-.34,0-.65.01-.95.05.05-.51.07-1.22.08-2.1,0-.89.01-1.97.01-3.26v-.73c0-.59,0-1.27-.01-2.04s-.03-1.66-.08-2.66c.17.03.33.06.48.08.15.02.31.03.48.03.14,0,.28-.01.43-.03.15-.02.31-.05.48-.08-.06.54-.1.98-.1,1.3,0,.32-.01.62-.01.91l.05.02c.89-1.64,1.89-2.45,3-2.45.14,0,.26,0,.35.02.1.02.22.05.38.11-.08.18-.12.46-.14.83-.02.37-.02.71-.02,1.01l-.16.11c-.08-.09-.23-.17-.44-.25Z"/><path class="cls-5" d="m375.76,229.42c.02-.57.04-1.13.04-1.69,0-.53,0-1.1-.01-1.72,0-.62-.02-1.25-.03-1.89.38.08.69.11.95.11.24,0,.55-.04.93-.11-.08.91-.13,1.9-.17,2.99-.04,1.08-.06,2.19-.06,3.33,0,.79.07,1.39.2,1.81.13.42.3.73.5.94.21.24.48.44.81.6.32.16.71.24,1.15.24.64,0,1.17-.14,1.59-.42.42-.28.73-.63.93-1.03.11-.26.19-.48.25-.66.06-.18.11-.42.15-.73.04-.3.06-.71.07-1.23,0-.51.01-1.22.01-2.11v-1.91c0-.33,0-.65-.01-.95,0-.3-.02-.59-.04-.86.17.03.33.06.48.08.15.02.31.03.48.03s.33-.01.48-.03c.15-.02.3-.05.46-.08-.08,1.18-.12,2.32-.14,3.42-.02,1.1-.02,2.26-.02,3.49,0,.68,0,1.35.02,2,.02.65.04,1.28.07,1.88-.3-.03-.6-.05-.88-.05s-.58.01-.89.05c.02-.14.03-.28.03-.43,0-.15.01-.31.01-.47v-.98h-.05c-.39.73-.9,1.26-1.52,1.6-.62.34-1.3.51-2.02.51-1.18,0-2.11-.31-2.78-.94s-1.01-1.53-1.01-2.71c0-.8.01-1.49.03-2.06Z"/><path class="cls-5" d="m388.08,227.01c.33-.71.77-1.3,1.31-1.76.54-.46,1.15-.8,1.85-1.02.69-.22,1.41-.33,2.13-.33.83,0,1.58.1,2.24.31.66.2,1.13.44,1.42.69-.11.23-.2.47-.28.72-.08.25-.16.51-.22.78h-.18c-.1-.2-.25-.4-.43-.6-.18-.2-.4-.39-.65-.57-.25-.17-.52-.32-.83-.43-.3-.11-.64-.17-1-.17-.68,0-1.27.12-1.76.37-.49.25-.9.59-1.21,1.03-.31.44-.54.96-.68,1.55-.14.6-.21,1.24-.21,1.94,0,1.56.33,2.74,1,3.53.67.8,1.64,1.19,2.93,1.19.3,0,.61-.04.93-.12.32-.08.63-.2.93-.34.3-.14.59-.31.85-.51.27-.2.5-.41.69-.64l.11.07c-.08.36-.12.73-.14,1.11-.45.36-1.02.67-1.69.93-.67.26-1.37.38-2.1.38-.65,0-1.31-.09-1.96-.28-.66-.19-1.25-.51-1.78-.95-.53-.45-.96-1.03-1.28-1.74-.33-.71-.49-1.58-.49-2.61,0-.98.17-1.83.5-2.54Z"/><path class="cls-5" d="m401.77,221.08c-.05.58-.08,1.14-.1,1.69-.02.55-.05,1.11-.08,1.67.16,0,.48,0,.93-.01.46,0,.94-.02,1.48-.06-.02.05-.02.13-.02.25v.48c0,.1,0,.18.02.23-.2-.01-.4-.02-.61-.03-.21,0-.44-.01-.68-.01h-1.11c-.02.06-.04.3-.06.73-.02.42-.04.93-.06,1.51-.01.58-.03,1.19-.03,1.83,0,.64-.01,1.21-.01,1.7,0,.42.01.84.03,1.25.02.41.09.78.22,1.1.12.33.3.59.55.78.24.2.59.29,1.04.29.12,0,.28-.01.49-.04.2-.03.38-.07.53-.12v.55c-.26.05-.54.1-.85.17-.31.07-.61.1-.9.1-.95,0-1.66-.23-2.11-.7-.46-.47-.68-1.16-.68-2.07,0-.41,0-.85.02-1.33.01-.48.03-1,.06-1.57.02-.57.04-1.19.06-1.88.01-.69.02-1.46.02-2.31h-.73c-.12,0-.25,0-.39.01-.14,0-.28.02-.43.03.02-.09.02-.18.03-.26,0-.08.01-.17.01-.26,0-.08,0-.15-.01-.23,0-.08-.02-.15-.03-.23.68.05,1.18.07,1.5.07-.02-.3-.03-.68-.03-1.14,0-.45-.02-.92-.06-1.41l1.88-.79h.11Z"/><path class="cls-5" d="m406.05,229.42c.02-.57.03-1.13.03-1.69,0-.53,0-1.1-.01-1.72,0-.62-.02-1.25-.03-1.89.38.08.7.11.95.11s.55-.04.93-.11c-.08.91-.13,1.9-.17,2.99-.04,1.08-.06,2.19-.06,3.33,0,.79.07,1.39.2,1.81.14.42.3.73.5.94.21.24.48.44.8.6s.71.24,1.15.24c.64,0,1.17-.14,1.59-.42.42-.28.73-.63.93-1.03.1-.26.19-.48.25-.66.06-.18.11-.42.15-.73.04-.3.06-.71.07-1.23,0-.51.01-1.22.01-2.11v-1.91c0-.33,0-.65-.01-.95,0-.3-.02-.59-.03-.86.17.03.33.06.48.08.15.02.31.03.48.03s.33-.01.48-.03c.15-.02.3-.05.45-.08-.08,1.18-.12,2.32-.14,3.42-.02,1.1-.02,2.26-.02,3.49,0,.68,0,1.35.02,2,.02.65.04,1.28.07,1.88-.3-.03-.6-.05-.89-.05s-.58.01-.88.05c.01-.14.02-.28.03-.43,0-.15.01-.31.01-.47v-.98h-.05c-.39.73-.9,1.26-1.52,1.6-.62.34-1.29.51-2.02.51-1.18,0-2.11-.31-2.78-.94s-1.01-1.53-1.01-2.71c0-.8.01-1.49.03-2.06Z"/><path class="cls-5" d="m423.4,225.74c-.22-.08-.44-.12-.67-.12-.36,0-.69.08-.98.25-.29.16-.53.39-.73.67-.2.28-.35.61-.45,1-.11.39-.16.8-.16,1.24v2.5c0,1.01,0,1.79.01,2.33,0,.54.03.97.08,1.3-.3-.03-.6-.05-.91-.05-.33,0-.65.01-.95.05.04-.51.07-1.22.08-2.1,0-.89.01-1.97.01-3.26v-.73c0-.59,0-1.27-.01-2.04,0-.77-.04-1.66-.08-2.66.16.03.32.06.48.08.15.02.31.03.48.03.14,0,.28-.01.43-.03.15-.02.31-.05.48-.08-.06.54-.09.98-.1,1.3,0,.32-.01.62-.01.91l.05.02c.9-1.64,1.89-2.45,3-2.45.14,0,.25,0,.35.02.1.02.22.05.37.11-.08.18-.12.46-.13.83-.02.37-.02.71-.02,1.01l-.16.11c-.08-.09-.22-.17-.44-.25Z"/><path class="cls-5" d="m426.6,225.48c.88-1.06,2.18-1.59,3.87-1.59.8,0,1.49.12,2.08.37.58.25,1.07.58,1.47,1,.39.42.68.9.87,1.46.19.56.28,1.16.28,1.79,0,.15,0,.3-.01.44,0,.14-.02.29-.03.44-.82-.02-1.63-.03-2.43-.05-.8-.02-1.61-.02-2.43-.02-.5,0-1,0-1.49.02-.49.02-.99.03-1.49.05-.01.08-.02.19-.02.34v.3c0,.59.09,1.14.26,1.66.18.52.43.96.76,1.33.33.37.74.67,1.23.89.48.22,1.05.33,1.68.33.3,0,.61-.04.93-.12.32-.08.63-.2.93-.34.3-.14.59-.31.85-.51.27-.2.5-.41.69-.64l.11.07-.14,1.11c-.45.36-1.02.67-1.69.93-.67.26-1.37.38-2.1.38-.82,0-1.56-.12-2.24-.37-.67-.25-1.26-.61-1.75-1.09-.49-.48-.87-1.04-1.14-1.69-.26-.65-.4-1.35-.4-2.11,0-1.86.44-3.32,1.33-4.39Zm2.5-.48c-.39.26-.7.58-.95.97-.25.38-.44.81-.57,1.27-.13.46-.21.9-.24,1.3.47.02.96.03,1.46.05.51.02,1,.02,1.49.02s1.01,0,1.52-.02c.51-.01,1.01-.03,1.5-.05,0-.41-.04-.84-.1-1.29s-.2-.88-.41-1.27c-.2-.39-.48-.72-.85-.98-.36-.26-.84-.38-1.43-.38-.56,0-1.03.13-1.42.39Z"/><path class="cls-5" d="m437.79,233.3c.16.18.35.35.57.51.22.16.47.29.75.4.28.11.58.16.9.16.29,0,.56-.05.83-.14.27-.09.5-.22.7-.38.2-.17.36-.38.49-.64.12-.26.18-.55.18-.89,0-.47-.13-.83-.4-1.08-.27-.25-.59-.45-.99-.61-.4-.16-.83-.3-1.29-.42-.47-.12-.9-.29-1.3-.51s-.72-.51-.99-.87c-.27-.36-.4-.86-.4-1.5,0-.5.08-.96.25-1.37.16-.42.41-.78.72-1.08.32-.3.71-.54,1.18-.72.47-.17,1.01-.26,1.61-.26.56,0,1.03.08,1.42.23.38.15.75.29,1.1.41-.12.23-.23.51-.34.84-.11.33-.17.59-.2.77h-.27c-.12-.36-.36-.69-.7-.98-.35-.29-.78-.43-1.3-.43-.23,0-.45.04-.68.11-.23.08-.43.19-.61.34-.18.15-.34.35-.45.59-.12.24-.18.53-.18.86,0,.48.13.86.4,1.12.26.27.59.47.99.62.39.15.82.29,1.3.4.47.12.9.27,1.29.48.39.2.72.49.99.85.26.36.4.86.4,1.5,0,.44-.1.87-.28,1.29-.19.42-.46.8-.82,1.15-.36.34-.78.61-1.28.8-.5.19-1.07.28-1.7.28-.7,0-1.28-.07-1.75-.2-.47-.14-.86-.3-1.18-.48.09-.2.18-.47.28-.81.1-.34.15-.62.15-.85h.27c.07.15.19.32.35.5Z"/></g></g></g></svg>