<svg xmlns="http://www.w3.org/2000/svg" xmlns:xlink="http://www.w3.org/1999/xlink" width="220" zoomAndPan="magnify" viewBox="0 0 165 82.499998" height="110" preserveAspectRatio="xMidYMid meet" version="1.0"><defs><clipPath id="30c5688c40"><path d="M 0.496094 0 L 164.503906 0 L 164.503906 82.003906 L 0.496094 82.003906 Z M 0.496094 0 " clip-rule="nonzero"/></clipPath><clipPath id="e43d256e32"><path d="M 8.699219 29.378906 L 22 29.378906 L 22 43 L 8.699219 43 Z M 8.699219 29.378906 " clip-rule="nonzero"/></clipPath><clipPath id="913293e9f6"><path d="M 19 35 L 33 35 L 33 52.488281 L 19 52.488281 Z M 19 35 " clip-rule="nonzero"/></clipPath><clipPath id="64253c015f"><path d="M 144 36 L 156.300781 36 L 156.300781 51 L 144 51 Z M 144 36 " clip-rule="nonzero"/></clipPath></defs><g clip-path="url(#30c5688c40)"><path fill="#ffffff" d="M 0.496094 0 L 164.503906 0 L 164.503906 82.003906 L 0.496094 82.003906 Z M 0.496094 0 " fill-opacity="1" fill-rule="nonzero"/></g><g clip-path="url(#e43d256e32)"><path fill="#1a1a1a" d="M 21.890625 34.710938 C 21.707031 33.726562 21.304688 32.820312 20.730469 32.042969 C 19.539062 30.425781 17.613281 29.378906 15.445312 29.378906 C 11.824219 29.378906 8.890625 32.296875 8.890625 35.894531 C 8.890625 38.054688 9.945312 39.96875 11.570312 41.152344 C 12.65625 41.945312 13.996094 42.414062 15.445312 42.414062 L 17.828125 42.414062 L 17.828125 39.449219 L 15.445312 39.449219 C 13.46875 39.449219 11.867188 37.859375 11.867188 35.894531 C 11.867188 33.933594 13.46875 32.339844 15.445312 32.339844 C 17 32.339844 18.324219 33.328125 18.8125 34.710938 Z M 21.890625 34.710938 " fill-opacity="1" fill-rule="nonzero"/></g><g clip-path="url(#913293e9f6)"><path fill="#1a1a1a" d="M 29.445312 40.710938 C 28.363281 39.917969 27.023438 39.449219 25.574219 39.449219 L 23.191406 39.449219 L 23.191406 42.414062 L 25.574219 42.414062 C 27.546875 42.414062 29.148438 44.003906 29.148438 45.96875 C 29.148438 47.933594 27.546875 49.523438 25.574219 49.523438 C 23.597656 49.523438 22 47.933594 22 45.96875 L 22 35.894531 L 19.019531 35.894531 L 19.019531 45.96875 C 19.019531 47.410156 19.488281 48.742188 20.285156 49.820312 C 21.476562 51.4375 23.402344 52.488281 25.574219 52.488281 C 29.195312 52.488281 32.128906 49.570312 32.128906 45.96875 C 32.128906 43.808594 31.070312 41.894531 29.445312 40.710938 Z M 29.445312 40.710938 " fill-opacity="1" fill-rule="nonzero"/></g><path fill="#1a1a1a" d="M 130.695312 43.28125 C 130.695312 41.964844 130.441406 40.800781 129.9375 39.789062 C 129.433594 38.777344 128.714844 37.988281 127.785156 37.417969 C 126.851562 36.84375 125.769531 36.558594 124.535156 36.558594 C 123.28125 36.558594 122.179688 36.839844 121.222656 37.402344 C 120.265625 37.964844 119.515625 38.757812 118.976562 39.777344 C 118.4375 40.796875 118.167969 41.984375 118.167969 43.332031 C 118.167969 44.683594 118.4375 45.871094 118.976562 46.902344 C 119.515625 47.929688 120.277344 48.726562 121.261719 49.289062 C 122.242188 49.851562 123.371094 50.132812 124.640625 50.132812 C 125.5625 50.132812 126.414062 49.976562 127.199219 49.664062 C 127.980469 49.355469 128.644531 48.914062 129.195312 48.339844 C 129.742188 47.769531 130.144531 47.027344 130.351562 46.265625 L 127.746094 46.265625 C 127.511719 46.65625 127.191406 47.003906 126.78125 47.304688 C 126.1875 47.738281 125.476562 47.953125 124.640625 47.953125 C 123.507812 47.953125 122.609375 47.601562 121.9375 46.902344 C 121.371094 46.308594 120.964844 45.542969 120.871094 44.191406 L 130.664062 44.191406 C 130.671875 44.011719 130.695312 43.511719 130.695312 43.28125 Z M 121.976562 39.777344 C 122.640625 39.121094 123.484375 38.792969 124.507812 38.792969 C 125.519531 38.792969 126.335938 39.113281 126.960938 39.75 C 127.5 40.300781 127.894531 41.230469 127.984375 42.117188 L 120.902344 42.117188 C 121.019531 41.230469 121.414062 40.339844 121.976562 39.777344 Z M 121.976562 39.777344 " fill-opacity="1" fill-rule="nonzero"/><path fill="#1a1a1a" d="M 144.105469 43.28125 C 144.105469 41.964844 143.855469 40.800781 143.351562 39.789062 C 142.84375 38.777344 142.128906 37.988281 141.195312 37.417969 C 140.265625 36.84375 139.183594 36.558594 137.949219 36.558594 C 136.695312 36.558594 135.589844 36.839844 134.632812 37.402344 C 133.675781 37.964844 132.929688 38.757812 132.390625 39.777344 C 131.851562 40.796875 131.582031 41.984375 131.582031 43.332031 C 131.582031 44.683594 131.851562 45.871094 132.390625 46.902344 C 132.929688 47.929688 133.691406 48.726562 134.671875 49.289062 C 135.65625 49.851562 136.78125 50.132812 138.050781 50.132812 C 138.972656 50.132812 139.828125 49.976562 140.609375 49.664062 C 141.394531 49.355469 142.058594 48.914062 142.605469 48.339844 C 143.152344 47.769531 143.558594 47.027344 143.765625 46.265625 L 141.160156 46.265625 C 140.925781 46.65625 140.601562 47.003906 140.191406 47.304688 C 139.601562 47.738281 138.886719 47.953125 138.050781 47.953125 C 136.921875 47.953125 136.019531 47.601562 135.351562 46.902344 C 134.785156 46.308594 134.378906 45.542969 134.285156 44.191406 L 144.074219 44.191406 C 144.085938 44.011719 144.105469 43.511719 144.105469 43.28125 Z M 135.390625 39.777344 C 136.050781 39.121094 136.894531 38.792969 137.921875 38.792969 C 138.929688 38.792969 139.75 39.113281 140.375 39.75 C 140.910156 40.300781 141.308594 41.230469 141.394531 42.117188 L 134.316406 42.117188 C 134.429688 41.230469 134.828125 40.339844 135.390625 39.777344 Z M 135.390625 39.777344 " fill-opacity="1" fill-rule="nonzero"/><path fill="#1a1a1a" d="M 116.253906 41.863281 C 115.601562 41.101562 114.78125 40.625 113.789062 40.429688 L 113.789062 40.25 C 114.691406 39.941406 115.398438 39.453125 115.902344 38.777344 C 116.40625 38.105469 116.660156 37.316406 116.660156 36.414062 C 116.660156 35.582031 116.4375 34.835938 115.992188 34.179688 C 115.550781 33.523438 114.921875 33.007812 114.113281 32.632812 C 113.304688 32.257812 112.363281 32.0625 111.28125 32.042969 L 103.644531 32.042969 L 103.644531 41.523438 L 110.890625 41.523438 C 111.953125 41.523438 112.792969 41.785156 113.410156 42.300781 C 114.027344 42.820312 114.335938 43.546875 114.335938 44.476562 C 114.335938 45.386719 114.027344 46.109375 113.410156 46.644531 C 112.792969 47.183594 111.882812 47.449219 110.683594 47.449219 L 106.324219 47.449219 L 106.324219 42.710938 L 103.644531 42.710938 L 103.644531 49.820312 L 111.441406 49.820312 C 112.570312 49.820312 113.574219 49.601562 114.453125 49.164062 C 115.332031 48.726562 116.015625 48.125 116.503906 47.363281 C 116.988281 46.597656 117.234375 45.726562 117.234375 44.746094 C 117.234375 43.585938 116.90625 42.628906 116.253906 41.863281 Z M 112.953125 38.488281 C 112.378906 38.933594 111.578125 39.15625 110.550781 39.15625 L 106.324219 39.15625 L 106.324219 34.414062 L 110.5 34.414062 C 111.5625 34.414062 112.378906 34.613281 112.953125 35.011719 C 113.527344 35.40625 113.8125 35.980469 113.8125 36.726562 C 113.8125 37.457031 113.527344 38.042969 112.953125 38.488281 Z M 112.953125 38.488281 " fill-opacity="1" fill-rule="nonzero"/><g clip-path="url(#64253c015f)"><path fill="#1a1a1a" d="M 153.246094 40.339844 C 153.046875 39.800781 152.714844 39.378906 152.25 39.078125 C 151.742188 38.75 151.125 38.582031 150.394531 38.582031 C 149.664062 38.582031 149.039062 38.738281 148.515625 39.050781 C 147.996094 39.363281 147.734375 39.8125 147.734375 40.402344 C 147.734375 40.886719 147.90625 41.253906 148.253906 41.503906 C 148.601562 41.753906 149.03125 41.914062 149.535156 41.984375 L 152.429688 42.398438 L 152.484375 42.398438 C 153.058594 42.484375 153.601562 42.628906 154.113281 42.828125 C 154.628906 43.027344 155.089844 43.367188 155.496094 43.851562 C 155.90625 44.335938 156.109375 45.003906 156.109375 45.851562 C 156.109375 46.714844 155.867188 47.480469 155.378906 48.148438 C 154.894531 48.8125 154.222656 49.324219 153.371094 49.679688 C 152.519531 50.03125 151.5625 50.210938 150.5 50.210938 C 149.386719 50.210938 148.425781 50.03125 147.617188 49.679688 C 146.808594 49.324219 146.167969 48.859375 145.699219 48.289062 C 145.230469 47.71875 144.90625 46.945312 144.8125 46.265625 L 147.417969 46.265625 C 147.582031 46.746094 147.90625 47.164062 148.386719 47.511719 C 148.960938 47.925781 149.699219 48.132812 150.605469 48.132812 C 151.472656 48.132812 152.175781 47.933594 152.703125 47.539062 C 153.234375 47.140625 153.5 46.636719 153.5 46.03125 C 153.5 45.546875 153.34375 45.207031 153.03125 45.007812 C 152.71875 44.808594 152.273438 44.664062 151.699219 44.578125 C 151.683594 44.5625 151.648438 44.550781 151.597656 44.550781 L 148.515625 44.113281 C 147.457031 43.957031 146.628906 43.558594 146.039062 42.917969 C 145.445312 42.277344 145.148438 41.492188 145.148438 40.554688 C 145.148438 39.742188 145.371094 39.03125 145.816406 38.414062 C 146.257812 37.800781 146.886719 37.324219 147.695312 36.988281 C 148.503906 36.652344 149.429688 36.480469 150.472656 36.480469 C 151.359375 36.480469 152.175781 36.617188 152.914062 36.882812 C 153.652344 37.152344 154.269531 37.546875 154.765625 38.066406 C 155.261719 38.582031 155.734375 39.535156 155.851562 40.339844 Z M 153.246094 40.339844 " fill-opacity="1" fill-rule="nonzero"/></g><path fill="#1a1a1a" d="M 55.800781 32.042969 L 58.480469 32.042969 L 58.480469 49.820312 L 55.800781 49.820312 Z M 55.800781 32.042969 " fill-opacity="1" fill-rule="nonzero"/><path fill="#1a1a1a" d="M 63.335938 49.25 C 62.335938 48.679688 61.554688 47.882812 60.988281 46.863281 C 60.421875 45.839844 60.140625 44.664062 60.140625 43.332031 C 60.140625 42.019531 60.421875 40.847656 60.988281 39.816406 C 61.554688 38.789062 62.335938 37.988281 63.335938 37.417969 C 64.335938 36.84375 65.480469 36.558594 66.769531 36.558594 C 68.039062 36.558594 69.167969 36.84375 70.160156 37.417969 C 71.152344 37.988281 71.929688 38.789062 72.496094 39.816406 C 73.0625 40.847656 73.34375 42.019531 73.34375 43.332031 C 73.34375 44.648438 73.0625 45.820312 72.496094 46.847656 C 71.929688 47.878906 71.152344 48.679688 70.160156 49.25 C 69.167969 49.820312 68.039062 50.105469 66.769531 50.105469 C 65.480469 50.105469 64.335938 49.820312 63.335938 49.25 Z M 68.792969 47.277344 C 69.390625 46.914062 69.859375 46.394531 70.199219 45.71875 C 70.539062 45.046875 70.710938 44.257812 70.710938 43.359375 C 70.710938 42.441406 70.539062 41.640625 70.199219 40.957031 C 69.859375 40.273438 69.390625 39.75 68.792969 39.386719 C 68.191406 39.023438 67.507812 38.84375 66.742188 38.84375 C 65.996094 38.84375 65.320312 39.023438 64.71875 39.386719 C 64.121094 39.75 63.648438 40.273438 63.3125 40.957031 C 62.972656 41.640625 62.800781 42.441406 62.800781 43.359375 C 62.800781 44.257812 62.972656 45.046875 63.3125 45.71875 C 63.648438 46.394531 64.121094 46.914062 64.71875 47.277344 C 65.320312 47.640625 65.996094 47.824219 66.742188 47.824219 C 67.507812 47.824219 68.191406 47.640625 68.792969 47.277344 Z M 68.792969 47.277344 " fill-opacity="1" fill-rule="nonzero"/><path fill="#1a1a1a" d="M 76.175781 48.808594 C 75.316406 47.925781 74.882812 46.734375 74.882812 45.226562 L 74.882812 36.785156 L 77.546875 36.785156 L 77.546875 44.605469 C 77.546875 45.539062 77.78125 46.3125 78.25 46.925781 C 78.71875 47.542969 79.46875 47.847656 80.496094 47.847656 C 81.539062 47.847656 82.371094 47.472656 82.988281 46.71875 C 83.605469 45.96875 83.914062 44.984375 83.914062 43.773438 L 83.914062 36.785156 L 86.59375 36.785156 L 86.59375 49.820312 L 83.914062 49.820312 L 83.914062 47.667969 L 83.78125 47.667969 C 83.433594 48.429688 82.917969 49.03125 82.230469 49.46875 C 81.542969 49.910156 80.6875 50.132812 79.660156 50.132812 C 78.199219 50.132812 77.039062 49.691406 76.175781 48.808594 Z M 76.175781 48.808594 " fill-opacity="1" fill-rule="nonzero"/><path fill="#1a1a1a" d="M 91.179688 49.222656 C 90.285156 48.652344 89.582031 47.851562 89.066406 46.824219 C 88.554688 45.792969 88.296875 44.628906 88.296875 43.332031 C 88.296875 42.035156 88.550781 40.878906 89.054688 39.867188 C 89.558594 38.855469 90.257812 38.066406 91.15625 37.492188 C 92.050781 36.921875 93.0625 36.636719 94.195312 36.636719 C 95.238281 36.636719 96.125 36.867188 96.855469 37.324219 C 97.585938 37.785156 98.117188 38.34375 98.449219 39 L 98.578125 39 L 98.578125 32.042969 L 101.261719 32.042969 L 101.261719 49.820312 L 98.578125 49.820312 L 98.578125 47.746094 L 98.449219 47.746094 C 98.136719 48.402344 97.605469 48.957031 96.855469 49.40625 C 96.109375 49.855469 95.230469 50.082031 94.222656 50.082031 C 93.089844 50.082031 92.078125 49.796875 91.179688 49.222656 Z M 96.714844 47.304688 C 97.296875 46.941406 97.761719 46.421875 98.109375 45.746094 C 98.457031 45.070312 98.632812 44.285156 98.632812 43.386719 C 98.632812 42.484375 98.460938 41.695312 98.121094 41.011719 C 97.785156 40.328125 97.316406 39.804688 96.726562 39.441406 C 96.136719 39.078125 95.472656 38.894531 94.742188 38.894531 C 93.628906 38.894531 92.722656 39.300781 92.015625 40.113281 C 91.3125 40.929688 90.960938 42 90.960938 43.332031 C 90.960938 44.25 91.125 45.046875 91.457031 45.71875 C 91.785156 46.394531 92.238281 46.917969 92.8125 47.289062 C 93.386719 47.664062 94.03125 47.847656 94.742188 47.847656 C 95.472656 47.847656 96.128906 47.667969 96.714844 47.304688 Z M 96.714844 47.304688 " fill-opacity="1" fill-rule="nonzero"/><path fill="#1a1a1a" d="M 51.503906 43.890625 C 51.117188 44.96875 50.496094 45.851562 49.636719 46.539062 C 48.757812 47.238281 47.640625 47.589844 46.285156 47.589844 C 45.1875 47.589844 44.183594 47.339844 43.269531 46.835938 C 42.355469 46.335938 41.625 45.585938 41.078125 44.589844 C 40.53125 43.597656 40.257812 42.351562 40.257812 40.933594 C 40.257812 39.515625 40.53125 38.269531 41.078125 37.273438 C 41.625 36.277344 42.355469 35.53125 43.269531 35.027344 C 44.183594 34.527344 45.1875 34.277344 46.285156 34.277344 C 47.640625 34.277344 48.757812 34.625 49.636719 35.328125 C 50.496094 36.011719 51.117188 36.894531 51.503906 37.96875 L 54.296875 37.96875 C 54.296875 37.96875 54.273438 37.726562 54.164062 37.339844 C 53.886719 36.316406 53.398438 35.382812 52.703125 34.535156 C 52.007812 33.6875 51.117188 33.011719 50.027344 32.511719 C 48.941406 32.007812 47.710938 31.757812 46.335938 31.757812 C 44.632812 31.757812 43.109375 32.144531 41.769531 32.914062 C 40.429688 33.683594 39.382812 34.765625 38.625 36.15625 C 37.875 37.539062 37.496094 39.132812 37.492188 40.933594 C 37.496094 42.734375 37.875 44.324219 38.625 45.707031 C 39.382812 47.101562 40.429688 48.179688 41.769531 48.953125 C 43.109375 49.722656 44.632812 50.105469 46.335938 50.105469 C 47.710938 50.105469 48.941406 49.855469 50.027344 49.355469 C 51.117188 48.851562 52.007812 48.175781 52.703125 47.328125 C 53.398438 46.480469 53.886719 45.546875 54.164062 44.527344 C 54.273438 44.140625 54.296875 43.894531 54.296875 43.894531 L 51.503906 43.894531 Z M 51.503906 43.890625 " fill-opacity="1" fill-rule="nonzero"/></svg>