<svg xmlns="http://www.w3.org/2000/svg" xmlns:xlink="http://www.w3.org/1999/xlink" width="220" zoomAndPan="magnify" viewBox="0 0 165 82.499998" height="110" preserveAspectRatio="xMidYMid meet" version="1.0"><defs><clipPath id="c8673bb59c"><path d="M 0.496094 0 L 164.503906 0 L 164.503906 82.003906 L 0.496094 82.003906 Z M 0.496094 0 " clip-rule="nonzero"/></clipPath></defs><g clip-path="url(#c8673bb59c)"><path fill="#ffffff" d="M 0.496094 0 L 164.503906 0 L 164.503906 82.003906 L 0.496094 82.003906 Z M 0.496094 0 " fill-opacity="1" fill-rule="nonzero"/></g><path fill="#ff282d" d="M 104.546875 17.410156 L 104.546875 54.140625 L 114.117188 54.140625 L 114.117188 49.273438 L 110.949219 49.273438 L 110.949219 17.398438 Z M 104.546875 17.410156 " fill-opacity="1" fill-rule="nonzero"/><path fill="#ff282d" d="M 21.527344 49.273438 L 24.773438 49.273438 L 24.773438 33.886719 L 21.527344 33.886719 L 21.527344 29.652344 L 24.773438 29.121094 L 24.773438 24.835938 C 24.773438 19.652344 25.898438 17.398438 32.503906 17.398438 C 33.933594 17.398438 35.621094 17.613281 37.101562 17.882812 L 36.222656 23.097656 C 35.222656 22.933594 34.722656 22.914062 34.089844 22.914062 C 31.757812 22.914062 31.175781 23.148438 31.175781 25.417969 L 31.175781 29.121094 L 36.007812 29.121094 L 36.007812 33.886719 L 31.175781 33.886719 L 31.175781 49.273438 L 34.394531 49.273438 L 34.394531 54.140625 L 21.527344 54.140625 Z M 21.527344 49.273438 " fill-opacity="1" fill-rule="nonzero"/><path fill="#ff282d" d="M 101.296875 47.726562 C 100.296875 47.941406 99.417969 47.910156 98.785156 47.933594 C 96.152344 47.992188 96.375 47.132812 96.375 44.640625 L 96.375 33.886719 L 101.390625 33.886719 L 101.390625 29.121094 L 96.375 29.121094 L 96.375 17.398438 L 89.972656 17.398438 L 89.972656 45.96875 C 89.972656 51.574219 91.351562 54.140625 97.375 54.140625 C 98.804688 54.140625 100.765625 53.773438 102.25 53.457031 Z M 101.296875 47.726562 " fill-opacity="1" fill-rule="nonzero"/><path fill="#ff282d" d="M 140.6875 51.707031 L 141.128906 51.707031 C 141.375 51.707031 141.546875 51.613281 141.546875 51.347656 C 141.546875 51.101562 141.382812 51 141.148438 51 L 140.699219 51 L 140.699219 51.707031 Z M 141.515625 52.902344 L 141.027344 52.1875 L 140.6875 52.1875 L 140.6875 52.902344 L 140.148438 52.902344 L 140.148438 50.53125 L 141.136719 50.53125 C 141.722656 50.53125 142.089844 50.828125 142.089844 51.347656 C 142.089844 51.738281 141.894531 51.992188 141.589844 52.085938 L 142.179688 52.902344 Z M 141.066406 53.753906 C 142.179688 53.753906 143.097656 52.832031 143.097656 51.714844 C 143.097656 50.601562 142.191406 49.703125 141.066406 49.703125 C 139.953125 49.703125 139.042969 50.589844 139.042969 51.714844 C 139.042969 52.832031 139.945312 53.753906 141.066406 53.753906 M 141.066406 49.292969 C 142.414062 49.292969 143.496094 50.367188 143.496094 51.707031 C 143.496094 53.058594 142.40625 54.121094 141.066406 54.121094 C 139.71875 54.121094 138.636719 53.046875 138.636719 51.707031 C 138.636719 50.367188 139.71875 49.292969 141.066406 49.292969 " fill-opacity="1" fill-rule="nonzero"/><path fill="#ff282d" d="M 81.984375 33.886719 L 81.984375 33.03125 C 80.046875 32.671875 78.125 32.671875 77.085938 32.671875 C 74.101562 32.671875 73.746094 34.257812 73.746094 35.117188 C 73.746094 36.332031 74.152344 36.988281 77.390625 37.695312 C 82.109375 38.757812 86.847656 39.863281 86.847656 45.722656 C 86.847656 51.277344 83.988281 54.152344 77.984375 54.152344 C 73.957031 54.152344 70.058594 53.28125 67.085938 52.523438 L 67.085938 47.738281 L 71.9375 47.738281 L 71.9375 48.585938 C 74.019531 48.984375 76.207031 48.953125 77.347656 48.953125 C 80.527344 48.953125 81.046875 47.246094 81.046875 46.335938 C 81.046875 45.078125 80.136719 44.464844 77.15625 43.859375 C 71.539062 42.898438 67.085938 40.976562 67.085938 35.269531 C 67.085938 29.867188 70.691406 27.742188 76.707031 27.742188 C 80.78125 27.742188 83.875 28.375 86.859375 29.132812 L 86.859375 33.886719 Z M 81.984375 33.886719 " fill-opacity="1" fill-rule="nonzero"/><path fill="#ff282d" d="M 52.523438 38.09375 L 52.03125 37.601562 L 49.5625 39.757812 C 49.4375 39.71875 49.304688 39.6875 49.164062 39.6875 C 48.5 39.6875 47.957031 40.242188 47.957031 40.9375 C 47.957031 41.621094 48.5 42.183594 49.164062 42.183594 C 49.824219 42.183594 50.367188 41.632812 50.367188 40.9375 C 50.367188 40.804688 50.347656 40.679688 50.316406 40.558594 Z M 52.523438 38.09375 " fill-opacity="1" fill-rule="nonzero"/><path fill="#ff282d" d="M 49.550781 47.71875 L 49.550781 46.960938 L 48.785156 46.960938 L 48.785156 47.707031 C 45.351562 47.503906 42.59375 44.742188 42.421875 41.292969 L 43.1875 41.292969 L 43.1875 40.527344 L 42.433594 40.527344 C 42.636719 37.101562 45.375 34.371094 48.792969 34.164062 L 48.792969 34.921875 L 49.5625 34.921875 L 49.5625 34.164062 C 52.929688 34.347656 55.648438 36.988281 55.945312 40.332031 L 55.945312 40.558594 L 55.175781 40.558594 L 55.175781 41.324219 L 55.945312 41.324219 L 55.945312 41.539062 C 55.636719 44.882812 52.921875 47.535156 49.550781 47.71875 M 62.335938 47.726562 L 62.335938 27.773438 L 55.933594 27.773438 L 55.933594 29.644531 C 54.617188 28.855469 53.144531 28.285156 51.582031 27.996094 L 51.625 27.996094 L 51.625 25.789062 L 52.398438 25.789062 L 52.398438 24.160156 L 45.945312 24.160156 L 45.945312 25.789062 L 46.722656 25.789062 L 46.722656 27.996094 L 46.761719 27.996094 C 40.632812 29.121094 35.996094 34.492188 35.996094 40.957031 C 35.996094 48.238281 41.890625 54.140625 49.164062 54.140625 C 51.644531 54.140625 53.960938 53.457031 55.945312 52.257812 L 57.097656 54.140625 L 63.859375 54.140625 L 63.859375 47.726562 Z M 62.335938 47.726562 " fill-opacity="1" fill-rule="nonzero"/><path fill="#ff282d" d="M 130.3125 29.121094 L 143.519531 29.121094 L 143.519531 33.878906 L 140.363281 33.878906 L 132.265625 53.835938 C 129.945312 59.4375 126.125 64.71875 120.324219 64.71875 C 118.894531 64.71875 116.996094 64.5625 115.679688 64.246094 L 116.261719 58.425781 C 117.109375 58.578125 118.210938 58.691406 118.792969 58.691406 C 121.488281 58.691406 124.523438 57.023438 125.472656 54.109375 L 117.269531 33.886719 L 114.117188 33.886719 L 114.117188 29.132812 L 127.332031 29.132812 L 127.332031 33.886719 L 124.175781 33.886719 L 128.820312 45.34375 L 133.46875 33.886719 L 130.324219 33.886719 L 130.324219 29.121094 Z M 130.3125 29.121094 " fill-opacity="1" fill-rule="nonzero"/></svg>