<svg xmlns="http://www.w3.org/2000/svg" xmlns:xlink="http://www.w3.org/1999/xlink" width="220" zoomAndPan="magnify" viewBox="0 0 165 82.499998" height="110" preserveAspectRatio="xMidYMid meet" version="1.0"><defs><clipPath id="d8c14dc145"><path d="M 0.496094 0 L 164.503906 0 L 164.503906 82.003906 L 0.496094 82.003906 Z M 0.496094 0 " clip-rule="nonzero"/></clipPath><clipPath id="42763e368c"><path d="M 45 26.710938 L 54 26.710938 L 54 39 L 45 39 Z M 45 26.710938 " clip-rule="nonzero"/></clipPath><clipPath id="991778027d"><path d="M 54 26.710938 L 63 26.710938 L 63 39 L 54 39 Z M 54 26.710938 " clip-rule="nonzero"/></clipPath><clipPath id="dedf5c713b"><path d="M 64 26.710938 L 73 26.710938 L 73 39 L 64 39 Z M 64 26.710938 " clip-rule="nonzero"/></clipPath><clipPath id="b4e2a62322"><path d="M 74 26.710938 L 83 26.710938 L 83 39 L 74 39 Z M 74 26.710938 " clip-rule="nonzero"/></clipPath><clipPath id="4f7efa96ab"><path d="M 84 26.710938 L 93 26.710938 L 93 39 L 84 39 Z M 84 26.710938 " clip-rule="nonzero"/></clipPath><clipPath id="9ccf013f86"><path d="M 94 26.710938 L 103 26.710938 L 103 39 L 94 39 Z M 94 26.710938 " clip-rule="nonzero"/></clipPath><clipPath id="54a72faf93"><path d="M 45 42 L 54 42 L 54 55.039062 L 45 55.039062 Z M 45 42 " clip-rule="nonzero"/></clipPath><clipPath id="f9d81b9448"><path d="M 54 42 L 63 42 L 63 55.039062 L 54 55.039062 Z M 54 42 " clip-rule="nonzero"/></clipPath><clipPath id="9e95c5f7ed"><path d="M 64 42 L 73 42 L 73 55.039062 L 64 55.039062 Z M 64 42 " clip-rule="nonzero"/></clipPath><clipPath id="598299a11f"><path d="M 74 42 L 83 42 L 83 55.039062 L 74 55.039062 Z M 74 42 " clip-rule="nonzero"/></clipPath><clipPath id="9fd56f153d"><path d="M 84 42 L 93 42 L 93 55.039062 L 84 55.039062 Z M 84 42 " clip-rule="nonzero"/></clipPath><clipPath id="1b244c7e3d"><path d="M 93 42 L 102 42 L 102 55.039062 L 93 55.039062 Z M 93 42 " clip-rule="nonzero"/></clipPath><clipPath id="97141d0656"><path d="M 103 42 L 112 42 L 112 55.039062 L 103 55.039062 Z M 103 42 " clip-rule="nonzero"/></clipPath><clipPath id="3bdc0b6a79"><path d="M 113 42 L 122 42 L 122 55.039062 L 113 55.039062 Z M 113 42 " clip-rule="nonzero"/></clipPath><clipPath id="11fe6e338e"><path d="M 123 42 L 133 42 L 133 55.039062 L 123 55.039062 Z M 123 42 " clip-rule="nonzero"/></clipPath><clipPath id="fea2b881fc"><path d="M 134 42 L 143 42 L 143 55.039062 L 134 55.039062 Z M 134 42 " clip-rule="nonzero"/></clipPath><clipPath id="d13bed1349"><path d="M 143 42 L 151.703125 42 L 151.703125 55.039062 L 143 55.039062 Z M 143 42 " clip-rule="nonzero"/></clipPath><clipPath id="57f22211f5"><path d="M 13.042969 26.710938 L 42 26.710938 L 42 55 L 13.042969 55 Z M 13.042969 26.710938 " clip-rule="nonzero"/></clipPath></defs><g clip-path="url(#d8c14dc145)"><path fill="#ffffff" d="M 0.496094 0 L 164.503906 0 L 164.503906 82.003906 L 0.496094 82.003906 Z M 0.496094 0 " fill-opacity="1" fill-rule="nonzero"/><path fill="#ffffff" d="M 0.496094 0 L 164.503906 0 L 164.503906 82.003906 L 0.496094 82.003906 Z M 0.496094 0 " fill-opacity="1" fill-rule="nonzero"/></g><g clip-path="url(#42763e368c)"><path fill="#231f20" d="M 45.027344 38.765625 L 45.027344 26.742188 L 46.695312 26.742188 L 46.695312 31.816406 L 50.90625 26.742188 L 53.0625 26.742188 L 48.335938 32.46875 L 53.089844 38.765625 L 50.984375 38.765625 L 47.242188 33.796875 L 46.695312 34.449219 L 46.695312 38.765625 Z M 45.027344 38.765625 " fill-opacity="1" fill-rule="nonzero"/></g><g clip-path="url(#991778027d)"><path fill="#231f20" d="M 61.054688 38.765625 L 58.730469 33.582031 L 56.492188 33.582031 L 56.492188 38.765625 L 54.824219 38.765625 L 54.824219 26.742188 L 60.976562 26.769531 C 62.085938 27.003906 62.707031 27.628906 62.832031 28.640625 L 62.886719 29.078125 L 62.859375 29.078125 L 62.859375 31.25 L 62.886719 31.25 L 62.832031 31.683594 C 62.707031 32.695312 62.085938 33.320312 60.976562 33.554688 L 60.566406 33.582031 L 62.886719 38.765625 Z M 60.507812 31.925781 L 60.753906 31.875 C 60.933594 31.800781 61.0625 31.671875 61.136719 31.492188 L 61.191406 31.25 L 61.191406 29.078125 L 61.136719 28.832031 C 61.0625 28.652344 60.933594 28.527344 60.753906 28.453125 L 60.507812 28.425781 L 60.507812 28.394531 L 56.488281 28.394531 L 56.488281 31.925781 Z M 60.507812 31.925781 " fill-opacity="1" fill-rule="nonzero"/></g><g clip-path="url(#dedf5c713b)"><path fill="#231f20" d="M 72.679688 38.765625 L 70.984375 38.765625 L 70.984375 35.78125 L 66.285156 35.78125 L 66.285156 38.765625 L 64.617188 38.765625 L 64.617188 35.210938 L 67.84375 26.714844 L 69.480469 26.714844 L 72.679688 35.210938 Z M 70.496094 34.125 L 68.636719 29.214844 L 66.804688 34.125 Z M 70.496094 34.125 " fill-opacity="1" fill-rule="nonzero"/></g><g clip-path="url(#b4e2a62322)"><path fill="#231f20" d="M 77.609375 38.765625 L 77.609375 28.398438 L 74.414062 28.398438 L 74.414062 26.742188 L 82.476562 26.742188 L 82.476562 28.398438 L 79.28125 28.398438 L 79.28125 38.765625 Z M 77.609375 38.765625 " fill-opacity="1" fill-rule="nonzero"/></g><g clip-path="url(#4f7efa96ab)"><path fill="#231f20" d="M 84.207031 38.765625 L 84.207031 26.742188 L 92.269531 26.742188 L 92.269531 28.398438 L 85.875 28.398438 L 85.875 31.925781 L 90.574219 31.925781 L 90.574219 33.582031 L 85.875 33.582031 L 85.875 37.109375 L 92.269531 37.109375 L 92.269531 38.765625 Z M 84.207031 38.765625 " fill-opacity="1" fill-rule="nonzero"/></g><g clip-path="url(#9ccf013f86)"><path fill="#231f20" d="M 96.378906 38.765625 L 95.914062 38.710938 C 95.457031 38.660156 95.054688 38.449219 94.699219 38.089844 C 94.34375 37.726562 94.121094 37.320312 94.027344 36.867188 L 94 36.402344 L 94.027344 28.613281 C 94.121094 28.160156 94.34375 27.753906 94.699219 27.394531 C 95.054688 27.03125 95.457031 26.824219 95.914062 26.769531 L 96.378906 26.714844 L 96.378906 26.742188 L 99.683594 26.742188 L 99.683594 26.714844 L 100.152344 26.769531 C 100.605469 26.820312 101.011719 27.03125 101.367188 27.394531 C 101.722656 27.753906 101.945312 28.160156 102.035156 28.613281 L 102.0625 29.078125 L 102.035156 36.867188 C 101.945312 37.320312 101.71875 37.726562 101.367188 38.089844 C 101.011719 38.449219 100.605469 38.65625 100.152344 38.710938 L 99.683594 38.765625 L 99.683594 38.738281 L 96.378906 38.738281 Z M 99.683594 37.082031 L 99.957031 37.027344 C 100.140625 36.957031 100.269531 36.839844 100.34375 36.675781 L 100.371094 36.402344 L 100.398438 36.402344 L 100.398438 29.078125 L 100.371094 29.078125 L 100.34375 28.832031 C 100.269531 28.652344 100.140625 28.527344 99.957031 28.453125 L 99.683594 28.398438 L 96.378906 28.398438 L 96.105469 28.453125 C 95.941406 28.523438 95.8125 28.652344 95.722656 28.832031 L 95.695312 29.078125 L 95.664062 29.078125 L 95.664062 36.402344 L 95.695312 36.402344 L 95.722656 36.675781 C 95.8125 36.855469 95.941406 36.976562 96.105469 37.027344 L 96.378906 37.082031 Z M 99.683594 37.082031 " fill-opacity="1" fill-rule="nonzero"/></g><g clip-path="url(#54a72faf93)"><path fill="#231f20" d="M 45.210938 55.039062 L 45.210938 42.992188 L 51.367188 43.019531 C 51.824219 43.113281 52.234375 43.335938 52.601562 43.6875 C 52.964844 44.039062 53.175781 44.445312 53.230469 44.898438 L 53.285156 45.359375 L 53.257812 45.359375 L 53.257812 47.507812 L 53.285156 47.507812 L 53.230469 47.941406 C 53.175781 48.394531 52.964844 48.800781 52.601562 49.152344 C 52.234375 49.503906 51.824219 49.726562 51.367188 49.820312 L 50.957031 49.847656 L 50.957031 49.875 L 46.878906 49.875 L 46.878906 55.039062 Z M 50.902344 48.1875 L 51.148438 48.132812 C 51.367188 48.0625 51.496094 47.933594 51.53125 47.753906 L 51.585938 47.507812 L 51.585938 45.359375 L 51.53125 45.089844 C 51.460938 44.90625 51.332031 44.78125 51.148438 44.707031 L 50.902344 44.679688 L 50.902344 44.652344 L 46.878906 44.652344 L 46.878906 48.1875 Z M 50.902344 48.1875 " fill-opacity="1" fill-rule="nonzero"/></g><g clip-path="url(#f9d81b9448)"><path fill="#231f20" d="M 54.765625 55.039062 L 54.765625 42.992188 L 56.433594 42.992188 L 56.433594 53.378906 L 62.839844 53.378906 L 62.839844 55.039062 Z M 54.765625 55.039062 " fill-opacity="1" fill-rule="nonzero"/></g><g clip-path="url(#9e95c5f7ed)"><path fill="#231f20" d="M 72.367188 55.039062 L 70.667969 55.039062 L 70.667969 52.046875 L 65.957031 52.046875 L 65.957031 55.039062 L 64.289062 55.039062 L 64.289062 51.476562 L 67.519531 42.964844 L 69.160156 42.964844 L 72.367188 51.476562 Z M 70.175781 50.386719 L 68.3125 45.464844 L 66.480469 50.386719 Z M 70.175781 50.386719 " fill-opacity="1" fill-rule="nonzero"/></g><g clip-path="url(#598299a11f)"><path fill="#231f20" d="M 77.539062 55.039062 L 77.539062 44.652344 L 74.335938 44.652344 L 74.335938 42.992188 L 82.414062 42.992188 L 82.414062 44.652344 L 79.210938 44.652344 L 79.210938 55.039062 Z M 77.539062 55.039062 " fill-opacity="1" fill-rule="nonzero"/></g><g clip-path="url(#9fd56f153d)"><path fill="#231f20" d="M 84.082031 55.039062 L 84.082031 42.992188 L 92.160156 42.992188 L 92.160156 44.652344 L 85.753906 44.652344 L 85.753906 48.1875 L 90.460938 48.1875 L 90.460938 49.84375 L 85.753906 49.84375 L 85.753906 55.039062 Z M 84.082031 55.039062 " fill-opacity="1" fill-rule="nonzero"/></g><g clip-path="url(#1b244c7e3d)"><path fill="#231f20" d="M 95.855469 55.039062 L 95.390625 54.984375 C 94.933594 54.929688 94.527344 54.722656 94.171875 54.359375 C 93.816406 53.996094 93.589844 53.589844 93.5 53.136719 L 93.472656 52.671875 L 93.5 44.871094 C 93.589844 44.417969 93.816406 44.007812 94.171875 43.644531 C 94.527344 43.285156 94.933594 43.074219 95.390625 43.019531 L 95.855469 42.964844 L 95.855469 42.992188 L 99.167969 42.992188 L 99.167969 42.964844 L 99.632812 43.019531 C 100.089844 43.074219 100.496094 43.285156 100.851562 43.644531 C 101.207031 44.007812 101.433594 44.417969 101.523438 44.871094 L 101.550781 45.332031 L 101.523438 53.136719 C 101.433594 53.589844 101.207031 53.996094 100.851562 54.359375 C 100.496094 54.722656 100.089844 54.929688 99.632812 54.984375 L 99.167969 55.039062 L 99.167969 55.011719 L 95.855469 55.011719 Z M 99.167969 53.351562 L 99.441406 53.296875 C 99.625 53.226562 99.753906 53.109375 99.824219 52.945312 L 99.855469 52.671875 L 99.882812 52.671875 L 99.882812 45.332031 L 99.855469 45.332031 L 99.824219 45.089844 C 99.753906 44.90625 99.625 44.78125 99.441406 44.707031 L 99.167969 44.652344 L 95.855469 44.652344 L 95.582031 44.707031 C 95.417969 44.777344 95.289062 44.90625 95.199219 45.089844 L 95.167969 45.332031 L 95.140625 45.332031 L 95.140625 52.671875 L 95.167969 52.671875 L 95.199219 52.945312 C 95.289062 53.125 95.417969 53.246094 95.582031 53.296875 L 95.855469 53.351562 Z M 99.167969 53.351562 " fill-opacity="1" fill-rule="nonzero"/></g><g clip-path="url(#97141d0656)"><path fill="#231f20" d="M 109.816406 55.039062 L 107.492188 49.84375 L 105.246094 49.84375 L 105.246094 55.039062 L 103.578125 55.039062 L 103.578125 42.992188 L 109.734375 43.019531 C 110.847656 43.257812 111.46875 43.882812 111.597656 44.898438 L 111.652344 45.332031 L 111.625 45.332031 L 111.625 47.507812 L 111.652344 47.507812 L 111.597656 47.941406 C 111.46875 48.957031 110.847656 49.582031 109.734375 49.820312 L 109.324219 49.847656 L 111.652344 55.039062 Z M 109.269531 48.1875 L 109.515625 48.132812 C 109.699219 48.0625 109.828125 47.933594 109.898438 47.753906 L 109.953125 47.507812 L 109.953125 45.332031 L 109.898438 45.089844 C 109.828125 44.90625 109.699219 44.78125 109.515625 44.707031 L 109.269531 44.679688 L 109.269531 44.652344 L 105.246094 44.652344 L 105.246094 48.1875 Z M 109.269531 48.1875 " fill-opacity="1" fill-rule="nonzero"/></g><g clip-path="url(#3bdc0b6a79)"><path fill="#231f20" d="M 120.113281 55.039062 L 120.113281 48.105469 L 117.757812 54.929688 L 115.402344 48.105469 L 115.402344 55.039062 L 113.730469 55.039062 L 113.730469 42.992188 L 115.402344 42.992188 L 117.757812 49.792969 L 120.113281 42.992188 L 121.808594 42.992188 L 121.808594 55.039062 Z M 120.113281 55.039062 " fill-opacity="1" fill-rule="nonzero"/></g><g clip-path="url(#11fe6e338e)"><path fill="#231f20" d="M 126.324219 55.039062 L 125.859375 54.984375 C 125.402344 54.929688 124.996094 54.722656 124.640625 54.359375 C 124.285156 53.996094 124.0625 53.589844 123.96875 53.136719 L 123.941406 52.671875 L 123.96875 44.871094 C 124.0625 44.417969 124.285156 44.007812 124.640625 43.644531 C 124.996094 43.285156 125.402344 43.074219 125.859375 43.019531 L 126.324219 42.964844 L 126.324219 42.992188 L 129.636719 42.992188 L 129.636719 42.964844 L 130.105469 43.019531 C 130.558594 43.074219 130.964844 43.285156 131.320312 43.644531 C 131.675781 44.007812 131.902344 44.417969 131.992188 44.871094 L 132.019531 45.332031 L 131.992188 53.136719 C 131.902344 53.589844 131.675781 53.996094 131.320312 54.359375 C 130.964844 54.722656 130.558594 54.929688 130.105469 54.984375 L 129.636719 55.039062 L 129.636719 55.011719 L 126.324219 55.011719 Z M 129.636719 53.351562 L 129.910156 53.296875 C 130.09375 53.226562 130.222656 53.109375 130.296875 52.945312 L 130.324219 52.671875 L 130.351562 52.671875 L 130.351562 45.332031 L 130.324219 45.332031 L 130.296875 45.089844 C 130.222656 44.90625 130.09375 44.78125 129.910156 44.707031 L 129.636719 44.652344 L 126.324219 44.652344 L 126.050781 44.707031 C 125.886719 44.777344 125.757812 44.90625 125.667969 45.089844 L 125.640625 45.332031 L 125.613281 45.332031 L 125.613281 52.671875 L 125.640625 52.671875 L 125.667969 52.945312 C 125.757812 53.125 125.886719 53.246094 126.050781 53.296875 L 126.324219 53.351562 Z M 129.636719 53.351562 " fill-opacity="1" fill-rule="nonzero"/></g><g clip-path="url(#fea2b881fc)"><path fill="#231f20" d="M 134.046875 55.039062 L 134.046875 42.992188 L 140.207031 43.019531 C 140.660156 43.113281 141.074219 43.335938 141.4375 43.6875 C 141.800781 44.039062 142.011719 44.445312 142.066406 44.898438 L 142.125 45.359375 L 142.09375 45.359375 L 142.09375 47.507812 L 142.125 47.507812 L 142.066406 47.941406 C 142.011719 48.394531 141.800781 48.800781 141.4375 49.152344 C 141.074219 49.503906 140.660156 49.726562 140.207031 49.820312 L 139.792969 49.847656 L 139.792969 49.875 L 135.714844 49.875 L 135.714844 55.039062 Z M 139.738281 48.1875 L 139.984375 48.132812 C 140.207031 48.0625 140.332031 47.933594 140.371094 47.753906 L 140.421875 47.507812 L 140.421875 45.359375 L 140.371094 45.089844 C 140.296875 44.90625 140.167969 44.78125 139.984375 44.707031 L 139.738281 44.679688 L 139.738281 44.652344 L 135.714844 44.652344 L 135.714844 48.1875 Z M 139.738281 48.1875 " fill-opacity="1" fill-rule="nonzero"/></g><g clip-path="url(#d13bed1349)"><path fill="#231f20" d="M 146.007812 55.039062 L 145.542969 54.984375 C 144.503906 54.855469 143.875 54.242188 143.65625 53.136719 L 143.625 52.671875 L 143.625 52.183594 L 145.296875 52.183594 L 145.296875 52.671875 L 145.324219 52.671875 L 145.351562 52.945312 C 145.445312 53.125 145.570312 53.246094 145.734375 53.296875 L 146.007812 53.351562 L 149.324219 53.351562 L 149.597656 53.296875 C 149.761719 53.242188 149.890625 53.125 149.980469 52.945312 L 150.007812 52.671875 L 150.035156 52.671875 L 150.035156 50.523438 L 150.007812 50.523438 L 149.980469 50.28125 C 149.890625 50.101562 149.761719 49.972656 149.597656 49.898438 L 149.324219 49.84375 L 149.324219 49.816406 L 145.542969 49.789062 C 145.070312 49.699219 144.65625 49.480469 144.3125 49.136719 C 143.964844 48.792969 143.746094 48.382812 143.65625 47.914062 L 143.625 47.476562 L 143.625 45.328125 L 143.65625 44.867188 C 143.746094 44.414062 143.96875 44.003906 144.324219 43.644531 C 144.679688 43.28125 145.089844 43.070312 145.542969 43.019531 L 146.007812 42.964844 L 146.007812 42.992188 L 149.324219 42.992188 L 149.324219 42.964844 L 149.789062 43.019531 C 150.246094 43.070312 150.652344 43.28125 151.007812 43.644531 C 151.363281 44.003906 151.585938 44.414062 151.679688 44.867188 L 151.707031 45.328125 L 151.707031 45.738281 L 150.035156 45.738281 L 150.035156 45.328125 L 150.007812 45.328125 L 149.980469 45.085938 C 149.90625 44.90625 149.777344 44.777344 149.597656 44.703125 L 149.324219 44.648438 L 146.007812 44.648438 L 145.734375 44.703125 C 145.570312 44.757812 145.445312 44.886719 145.351562 45.085938 L 145.324219 45.328125 L 145.296875 45.328125 L 145.296875 47.476562 L 145.324219 47.476562 L 145.351562 47.722656 C 145.425781 47.902344 145.554688 48.03125 145.734375 48.101562 L 146.007812 48.15625 L 149.375 48.15625 L 149.789062 48.210938 C 150.246094 48.265625 150.652344 48.472656 151.007812 48.835938 C 151.363281 49.199219 151.585938 49.609375 151.679688 50.0625 L 151.707031 50.523438 L 151.707031 52.671875 L 151.679688 53.132812 C 151.4375 54.238281 150.808594 54.855469 149.789062 54.980469 L 149.324219 55.035156 L 146.007812 55.035156 Z M 146.007812 55.039062 " fill-opacity="1" fill-rule="nonzero"/></g><g clip-path="url(#57f22211f5)"><path fill="#000000" d="M 13.042969 26.820312 L 13.042969 54.921875 L 41.339844 54.921875 L 41.339844 26.820312 Z M 39.964844 53.554688 L 26.566406 53.554688 L 27.289062 47.578125 L 30.472656 47.578125 L 33.375 45.253906 L 25.578125 39.246094 L 25.578125 33.078125 L 17.765625 40.707031 L 24.035156 47.578125 L 24.847656 47.578125 L 24.125 53.554688 L 21.765625 53.554688 L 22.214844 49.839844 L 15.710938 42.710938 L 14.417969 43.972656 L 14.417969 28.1875 L 39.964844 28.1875 L 39.964844 53.558594 Z M 39.964844 53.554688 " fill-opacity="1" fill-rule="nonzero"/></g><path fill="#000000" d="M 32.835938 47.578125 L 35.277344 47.578125 L 38.179688 45.253906 L 30.382812 39.246094 L 30.382812 33.074219 L 27.941406 35.460938 L 27.941406 39.246094 L 35.738281 45.253906 Z M 32.835938 47.578125 " fill-opacity="1" fill-rule="nonzero"/><path fill="#000000" d="M 23.03125 49.535156 L 23.316406 49.847656 L 24.246094 49.011719 L 23.960938 48.699219 L 16.90625 40.96875 L 16.585938 40.613281 L 15.65625 41.449219 L 15.980469 41.800781 Z M 23.03125 49.535156 " fill-opacity="1" fill-rule="nonzero"/></svg>