<svg xmlns="http://www.w3.org/2000/svg" xmlns:xlink="http://www.w3.org/1999/xlink" width="220" zoomAndPan="magnify" viewBox="0 0 165 82.499998" height="110" preserveAspectRatio="xMidYMid meet" version="1.0"><defs><clipPath id="9958c14804"><path d="M 0.496094 0 L 164.503906 0 L 164.503906 82.003906 L 0.496094 82.003906 Z M 0.496094 0 " clip-rule="nonzero"/></clipPath></defs><g clip-path="url(#9958c14804)"><path fill="#ffffff" d="M 0.496094 0 L 164.503906 0 L 164.503906 89.457031 L 0.496094 89.457031 Z M 0.496094 0 " fill-opacity="1" fill-rule="nonzero"/><path fill="#ffffff" d="M 0.496094 0 L 164.503906 0 L 164.503906 82.003906 L 0.496094 82.003906 Z M 0.496094 0 " fill-opacity="1" fill-rule="nonzero"/></g><path fill="#0c322c" d="M 153.511719 48.335938 L 144.191406 48.335938 C 143.476562 48.335938 142.890625 47.753906 142.890625 47.035156 L 142.890625 42.324219 L 151.882812 42.324219 C 152.65625 42.324219 153.285156 41.699219 153.285156 40.925781 C 153.285156 40.152344 152.65625 39.527344 151.882812 39.527344 L 142.890625 39.527344 L 142.890625 34.894531 C 142.890625 34.171875 143.476562 33.589844 144.191406 33.589844 L 153.511719 33.589844 C 154.324219 33.589844 154.980469 32.933594 154.980469 32.121094 C 154.980469 31.308594 154.324219 30.652344 153.511719 30.652344 L 144.191406 30.652344 C 141.855469 30.652344 139.953125 32.554688 139.953125 34.894531 L 139.953125 47.035156 C 139.953125 49.371094 141.855469 51.273438 144.191406 51.273438 L 153.511719 51.273438 C 154.324219 51.273438 154.980469 50.617188 154.980469 49.808594 C 154.980469 48.996094 154.324219 48.335938 153.511719 48.335938 M 126.109375 39.566406 C 124.140625 39.210938 122.769531 38.792969 122.003906 38.304688 C 121.234375 37.816406 120.851562 37.160156 120.851562 36.328125 C 120.851562 35.4375 121.246094 34.707031 122.03125 34.136719 C 122.820312 33.566406 123.929688 33.28125 125.363281 33.28125 C 126.816406 33.28125 127.976562 33.558594 128.847656 34.121094 C 129.316406 34.421875 129.742188 34.824219 130.128906 35.324219 C 130.695312 36.058594 131.769531 36.15625 132.457031 35.535156 C 133.109375 34.949219 133.167969 33.941406 132.582031 33.289062 C 131.875 32.5 131.070312 31.875 130.167969 31.414062 C 128.832031 30.730469 127.21875 30.386719 125.332031 30.386719 C 123.714844 30.386719 122.296875 30.667969 121.085938 31.226562 C 119.871094 31.785156 118.941406 32.542969 118.300781 33.496094 C 117.65625 34.453125 117.335938 35.507812 117.335938 36.671875 C 117.335938 37.769531 117.589844 38.703125 118.097656 39.472656 C 118.605469 40.238281 119.421875 40.882812 120.542969 41.398438 C 121.660156 41.917969 123.164062 42.355469 125.050781 42.707031 C 126.941406 43.058594 128.261719 43.464844 129.019531 43.921875 C 129.777344 44.378906 130.152344 44.976562 130.152344 45.722656 C 130.152344 46.65625 129.734375 47.378906 128.894531 47.886719 C 128.054688 48.394531 126.898438 48.648438 125.425781 48.648438 C 123.871094 48.648438 122.566406 48.359375 121.519531 47.777344 C 120.921875 47.445312 120.386719 47.007812 119.914062 46.457031 C 119.316406 45.765625 118.246094 45.75 117.597656 46.394531 L 117.59375 46.402344 C 117.003906 46.992188 116.957031 47.949219 117.515625 48.570312 C 119.289062 50.554688 121.9375 51.542969 125.457031 51.542969 C 127.074219 51.542969 128.5 51.296875 129.734375 50.8125 C 130.96875 50.324219 131.925781 49.625 132.609375 48.710938 C 133.296875 47.800781 133.640625 46.742188 133.640625 45.539062 C 133.640625 44.417969 133.390625 43.480469 132.890625 42.722656 C 132.394531 41.964844 131.601562 41.332031 130.511719 40.824219 C 129.421875 40.316406 127.957031 39.898438 126.109375 39.566406 M 80.164062 39.570312 C 78.195312 39.214844 76.828125 38.796875 76.058594 38.308594 C 75.292969 37.824219 74.910156 37.164062 74.910156 36.332031 C 74.910156 35.441406 75.300781 34.710938 76.089844 34.140625 C 76.878906 33.570312 77.988281 33.285156 79.417969 33.285156 C 80.871094 33.285156 82.03125 33.566406 82.902344 34.125 C 83.375 34.425781 83.800781 34.828125 84.1875 35.332031 C 84.753906 36.066406 85.824219 36.164062 86.515625 35.542969 C 87.167969 34.953125 87.222656 33.945312 86.636719 33.292969 C 85.929688 32.503906 85.125 31.878906 84.226562 31.417969 C 82.886719 30.734375 81.273438 30.390625 79.386719 30.390625 C 77.769531 30.390625 76.355469 30.671875 75.140625 31.230469 C 73.929688 31.792969 73 32.550781 72.359375 33.503906 C 71.714844 34.457031 71.394531 35.515625 71.394531 36.675781 C 71.394531 37.777344 71.644531 38.710938 72.15625 39.476562 C 72.664062 40.246094 73.476562 40.886719 74.597656 41.40625 C 75.71875 41.925781 77.222656 42.359375 79.109375 42.714844 C 80.996094 43.066406 82.316406 43.472656 83.074219 43.925781 C 83.832031 44.382812 84.210938 44.984375 84.210938 45.730469 C 84.210938 46.664062 83.789062 47.386719 82.949219 47.894531 C 82.109375 48.402344 80.953125 48.65625 79.480469 48.65625 C 77.925781 48.65625 76.625 48.363281 75.578125 47.785156 C 74.980469 47.453125 74.441406 47.011719 73.96875 46.464844 C 73.375 45.769531 72.300781 45.753906 71.65625 46.402344 L 71.648438 46.40625 C 71.058594 46.996094 71.011719 47.957031 71.570312 48.578125 C 73.347656 50.558594 75.992188 51.546875 79.511719 51.546875 C 81.128906 51.546875 82.554688 51.304688 83.789062 50.816406 C 85.023438 50.332031 85.984375 49.628906 86.667969 48.71875 C 87.351562 47.804688 87.695312 46.746094 87.695312 45.542969 C 87.695312 44.421875 87.445312 43.484375 86.949219 42.726562 C 86.449219 41.972656 85.65625 41.339844 84.566406 40.832031 C 83.480469 40.320312 82.011719 39.902344 80.164062 39.570312 M 110.808594 32.066406 L 110.808594 43.359375 C 110.808594 46.054688 110.09375 48.09375 108.660156 49.472656 C 107.230469 50.855469 105.144531 51.542969 102.410156 51.542969 C 99.671875 51.542969 97.585938 50.855469 96.15625 49.472656 C 94.722656 48.09375 94.007812 46.054688 94.007812 43.359375 L 94.007812 32.066406 C 94.007812 31.136719 94.757812 30.386719 95.6875 30.386719 C 96.613281 30.386719 97.367188 31.136719 97.367188 32.066406 L 97.367188 42.957031 C 97.367188 44.90625 97.777344 46.34375 98.597656 47.265625 C 99.417969 48.1875 100.6875 48.648438 102.410156 48.648438 C 104.128906 48.648438 105.398438 48.1875 106.21875 47.265625 C 107.039062 46.34375 107.449219 44.90625 107.449219 42.957031 L 107.449219 32.066406 C 107.449219 31.136719 108.199219 30.386719 109.128906 30.386719 C 110.054688 30.386719 110.808594 31.136719 110.808594 32.066406 " fill-opacity="1" fill-rule="nonzero"/><path fill="#30ba78" d="M 59.292969 39.011719 C 59.015625 39.195312 58.640625 39.195312 58.363281 39.011719 C 57.90625 38.707031 57.863281 38.074219 58.230469 37.707031 C 58.558594 37.367188 59.097656 37.367188 59.425781 37.707031 C 59.792969 38.074219 59.75 38.707031 59.292969 39.011719 M 60.625 37.164062 C 61.15625 39.421875 59.125 41.453125 56.867188 40.921875 C 55.71875 40.652344 54.804688 39.738281 54.535156 38.589844 C 54.007812 36.332031 56.035156 34.304688 58.292969 34.832031 C 59.441406 35.101562 60.355469 36.015625 60.625 37.164062 M 45.421875 49.304688 C 45.679688 49.675781 45.894531 50.035156 46.015625 50.394531 C 46.101562 50.648438 46.210938 50.984375 46.460938 51.117188 C 46.476562 51.125 46.488281 51.132812 46.503906 51.136719 C 46.960938 51.304688 48.148438 51.277344 48.148438 51.277344 L 50.324219 51.277344 C 50.511719 51.277344 52.148438 51.273438 52.109375 51.089844 C 51.910156 50.214844 50.898438 50.058594 50.128906 49.601562 C 49.417969 49.179688 48.742188 48.699219 48.4375 47.871094 C 48.277344 47.445312 48.375 46.460938 48.648438 46.105469 C 48.847656 45.84375 49.144531 45.671875 49.460938 45.605469 C 49.8125 45.527344 50.175781 45.59375 50.527344 45.628906 C 50.960938 45.671875 51.386719 45.753906 51.820312 45.804688 C 52.652344 45.914062 53.492188 45.957031 54.332031 45.933594 C 55.71875 45.894531 57.109375 45.675781 58.425781 45.226562 C 59.34375 44.917969 60.246094 44.503906 61.027344 43.921875 C 61.914062 43.265625 61.679688 43.324219 60.78125 43.417969 C 59.703125 43.527344 58.617188 43.542969 57.539062 43.480469 C 56.53125 43.421875 55.535156 43.304688 54.625 42.835938 C 53.90625 42.464844 53.289062 42.09375 52.722656 41.519531 C 52.636719 41.433594 52.582031 41.179688 52.738281 41.019531 C 52.890625 40.859375 53.210938 40.953125 53.308594 41.035156 C 54.300781 41.867188 55.78125 42.550781 57.316406 42.625 C 58.144531 42.664062 58.953125 42.679688 59.78125 42.644531 C 60.195312 42.625 60.820312 42.628906 61.238281 42.625 C 61.453125 42.621094 62.035156 42.683594 62.144531 42.453125 C 62.179688 42.390625 62.175781 42.3125 62.171875 42.238281 C 62.050781 38.921875 61.804688 35.179688 58.335938 33.59375 C 55.746094 32.40625 51.859375 30.574219 50.21875 29.8125 C 49.839844 29.628906 49.394531 29.917969 49.394531 30.339844 C 49.394531 31.449219 49.453125 33.039062 49.453125 34.488281 C 48.667969 33.691406 47.34375 33.183594 46.335938 32.722656 C 45.191406 32.195312 44.007812 31.75 42.804688 31.375 C 40.382812 30.625 37.875 30.164062 35.355469 29.914062 C 32.496094 29.628906 29.589844 29.765625 26.773438 30.347656 C 22.136719 31.308594 17.582031 33.539062 14.121094 36.796875 C 11.996094 38.796875 10.332031 41.644531 10.21875 44.53125 C 10.058594 48.617188 11.203125 50.808594 13.304688 53.070312 C 16.660156 56.675781 23.878906 57.179688 26.804688 52.90625 C 28.121094 50.980469 28.40625 48.371094 27.453125 46.246094 C 26.496094 44.121094 24.300781 42.585938 21.972656 42.507812 C 20.167969 42.445312 18.246094 43.367188 17.550781 45.035156 C 17.023438 46.3125 17.324219 47.886719 18.285156 48.875 C 18.660156 49.261719 19.167969 49.578125 19.722656 49.457031 C 20.050781 49.382812 20.320312 49.136719 20.371094 48.804688 C 20.445312 48.316406 20.015625 48 19.753906 47.625 C 19.277344 46.949219 19.375 45.929688 19.96875 45.355469 C 20.472656 44.871094 21.214844 44.726562 21.914062 44.726562 C 22.5625 44.730469 23.226562 44.84375 23.789062 45.171875 C 24.578125 45.636719 25.101562 46.488281 25.28125 47.386719 C 25.824219 50.066406 23.640625 52.25 20.683594 52.417969 C 19.171875 52.507812 17.632812 52.113281 16.449219 51.160156 C 13.460938 48.753906 12.726562 43.835938 16.144531 41.210938 C 19.390625 38.71875 23.488281 39.359375 25.902344 40.65625 C 27.835938 41.691406 29.277344 43.386719 30.371094 45.261719 C 30.917969 46.203125 31.382812 47.1875 31.816406 48.1875 C 32.234375 49.152344 32.625 50.121094 33.457031 50.824219 C 34.007812 51.292969 34.691406 51.277344 35.414062 51.277344 L 39.542969 51.277344 C 40.101562 51.277344 39.964844 50.902344 39.722656 50.65625 C 39.175781 50.09375 38.390625 49.96875 37.664062 49.769531 C 36 49.308594 36.167969 47.105469 36.628906 47.105469 C 38.117188 47.105469 38.164062 47.152344 39.464844 47.136719 C 41.347656 47.109375 41.917969 47 43.386719 47.542969 C 44.175781 47.835938 44.929688 48.605469 45.421875 49.304688 " fill-opacity="1" fill-rule="nonzero"/></svg>