<svg xmlns="http://www.w3.org/2000/svg" xmlns:xlink="http://www.w3.org/1999/xlink" width="220" zoomAndPan="magnify" viewBox="0 0 165 82.499998" height="110" preserveAspectRatio="xMidYMid meet" version="1.0"><defs><clipPath id="14456a536a"><path d="M 0.496094 0 L 164.503906 0 L 164.503906 82.003906 L 0.496094 82.003906 Z M 0.496094 0 " clip-rule="nonzero"/></clipPath></defs><g clip-path="url(#14456a536a)"><path fill="#ffffff" d="M 0.496094 0 L 164.503906 0 L 164.503906 82.003906 L 0.496094 82.003906 Z M 0.496094 0 " fill-opacity="1" fill-rule="nonzero"/></g><path fill="#887d75" d="M 119.550781 43.011719 L 124.269531 43.011719 L 124.269531 47.578125 L 119.550781 47.578125 Z M 119.550781 43.011719 " fill-opacity="1" fill-rule="nonzero"/><path fill="#887d75" d="M 126.898438 26.546875 L 126.898438 22.15625 L 131.539062 22.15625 L 131.539062 26.546875 Z M 126.898438 47.578125 L 126.898438 29.152344 L 131.539062 29.152344 L 131.539062 47.578125 Z M 126.898438 47.578125 " fill-opacity="1" fill-rule="nonzero"/><path fill="#887d75" d="M 145.628906 47.234375 C 144.636719 47.65625 142.742188 47.957031 141.5625 47.957031 C 138.171875 47.957031 136.464844 46.371094 136.464844 43.078125 L 136.464844 32.820312 L 133.691406 32.820312 L 133.691406 29.152344 L 136.464844 29.152344 L 136.464844 24.574219 L 141.105469 23.929688 L 141.105469 29.152344 L 145.851562 29.152344 L 145.550781 32.820312 L 141.105469 32.820312 L 141.105469 42.46875 C 141.105469 43.453125 141.5625 44.097656 142.777344 44.097656 C 143.457031 44.097656 144.292969 43.941406 145.09375 43.71875 Z M 145.628906 47.234375 " fill-opacity="1" fill-rule="nonzero"/><path fill="#006ec7" d="M 18.761719 28.464844 C 16.667969 28.464844 14.070312 28.808594 12.285156 29.351562 L 12.863281 32.933594 C 14.539062 32.589844 16.386719 32.355469 18.105469 32.355469 C 21.125 32.355469 21.71875 32.878906 21.71875 34.960938 L 21.71875 35.925781 L 16.957031 35.925781 C 13.121094 35.925781 11.671875 38.597656 11.671875 42.414062 C 11.671875 45.648438 13.144531 48 16.601562 48 C 18.496094 48 20.511719 47.457031 22.21875 46.335938 L 22.597656 47.757812 L 26.445312 47.757812 L 26.445312 35.238281 C 26.445312 30.539062 24.695312 28.453125 18.761719 28.453125 Z M 21.707031 43.308594 C 20.8125 43.808594 19.386719 44.53125 17.992188 44.585938 C 15.941406 44.664062 15.996094 42.6875 15.996094 41.371094 C 15.996094 39.941406 16.667969 39.496094 18.226562 39.496094 L 21.71875 39.496094 L 21.71875 43.308594 Z M 41.574219 29.019531 C 40.082031 28.707031 38.164062 28.476562 36.480469 28.476562 C 32.050781 28.476562 30.167969 30.757812 30.167969 34.972656 L 30.167969 41.4375 C 30.167969 45.761719 32.207031 48.023438 36.042969 48.023438 C 38.429688 48.023438 40.390625 47.246094 42.074219 46.039062 L 42.589844 47.777344 L 46.347656 47.777344 L 46.347656 20.648438 L 41.5625 21.3125 L 41.5625 29.019531 Z M 41.574219 42.257812 C 40.558594 43.1875 38.875 43.976562 37.304688 43.976562 C 35.542969 43.976562 34.953125 43.121094 34.953125 41.558594 L 34.953125 34.863281 C 34.953125 33.144531 35.621094 32.535156 37.335938 32.535156 C 38.707031 32.535156 40.3125 32.765625 41.574219 33.042969 L 41.574219 42.269531 Z M 109.238281 28.476562 C 102.761719 28.476562 101.023438 32.023438 101.023438 35.882812 L 101.023438 40.628906 C 101.023438 44.484375 102.761719 48.035156 109.238281 48.035156 C 115.71875 48.035156 117.46875 44.484375 117.46875 40.628906 L 117.46875 35.882812 C 117.46875 32.023438 115.71875 28.476562 109.238281 28.476562 Z M 112.730469 40.78125 C 112.730469 42.898438 111.757812 44.019531 109.238281 44.019531 C 106.71875 44.019531 105.75 42.898438 105.75 40.78125 L 105.75 35.726562 C 105.75 33.609375 106.71875 32.488281 109.238281 32.488281 C 111.757812 32.488281 112.730469 33.609375 112.730469 35.726562 Z M 75.625 36.203125 C 73.046875 35.671875 72.925781 35.558594 72.847656 34.0625 C 72.792969 32.910156 73.117188 32.433594 75.167969 32.332031 C 76.640625 32.265625 78.925781 32.421875 80.375 32.632812 L 80.664062 28.886719 C 79.023438 28.542969 76.726562 28.421875 74.988281 28.496094 C 69.613281 28.753906 68.03125 30.480469 68.210938 34.253906 C 68.378906 37.867188 68.980469 38.996094 73.628906 39.882812 C 76.714844 40.472656 76.972656 41.039062 77.027344 42.191406 C 77.097656 43.609375 76.804688 44.085938 74.722656 44.1875 C 72.792969 44.273438 70.683594 44.03125 69.078125 43.644531 L 68.589844 47.246094 C 70.363281 47.777344 73.125 48.109375 75.132812 48.023438 C 80.820312 47.757812 81.835938 45.472656 81.65625 41.859375 C 81.476562 38.011719 80.941406 37.34375 75.613281 36.214844 Z M 92.148438 36.203125 C 89.570312 35.671875 89.449219 35.558594 89.371094 34.0625 C 89.316406 32.910156 89.640625 32.433594 91.691406 32.332031 C 93.160156 32.265625 95.449219 32.421875 96.898438 32.632812 L 97.1875 28.886719 C 95.546875 28.542969 93.25 28.421875 91.511719 28.496094 C 86.136719 28.753906 84.554688 30.480469 84.734375 34.253906 C 84.898438 37.867188 85.503906 38.996094 90.152344 39.894531 C 93.238281 40.484375 93.496094 41.046875 93.550781 42.203125 C 93.617188 43.621094 93.328125 44.097656 91.246094 44.195312 C 89.316406 44.285156 87.207031 44.042969 85.601562 43.652344 L 85.113281 47.257812 C 86.886719 47.789062 89.648438 48.121094 91.65625 48.035156 C 97.332031 47.765625 98.359375 45.484375 98.179688 41.867188 C 98 38.023438 97.464844 37.355469 92.136719 36.214844 Z M 57.917969 28.464844 C 51.863281 28.464844 50.082031 31.824219 50.082031 35.792969 L 50.082031 40.769531 C 50.082031 45.285156 52.132812 48.023438 58.074219 48.023438 C 60.328125 48.023438 62.210938 47.8125 64.339844 47.003906 L 64.84375 43.476562 C 62.335938 44.164062 60.425781 44.539062 58.566406 44.351562 C 55.710938 44.0625 54.820312 43.265625 54.820312 40.992188 L 54.820312 40.027344 L 65.332031 40.027344 L 65.332031 36.015625 C 65.332031 31.96875 63.972656 28.453125 57.917969 28.453125 Z M 60.828125 36.257812 L 54.820312 36.257812 L 54.820312 35.328125 C 54.820312 33.554688 55.632812 32.324219 57.964844 32.324219 C 60.292969 32.324219 60.828125 33.554688 60.828125 35.328125 Z M 60.828125 36.257812 " fill-opacity="1" fill-rule="nonzero"/><path fill="#887d75" d="M 153.589844 18.90625 L 151.816406 18.90625 L 151.816406 51.492188 L 140.480469 62.769531 L 142.964844 62.769531 L 153.589844 52.214844 Z M 153.589844 18.90625 " fill-opacity="1" fill-rule="nonzero"/></svg>