<svg xmlns="http://www.w3.org/2000/svg" xmlns:xlink="http://www.w3.org/1999/xlink" width="220" zoomAndPan="magnify" viewBox="0 0 165 82.499998" height="110" preserveAspectRatio="xMidYMid meet" version="1.0"><defs><clipPath id="32415bd5f5"><path d="M 0.496094 0 L 164.503906 0 L 164.503906 82.003906 L 0.496094 82.003906 Z M 0.496094 0 " clip-rule="nonzero"/></clipPath><clipPath id="f18a0bc9fb"><path d="M 31.019531 43 L 53 43 L 53 67.746094 L 31.019531 67.746094 Z M 31.019531 43 " clip-rule="nonzero"/></clipPath><clipPath id="7c7002824b"><path d="M 48 14.070312 L 121 14.070312 L 121 41 L 48 41 Z M 48 14.070312 " clip-rule="nonzero"/></clipPath><clipPath id="f496517496"><path d="M 95 46 L 114 46 L 114 67.746094 L 95 67.746094 Z M 95 46 " clip-rule="nonzero"/></clipPath><clipPath id="9b58ca8fc4"><path d="M 54 46 L 71 46 L 71 67.746094 L 54 67.746094 Z M 54 46 " clip-rule="nonzero"/></clipPath><clipPath id="cece3b6ca9"><path d="M 71 46 L 94 46 L 94 67.746094 L 71 67.746094 Z M 71 46 " clip-rule="nonzero"/></clipPath><clipPath id="64aaedefb1"><path d="M 116 46 L 136.132812 46 L 136.132812 67.746094 L 116 67.746094 Z M 116 46 " clip-rule="nonzero"/></clipPath></defs><g clip-path="url(#32415bd5f5)"><path fill="#ffffff" d="M 0.496094 0 L 164.503906 0 L 164.503906 82.003906 L 0.496094 82.003906 Z M 0.496094 0 " fill-opacity="1" fill-rule="nonzero"/></g><g clip-path="url(#f18a0bc9fb)"><path fill="#0063af" d="M 49.769531 61.324219 L 52.6875 63.921875 C 50.386719 66.257812 47.160156 67.710938 43.535156 67.710938 C 36.636719 67.710938 31.019531 62.378906 31.019531 55.816406 C 31.019531 49.253906 36.636719 43.925781 43.535156 43.925781 C 47.160156 43.925781 50.386719 45.378906 52.6875 47.710938 L 49.769531 50.3125 C 48.222656 48.726562 46.011719 47.757812 43.535156 47.757812 C 38.800781 47.710938 35 51.324219 35 55.816406 C 35 60.308594 38.847656 63.921875 43.535156 63.921875 C 46.011719 63.921875 48.222656 62.910156 49.769531 61.324219 Z M 49.769531 61.324219 " fill-opacity="1" fill-rule="nonzero"/></g><path fill="#ea580c" d="M 109.6875 39.167969 C 109.6875 38.769531 109.644531 38.066406 109.644531 36.964844 C 109.644531 35.863281 109.601562 35.113281 109.601562 34.675781 C 109.554688 34.101562 109.511719 33.75 109.378906 33.484375 C 109.070312 32.824219 108.449219 32.472656 107.742188 32.515625 C 107.300781 32.558594 106.945312 32.78125 106.679688 33.089844 L 106.636719 33.089844 C 106.238281 33 105.886719 32.914062 105.621094 32.914062 C 105.222656 32.867188 104.824219 32.957031 104.425781 33.089844 C 104.160156 33.175781 103.941406 33.265625 103.761719 33.351562 C 103.496094 33.484375 103.230469 33.617188 103.011719 33.792969 C 102.703125 34.058594 102.4375 34.410156 102.257812 34.851562 C 102.171875 35.070312 102.082031 35.246094 102.039062 35.46875 C 101.949219 35.292969 101.859375 35.070312 101.773438 34.851562 C 101.597656 34.367188 101.332031 34.015625 101.019531 33.792969 C 100.800781 33.617188 100.535156 33.484375 100.269531 33.351562 C 100.09375 33.265625 99.871094 33.175781 99.605469 33.089844 C 99.207031 32.957031 98.808594 32.867188 98.410156 32.914062 C 98.191406 32.914062 97.925781 32.957031 97.617188 33.042969 C 97.617188 32.78125 97.617188 32.472656 97.617188 32.121094 C 97.660156 29.917969 97.660156 29.609375 97.703125 29.609375 C 97.792969 28.992188 97.570312 28.15625 96.777344 27.804688 C 96.15625 27.539062 95.539062 27.625 95.09375 28.023438 C 94.699219 28.375 94.609375 28.816406 94.566406 29.257812 C 94.519531 29.695312 94.519531 30.445312 94.519531 31.679688 C 94.519531 32.472656 94.519531 33.132812 94.476562 33.617188 C 94.210938 33.089844 93.902344 32.691406 93.371094 32.558594 C 92.882812 32.429688 92.398438 32.472656 91.957031 32.734375 C 91.777344 32.824219 91.601562 33 91.46875 33.175781 C 91.425781 33.089844 91.425781 33 91.382812 32.914062 C 91.160156 32.515625 90.804688 32.25 90.40625 32.164062 C 89.921875 32.03125 89.433594 32.164062 88.992188 32.472656 L 88.949219 32.515625 C 88.773438 32.648438 88.640625 32.78125 88.550781 32.957031 L 88.550781 33 C 88.328125 33.441406 88.152344 33.792969 88.0625 34.101562 C 87.933594 33.96875 87.800781 33.835938 87.667969 33.75 C 87.621094 33.75 87.578125 33.707031 87.402344 33.574219 C 87.089844 33.308594 86.695312 33.132812 86.339844 33 C 86.03125 32.914062 85.71875 32.867188 85.367188 32.867188 C 84.96875 32.824219 84.570312 32.867188 84.171875 33 C 84.128906 33 84.085938 33.042969 84.039062 33.042969 C 83.554688 32.734375 82.933594 32.734375 82.449219 33.042969 C 82.269531 33.132812 82.09375 33.265625 81.960938 33.441406 C 81.652344 32.867188 81.035156 32.515625 80.371094 32.605469 C 79.925781 32.648438 79.574219 32.867188 79.308594 33.175781 L 79.265625 33.175781 C 78.867188 33.089844 78.511719 33 78.246094 33 C 77.847656 32.957031 77.453125 33.042969 77.054688 33.175781 C 76.789062 33.265625 76.566406 33.351562 76.390625 33.441406 C 76.125 33.574219 75.859375 33.707031 75.636719 33.882812 C 75.328125 34.144531 75.0625 34.5 74.886719 34.9375 C 74.796875 35.160156 74.710938 35.378906 74.621094 35.597656 C 74.488281 35.90625 74.398438 36.304688 74.355469 36.65625 C 74.3125 36.921875 74.3125 37.230469 74.3125 37.449219 C 74.3125 37.714844 74.3125 38.023438 74.3125 38.285156 C 74.355469 38.769531 74.488281 39.167969 74.710938 39.5625 L 75.019531 40.046875 C 75.242188 40.355469 75.503906 40.664062 75.949219 40.886719 C 76.347656 41.148438 76.742188 41.324219 77.097656 41.371094 C 77.273438 41.414062 77.496094 41.414062 77.804688 41.457031 C 78.203125 41.5 78.511719 41.546875 78.777344 41.5 C 79.132812 41.457031 79.484375 41.371094 79.839844 41.195312 C 80.105469 41.414062 80.457031 41.546875 80.8125 41.546875 C 81.210938 41.546875 81.742188 41.371094 82.050781 40.839844 C 82.226562 41.105469 82.449219 41.28125 82.625 41.371094 C 83.246094 41.679688 84.039062 41.5 84.484375 40.972656 C 84.792969 40.578125 84.878906 40.136719 84.878906 38.945312 C 84.878906 38.285156 84.835938 37.582031 84.835938 36.875 C 84.835938 36.523438 84.835938 36.261719 84.835938 36.082031 C 84.878906 36.039062 84.878906 36.039062 84.925781 35.996094 C 84.925781 35.996094 84.96875 35.953125 85.058594 35.953125 C 85.101562 35.953125 85.144531 35.953125 85.191406 35.953125 C 85.367188 36.128906 85.542969 36.214844 85.675781 36.304688 C 85.71875 36.304688 85.765625 36.347656 85.851562 36.390625 C 86.382812 36.789062 87.003906 36.832031 87.535156 36.570312 C 87.535156 36.746094 87.535156 36.921875 87.535156 37.054688 C 87.578125 37.539062 87.710938 38.023438 88.019531 38.460938 C 88.285156 38.859375 88.59375 39.167969 88.90625 39.386719 C 89.167969 39.5625 89.433594 39.695312 89.699219 39.828125 C 90.054688 40.003906 90.453125 40.09375 90.851562 40.09375 L 91.601562 40.09375 C 92.042969 40.09375 92.355469 40.046875 92.617188 40.003906 C 92.929688 39.917969 93.238281 39.785156 93.679688 39.519531 C 93.988281 39.34375 94.253906 39.078125 94.476562 38.816406 C 94.476562 38.945312 94.476562 39.035156 94.476562 39.125 C 94.476562 39.652344 94.476562 39.960938 94.519531 40.222656 C 94.699219 41.148438 95.449219 41.5 96.023438 41.5 C 96.378906 41.5 96.730469 41.371094 96.996094 41.148438 C 97.351562 41.324219 97.703125 41.457031 98.058594 41.457031 C 98.324219 41.5 98.675781 41.457031 99.03125 41.414062 C 99.339844 41.371094 99.5625 41.324219 99.738281 41.324219 C 100.09375 41.28125 100.445312 41.105469 100.886719 40.839844 C 101.285156 40.578125 101.597656 40.3125 101.773438 40.003906 L 102.082031 39.519531 C 102.125 39.476562 102.125 39.476562 102.125 39.429688 C 102.171875 39.476562 102.171875 39.519531 102.214844 39.5625 L 102.523438 40.046875 C 102.746094 40.355469 103.054688 40.664062 103.453125 40.886719 C 103.851562 41.148438 104.25 41.324219 104.601562 41.371094 C 104.78125 41.414062 105 41.414062 105.308594 41.457031 C 105.707031 41.5 106.019531 41.546875 106.285156 41.5 C 106.636719 41.457031 106.992188 41.371094 107.34375 41.195312 C 107.609375 41.414062 107.964844 41.546875 108.316406 41.546875 C 108.890625 41.546875 109.601562 41.195312 109.820312 40.269531 C 109.6875 40.046875 109.6875 39.695312 109.6875 39.167969 Z M 105.707031 38.285156 C 105.53125 38.242188 105.355469 38.199219 105.222656 38.109375 C 105.089844 38.066406 105.046875 38.023438 105.046875 38.023438 C 105 37.976562 104.914062 37.933594 104.867188 37.890625 C 104.867188 37.714844 104.867188 37.539062 104.867188 37.316406 C 104.867188 37.054688 104.914062 36.789062 104.957031 36.613281 C 105 36.523438 105.046875 36.4375 105.179688 36.347656 C 105.222656 36.304688 105.308594 36.304688 105.355469 36.261719 L 105.753906 36.261719 C 105.839844 36.261719 105.929688 36.261719 105.972656 36.261719 C 106.019531 36.304688 106.0625 36.347656 106.0625 36.347656 C 106.0625 36.347656 106.105469 36.4375 106.238281 36.746094 C 106.285156 36.921875 106.328125 37.054688 106.371094 37.140625 C 106.371094 37.273438 106.371094 37.40625 106.328125 37.539062 C 106.285156 37.667969 106.238281 37.800781 106.152344 37.933594 C 106.0625 38.109375 105.972656 38.199219 105.929688 38.199219 C 105.839844 38.242188 105.796875 38.285156 105.707031 38.285156 Z M 99.121094 37.363281 C 99.121094 37.582031 99.121094 37.800781 99.121094 37.933594 C 99.074219 37.976562 98.988281 38.023438 98.941406 38.066406 C 98.941406 38.066406 98.898438 38.109375 98.765625 38.152344 C 98.589844 38.199219 98.410156 38.285156 98.234375 38.332031 C 98.191406 38.332031 98.101562 38.285156 98.058594 38.242188 C 98.015625 38.199219 97.925781 38.152344 97.835938 37.976562 C 97.75 37.847656 97.703125 37.714844 97.660156 37.582031 C 97.617188 37.449219 97.617188 37.316406 97.617188 37.183594 C 97.617188 37.097656 97.660156 36.921875 97.75 36.789062 C 97.835938 36.570312 97.925781 36.4375 97.925781 36.4375 C 97.925781 36.4375 97.96875 36.390625 98.015625 36.347656 C 98.101562 36.347656 98.191406 36.347656 98.234375 36.347656 L 98.632812 36.347656 C 98.675781 36.390625 98.765625 36.390625 98.808594 36.4375 C 98.898438 36.523438 98.988281 36.613281 99.03125 36.699219 C 99.074219 36.832031 99.121094 37.097656 99.121094 37.363281 Z M 91.691406 36.039062 C 91.691406 36.304688 91.691406 36.523438 91.644531 36.65625 C 91.601562 36.789062 91.601562 36.832031 91.601562 36.832031 C 91.601562 36.832031 91.558594 36.875 91.46875 36.964844 C 91.46875 36.964844 91.425781 36.964844 91.425781 37.007812 C 91.203125 37.054688 91.027344 37.054688 90.804688 37.007812 C 90.761719 37.007812 90.71875 36.964844 90.671875 36.921875 C 90.671875 36.875 90.671875 36.789062 90.628906 36.699219 C 90.628906 36.480469 90.628906 36.304688 90.671875 36.128906 C 90.71875 35.863281 90.851562 35.597656 90.9375 35.292969 C 91.027344 35.070312 91.070312 34.9375 91.117188 34.894531 C 91.160156 34.851562 91.203125 34.804688 91.203125 34.71875 C 91.203125 34.761719 91.25 34.804688 91.25 34.851562 C 91.335938 35.070312 91.46875 35.335938 91.601562 35.644531 C 91.691406 35.777344 91.691406 35.90625 91.691406 36.039062 Z M 78.203125 38.285156 C 78.027344 38.242188 77.847656 38.199219 77.714844 38.109375 C 77.585938 38.066406 77.539062 38.023438 77.539062 38.023438 C 77.496094 37.976562 77.40625 37.933594 77.363281 37.890625 C 77.363281 37.714844 77.363281 37.539062 77.363281 37.316406 C 77.363281 37.054688 77.40625 36.789062 77.453125 36.613281 C 77.496094 36.523438 77.539062 36.4375 77.671875 36.347656 C 77.714844 36.304688 77.804688 36.304688 77.847656 36.261719 L 78.246094 36.261719 C 78.335938 36.261719 78.425781 36.261719 78.46875 36.261719 C 78.511719 36.304688 78.511719 36.304688 78.558594 36.347656 C 78.558594 36.390625 78.644531 36.480469 78.734375 36.746094 C 78.820312 36.921875 78.820312 37.054688 78.867188 37.140625 C 78.867188 37.273438 78.867188 37.40625 78.820312 37.539062 C 78.777344 37.667969 78.734375 37.800781 78.644531 37.933594 C 78.558594 38.109375 78.46875 38.199219 78.425781 38.199219 C 78.335938 38.242188 78.246094 38.285156 78.203125 38.285156 Z M 78.203125 38.285156 " fill-opacity="1" fill-rule="nonzero"/><path fill="#ffffff" d="M 76.300781 36.261719 C 76.214844 36.570312 76.125 36.964844 76.125 37.363281 C 76.125 37.757812 76.125 38.109375 76.167969 38.332031 C 76.214844 38.507812 76.257812 38.640625 76.347656 38.683594 C 76.476562 38.769531 76.609375 38.902344 76.742188 38.992188 C 76.875 39.078125 77.007812 39.167969 77.230469 39.253906 C 77.453125 39.34375 77.671875 39.386719 77.894531 39.476562 C 78.113281 39.519531 78.292969 39.519531 78.511719 39.476562 C 78.734375 39.429688 78.910156 39.300781 79.085938 39.167969 C 79.265625 39.035156 79.441406 38.816406 79.574219 38.59375 C 79.75 38.332031 79.839844 38.109375 79.882812 37.847656 C 79.925781 37.582031 79.972656 37.363281 79.972656 37.097656 C 79.972656 36.832031 79.882812 36.570312 79.75 36.261719 C 79.574219 35.90625 79.484375 35.730469 79.441406 35.644531 C 79.351562 35.554688 79.265625 35.421875 79.132812 35.292969 C 79 35.160156 78.867188 35.113281 78.691406 35.070312 C 78.511719 35.027344 78.335938 35.027344 78.160156 35.027344 L 77.671875 35.027344 C 77.496094 35.027344 77.40625 35.070312 77.40625 35.070312 C 77.320312 35.113281 77.1875 35.203125 77.007812 35.292969 C 76.65625 35.644531 76.433594 35.953125 76.300781 36.261719 M 80.636719 40.402344 C 80.546875 40.402344 80.371094 40.355469 80.28125 40.136719 C 80.238281 40.046875 80.191406 39.871094 80.191406 39.210938 L 79.75 39.695312 C 79.574219 39.871094 79.351562 40.046875 79.175781 40.136719 C 78.953125 40.269531 78.734375 40.3125 78.558594 40.355469 C 78.378906 40.355469 78.113281 40.355469 77.847656 40.3125 C 77.585938 40.269531 77.320312 40.222656 77.1875 40.222656 C 77.007812 40.179688 76.789062 40.09375 76.523438 39.917969 C 76.257812 39.738281 76.082031 39.5625 75.949219 39.386719 L 75.636719 38.902344 C 75.503906 38.726562 75.460938 38.507812 75.417969 38.242188 C 75.417969 38.023438 75.417969 37.757812 75.417969 37.539062 C 75.417969 37.316406 75.460938 37.054688 75.460938 36.789062 C 75.503906 36.480469 75.550781 36.261719 75.636719 36.039062 C 75.726562 35.820312 75.816406 35.597656 75.902344 35.378906 C 75.992188 35.113281 76.125 34.894531 76.300781 34.804688 C 76.433594 34.71875 76.609375 34.628906 76.789062 34.542969 C 76.964844 34.453125 77.140625 34.410156 77.40625 34.320312 C 77.671875 34.234375 77.894531 34.191406 78.113281 34.234375 C 78.335938 34.234375 78.601562 34.277344 78.953125 34.367188 C 79.308594 34.453125 79.574219 34.542969 79.75 34.628906 C 79.882812 34.71875 80.015625 34.761719 80.105469 34.894531 C 80.105469 34.761719 80.058594 34.675781 80.058594 34.542969 C 80.058594 34.367188 80.058594 34.234375 80.105469 34.101562 C 80.148438 33.925781 80.28125 33.835938 80.457031 33.792969 C 80.636719 33.75 80.769531 33.882812 80.855469 34.058594 C 80.902344 34.191406 80.945312 34.453125 80.988281 34.851562 C 81.035156 35.246094 81.035156 35.996094 81.035156 37.054688 C 81.035156 38.109375 81.078125 38.859375 81.078125 39.253906 C 81.078125 39.652344 81.078125 39.960938 81.035156 40.09375 C 80.902344 40.355469 80.722656 40.402344 80.636719 40.402344 " fill-opacity="1" fill-rule="evenodd"/><path fill="#ffffff" d="M 83.15625 40.402344 C 83.113281 40.402344 83.066406 40.402344 83.023438 40.355469 C 82.890625 40.269531 82.800781 40.136719 82.800781 39.871094 C 82.800781 39.652344 82.714844 38.023438 82.582031 34.71875 L 82.582031 34.453125 C 82.582031 34.277344 82.667969 34.144531 82.847656 34.058594 C 82.890625 34.015625 82.980469 34.015625 83.023438 34.015625 C 83.15625 34.015625 83.289062 34.058594 83.332031 34.191406 C 83.421875 34.367188 83.421875 34.628906 83.421875 34.71875 C 83.464844 34.675781 83.464844 34.628906 83.507812 34.585938 C 83.6875 34.410156 83.953125 34.234375 84.261719 34.191406 C 84.527344 34.101562 84.835938 34.101562 85.101562 34.101562 C 85.367188 34.101562 85.632812 34.144531 85.851562 34.191406 C 86.074219 34.234375 86.296875 34.367188 86.472656 34.542969 C 86.605469 34.675781 86.738281 34.761719 86.871094 34.804688 C 87.003906 34.894531 87.089844 35.027344 87.136719 35.160156 C 87.136719 35.292969 87.136719 35.421875 87.046875 35.511719 C 86.957031 35.644531 86.824219 35.6875 86.738281 35.6875 C 86.648438 35.6875 86.515625 35.644531 86.382812 35.554688 C 86.296875 35.46875 86.207031 35.421875 86.164062 35.421875 C 86.074219 35.378906 85.984375 35.292969 85.808594 35.160156 C 85.675781 35.027344 85.542969 34.984375 85.367188 34.9375 C 85.191406 34.894531 84.96875 34.894531 84.703125 34.984375 C 84.4375 35.027344 84.261719 35.113281 84.085938 35.246094 C 83.90625 35.378906 83.773438 35.554688 83.640625 35.730469 C 83.554688 35.863281 83.507812 35.90625 83.507812 35.953125 C 83.507812 36.082031 83.507812 36.347656 83.507812 37.054688 C 83.507812 37.800781 83.507812 38.507812 83.554688 39.167969 C 83.597656 40.136719 83.507812 40.3125 83.421875 40.402344 C 83.332031 40.355469 83.246094 40.402344 83.15625 40.402344 " fill-opacity="1" fill-rule="evenodd"/><path fill="#ffffff" d="M 91.425781 38.992188 L 90.671875 38.992188 C 90.453125 38.992188 90.230469 38.945312 90.011719 38.859375 C 89.789062 38.769531 89.613281 38.640625 89.390625 38.507812 C 89.167969 38.375 88.992188 38.152344 88.816406 37.933594 C 88.640625 37.667969 88.550781 37.40625 88.550781 37.097656 C 88.550781 36.832031 88.550781 36.523438 88.59375 36.171875 C 88.640625 35.820312 88.683594 35.511719 88.773438 35.203125 C 88.859375 34.894531 89.082031 34.320312 89.480469 33.484375 L 89.480469 33.441406 L 89.523438 33.398438 C 89.65625 33.308594 89.789062 33.265625 89.921875 33.265625 C 90.054688 33.265625 90.1875 33.351562 90.230469 33.441406 C 90.273438 33.527344 90.320312 33.660156 90.273438 33.792969 C 90.273438 33.925781 90.1875 34.058594 90.097656 34.191406 C 90.054688 34.277344 89.964844 34.410156 89.789062 34.851562 C 89.65625 35.203125 89.566406 35.511719 89.480469 35.820312 C 89.390625 36.128906 89.390625 36.4375 89.390625 36.789062 C 89.433594 37.183594 89.480469 37.40625 89.523438 37.492188 C 89.613281 37.625 89.699219 37.757812 89.878906 37.890625 C 90.054688 38.023438 90.230469 38.109375 90.40625 38.152344 C 90.804688 38.285156 91.203125 38.285156 91.644531 38.152344 C 91.867188 38.109375 92.042969 37.976562 92.222656 37.847656 C 92.398438 37.714844 92.488281 37.539062 92.574219 37.449219 C 92.664062 37.316406 92.707031 37.140625 92.75 36.921875 C 92.796875 36.65625 92.839844 36.390625 92.839844 36.039062 C 92.839844 35.730469 92.796875 35.421875 92.664062 35.160156 C 92.53125 34.894531 92.398438 34.628906 92.308594 34.410156 C 92.132812 34.015625 92.355469 33.835938 92.441406 33.792969 C 92.617188 33.707031 92.796875 33.660156 92.972656 33.707031 C 93.105469 33.75 93.28125 33.882812 93.546875 34.675781 C 93.769531 35.246094 93.855469 35.6875 93.855469 36.082031 C 93.855469 36.4375 93.8125 36.789062 93.769531 37.054688 C 93.726562 37.316406 93.636719 37.582031 93.503906 37.847656 C 93.371094 38.109375 93.148438 38.375 92.839844 38.550781 C 92.53125 38.726562 92.308594 38.859375 92.132812 38.902344 C 92 38.992188 91.777344 38.992188 91.425781 38.992188 " fill-opacity="1" fill-rule="evenodd"/><path fill="#ffffff" d="M 98.234375 35.070312 C 98.058594 35.070312 97.882812 35.070312 97.703125 35.113281 C 97.527344 35.160156 97.394531 35.203125 97.261719 35.335938 C 97.128906 35.46875 96.996094 35.597656 96.953125 35.6875 C 96.910156 35.777344 96.820312 35.90625 96.644531 36.304688 C 96.511719 36.613281 96.464844 36.875 96.421875 37.140625 C 96.421875 37.40625 96.421875 37.625 96.511719 37.890625 C 96.597656 38.152344 96.6875 38.375 96.820312 38.640625 C 96.953125 38.902344 97.128906 39.078125 97.304688 39.210938 C 97.484375 39.34375 97.660156 39.429688 97.882812 39.519531 C 98.101562 39.5625 98.28125 39.5625 98.5 39.519531 C 98.722656 39.476562 98.941406 39.386719 99.164062 39.34375 C 99.339844 39.253906 99.515625 39.167969 99.648438 39.078125 C 99.78125 38.992188 99.914062 38.859375 100.046875 38.769531 C 100.136719 38.683594 100.226562 38.59375 100.226562 38.417969 C 100.269531 38.199219 100.269531 37.890625 100.269531 37.449219 C 100.269531 37.054688 100.226562 36.65625 100.09375 36.347656 C 100.003906 36.039062 99.738281 35.730469 99.386719 35.46875 C 99.207031 35.378906 99.074219 35.335938 98.988281 35.246094 C 98.941406 35.203125 98.855469 35.203125 98.722656 35.203125 Z M 95.804688 40.355469 C 95.714844 40.355469 95.539062 40.3125 95.492188 40.003906 C 95.449219 39.871094 95.449219 39.609375 95.449219 39.167969 C 95.449219 38.769531 95.492188 38.023438 95.492188 36.964844 C 95.492188 35.863281 95.539062 35.160156 95.539062 34.761719 C 95.582031 34.410156 95.582031 33.351562 95.582031 31.679688 C 95.625 29.082031 95.671875 28.992188 95.757812 28.949219 C 95.847656 28.859375 95.980469 28.816406 96.199219 28.902344 C 96.332031 28.949219 96.464844 29.125 96.464844 29.476562 C 96.421875 29.695312 96.421875 30.578125 96.378906 32.121094 C 96.332031 33.660156 96.332031 34.585938 96.332031 34.851562 C 96.464844 34.71875 96.597656 34.585938 96.777344 34.5 C 96.953125 34.410156 97.261719 34.320312 97.570312 34.234375 C 97.925781 34.144531 98.191406 34.101562 98.410156 34.101562 C 98.632812 34.101562 98.898438 34.144531 99.121094 34.191406 C 99.339844 34.277344 99.5625 34.367188 99.738281 34.410156 C 99.914062 34.5 100.09375 34.585938 100.226562 34.675781 C 100.359375 34.804688 100.492188 34.984375 100.625 35.246094 C 100.710938 35.511719 100.800781 35.730469 100.886719 35.90625 C 100.976562 36.128906 101.019531 36.390625 101.066406 36.65625 C 101.109375 36.921875 101.109375 37.183594 101.109375 37.40625 C 101.109375 37.625 101.109375 37.890625 101.109375 38.109375 C 101.109375 38.375 101.019531 38.59375 100.886719 38.769531 L 100.578125 39.253906 C 100.445312 39.429688 100.269531 39.609375 100.003906 39.785156 C 99.738281 39.960938 99.515625 40.046875 99.339844 40.09375 C 99.164062 40.136719 98.941406 40.136719 98.675781 40.179688 C 98.367188 40.222656 98.148438 40.222656 97.96875 40.222656 C 97.792969 40.222656 97.570312 40.136719 97.351562 40.003906 C 97.128906 39.871094 96.953125 39.738281 96.777344 39.5625 L 96.332031 39.078125 C 96.332031 39.738281 96.289062 39.917969 96.246094 40.003906 C 96.066406 40.3125 95.9375 40.355469 95.804688 40.355469 Z M 95.804688 40.355469 " fill-opacity="1" fill-rule="evenodd"/><path fill="#ffffff" d="M 103.851562 36.261719 C 103.71875 36.613281 103.675781 36.964844 103.675781 37.363281 C 103.675781 37.757812 103.675781 38.109375 103.71875 38.332031 C 103.761719 38.507812 103.808594 38.640625 103.894531 38.683594 C 104.027344 38.769531 104.160156 38.902344 104.292969 38.992188 C 104.425781 39.078125 104.558594 39.167969 104.78125 39.253906 C 105 39.34375 105.222656 39.386719 105.441406 39.476562 C 105.664062 39.519531 105.839844 39.519531 106.0625 39.476562 C 106.285156 39.429688 106.460938 39.300781 106.636719 39.167969 C 106.8125 39.035156 106.992188 38.816406 107.125 38.59375 C 107.300781 38.332031 107.390625 38.109375 107.433594 37.847656 C 107.476562 37.582031 107.523438 37.363281 107.523438 37.097656 C 107.523438 36.832031 107.433594 36.570312 107.300781 36.261719 C 107.125 35.90625 107.035156 35.730469 106.992188 35.644531 C 106.902344 35.554688 106.8125 35.421875 106.679688 35.292969 C 106.546875 35.160156 106.414062 35.113281 106.238281 35.070312 C 106.0625 35.027344 105.886719 35.027344 105.707031 35.027344 L 105.222656 35.027344 C 105.046875 35.027344 104.957031 35.070312 104.957031 35.070312 C 104.867188 35.113281 104.734375 35.203125 104.558594 35.292969 C 104.160156 35.644531 103.941406 35.953125 103.851562 36.261719 Z M 108.140625 40.402344 C 108.050781 40.402344 107.917969 40.355469 107.785156 40.136719 C 107.742188 40.046875 107.699219 39.871094 107.699219 39.210938 L 107.257812 39.695312 C 107.078125 39.871094 106.859375 40.046875 106.679688 40.136719 C 106.460938 40.269531 106.238281 40.3125 106.0625 40.355469 C 105.886719 40.355469 105.621094 40.355469 105.355469 40.3125 C 105.089844 40.269531 104.824219 40.222656 104.691406 40.222656 C 104.515625 40.179688 104.292969 40.09375 104.027344 39.917969 C 103.761719 39.738281 103.585938 39.5625 103.453125 39.386719 L 103.144531 38.902344 C 103.011719 38.726562 102.964844 38.507812 102.921875 38.242188 C 102.921875 38.023438 102.921875 37.757812 102.921875 37.539062 C 102.921875 37.316406 102.964844 37.054688 102.964844 36.789062 C 103.011719 36.480469 103.054688 36.261719 103.144531 36.039062 C 103.230469 35.820312 103.320312 35.597656 103.410156 35.378906 C 103.496094 35.113281 103.628906 34.894531 103.808594 34.804688 C 103.941406 34.71875 104.074219 34.628906 104.292969 34.542969 C 104.46875 34.453125 104.648438 34.410156 104.914062 34.320312 C 105.179688 34.234375 105.398438 34.191406 105.621094 34.234375 C 105.839844 34.234375 106.105469 34.277344 106.460938 34.367188 C 106.8125 34.453125 107.078125 34.542969 107.257812 34.628906 C 107.390625 34.71875 107.523438 34.761719 107.609375 34.894531 C 107.609375 34.761719 107.566406 34.675781 107.566406 34.542969 C 107.566406 34.367188 107.566406 34.234375 107.609375 34.101562 C 107.652344 33.925781 107.785156 33.835938 107.964844 33.792969 C 108.140625 33.75 108.273438 33.882812 108.363281 34.058594 C 108.40625 34.191406 108.449219 34.453125 108.496094 34.851562 C 108.539062 35.246094 108.539062 35.996094 108.539062 37.054688 C 108.539062 38.152344 108.582031 38.859375 108.582031 39.253906 C 108.582031 39.652344 108.582031 39.917969 108.582031 40.09375 C 108.40625 40.355469 108.230469 40.402344 108.140625 40.402344 Z M 108.140625 40.402344 " fill-opacity="1" fill-rule="evenodd"/><g clip-path="url(#7c7002824b)"><path fill="#0063af" d="M 120.257812 40.355469 L 116.234375 40.355469 C 116.234375 28.109375 106.238281 18.15625 93.945312 18.15625 C 86.605469 18.15625 79.707031 21.769531 75.550781 27.804688 L 74.445312 29.386719 L 72.808594 28.375 C 70.730469 27.097656 68.34375 26.394531 65.867188 26.394531 C 58.570312 26.394531 52.6875 32.296875 52.6875 39.519531 L 48.664062 39.519531 C 48.664062 30.09375 56.359375 22.386719 65.867188 22.386719 C 68.429688 22.386719 70.996094 22.957031 73.292969 24.058594 C 78.246094 17.804688 85.808594 14.105469 93.902344 14.105469 C 108.40625 14.105469 120.257812 25.863281 120.257812 40.355469 Z M 120.257812 40.355469 " fill-opacity="1" fill-rule="nonzero"/></g><g clip-path="url(#f496517496)"><path fill="#0063af" d="M 109.6875 46.964844 L 109.6875 58.019531 C 109.6875 61.808594 108.140625 63.4375 104.515625 63.4375 C 100.886719 63.4375 99.296875 61.808594 99.296875 58.019531 L 99.296875 46.964844 L 95.492188 46.964844 L 95.492188 58.019531 C 95.492188 63.835938 98.765625 67.183594 104.46875 67.183594 C 110.175781 67.183594 113.402344 63.835938 113.402344 58.019531 L 113.402344 46.964844 Z M 109.6875 46.964844 " fill-opacity="1" fill-rule="nonzero"/></g><g clip-path="url(#9b58ca8fc4)"><path fill="#0063af" d="M 58.789062 50.839844 L 58.789062 46.964844 L 54.988281 46.964844 L 54.988281 67.007812 L 70.109375 67.007812 L 70.109375 63.261719 L 58.789062 63.261719 Z M 58.789062 50.839844 " fill-opacity="1" fill-rule="nonzero"/></g><g clip-path="url(#cece3b6ca9)"><path fill="#0063af" d="M 82.226562 46.65625 C 75.949219 46.65625 71.394531 51.015625 71.394531 56.960938 C 71.394531 62.953125 75.949219 67.269531 82.226562 67.269531 C 88.507812 67.269531 93.0625 62.910156 93.0625 56.960938 C 93.0625 51.015625 88.507812 46.65625 82.226562 46.65625 Z M 82.226562 63.527344 C 78.070312 63.527344 75.152344 60.839844 75.152344 56.960938 C 75.152344 53.085938 78.070312 50.398438 82.226562 50.398438 C 86.382812 50.398438 89.300781 53.085938 89.300781 56.960938 C 89.300781 60.839844 86.382812 63.527344 82.226562 63.527344 Z M 82.226562 63.527344 " fill-opacity="1" fill-rule="nonzero"/></g><g clip-path="url(#64aaedefb1)"><path fill="#0063af" d="M 125.121094 46.964844 L 116.320312 46.964844 L 116.320312 67.007812 L 125.121094 67.007812 C 131.710938 67.007812 136.132812 62.996094 136.132812 56.960938 C 136.132812 50.972656 131.710938 46.964844 125.121094 46.964844 Z M 125.121094 63.21875 L 120.125 63.21875 L 120.125 50.753906 L 125.121094 50.753906 C 129.632812 50.753906 132.328125 53.085938 132.328125 57.007812 C 132.328125 60.882812 129.632812 63.21875 125.121094 63.21875 Z M 125.121094 63.21875 " fill-opacity="1" fill-rule="nonzero"/></g></svg>