<svg xmlns="http://www.w3.org/2000/svg" xmlns:xlink="http://www.w3.org/1999/xlink" width="220" zoomAndPan="magnify" viewBox="0 0 165 82.499998" height="110" preserveAspectRatio="xMidYMid meet" version="1.0"><defs><clipPath id="4043ab231c"><path d="M 0.496094 0 L 164.503906 0 L 164.503906 82.003906 L 0.496094 82.003906 Z M 0.496094 0 " clip-rule="nonzero"/></clipPath></defs><g clip-path="url(#4043ab231c)"><path fill="#ffffff" d="M 0.496094 0 L 164.503906 0 L 164.503906 82.003906 L 0.496094 82.003906 Z M 0.496094 0 " fill-opacity="1" fill-rule="nonzero"/></g><path fill="#ff6f3d" d="M 27.496094 53.347656 L 16.527344 48.207031 C 15.589844 47.757812 15.589844 47.066406 16.527344 46.65625 L 20.347656 44.863281 L 27.457031 48.207031 C 28.390625 48.65625 29.894531 48.65625 30.789062 48.207031 L 37.902344 44.863281 L 41.722656 46.65625 C 42.65625 47.105469 42.65625 47.800781 41.722656 48.207031 L 30.75 53.347656 C 29.894531 53.753906 28.390625 53.753906 27.496094 53.347656 Z M 27.496094 53.347656 " fill-opacity="1" fill-rule="evenodd"/><path fill="#95c038" d="M 27.496094 47.023438 L 16.527344 41.886719 C 15.589844 41.4375 15.589844 40.742188 16.527344 40.335938 L 20.265625 38.582031 L 27.496094 41.964844 C 28.433594 42.414062 29.9375 42.414062 30.832031 41.964844 L 38.0625 38.582031 L 41.800781 40.335938 C 42.738281 40.785156 42.738281 41.476562 41.800781 41.886719 L 30.832031 47.023438 C 29.894531 47.472656 28.390625 47.472656 27.496094 47.023438 Z M 27.496094 47.023438 " fill-opacity="1" fill-rule="evenodd"/><path fill="#5dc0e8" d="M 27.496094 40.867188 L 16.527344 35.726562 C 15.589844 35.277344 15.589844 34.585938 16.527344 34.175781 L 27.496094 29.039062 C 28.433594 28.589844 29.9375 28.589844 30.832031 29.039062 L 41.800781 34.175781 C 42.738281 34.625 42.738281 35.320312 41.800781 35.726562 L 30.832031 40.867188 C 29.894531 41.273438 28.390625 41.273438 27.496094 40.867188 Z M 27.496094 40.867188 " fill-opacity="1" fill-rule="evenodd"/><path fill="#333333" d="M 49.210938 41.125 C 49.210938 39 49.8125 37.394531 51.066406 36.355469 C 52.273438 35.269531 53.726562 34.75 55.378906 34.75 C 57.035156 34.75 58.445312 35.269531 59.65625 36.355469 C 60.863281 37.4375 61.46875 39 61.46875 41.164062 C 61.46875 43.292969 60.863281 44.894531 59.65625 45.9375 C 58.445312 47.019531 56.992188 47.542969 55.378906 47.542969 C 53.726562 47.542969 52.316406 47.019531 51.066406 45.9375 C 49.8125 44.855469 49.210938 43.25 49.210938 41.125 Z M 51.871094 41.125 C 51.871094 42.609375 52.152344 43.652344 52.679688 44.332031 C 53.242188 45.015625 53.847656 45.457031 54.492188 45.617188 C 54.652344 45.65625 54.773438 45.699219 54.9375 45.699219 C 55.058594 45.699219 55.21875 45.738281 55.339844 45.738281 C 55.5 45.738281 55.621094 45.738281 55.785156 45.699219 C 55.945312 45.699219 56.066406 45.65625 56.226562 45.617188 C 56.871094 45.457031 57.476562 45.015625 58 44.332031 C 58.527344 43.652344 58.808594 42.570312 58.808594 41.164062 C 58.808594 39.722656 58.527344 38.679688 58 37.996094 C 57.476562 37.316406 56.871094 36.875 56.226562 36.714844 C 56.066406 36.675781 55.90625 36.632812 55.785156 36.632812 C 55.621094 36.632812 55.5 36.59375 55.339844 36.59375 C 55.179688 36.59375 55.058594 36.59375 54.9375 36.632812 C 54.816406 36.632812 54.652344 36.675781 54.492188 36.714844 C 53.847656 36.875 53.242188 37.316406 52.679688 37.996094 C 52.152344 38.597656 51.871094 39.683594 51.871094 41.125 Z M 51.871094 41.125 " fill-opacity="1" fill-rule="nonzero"/><path fill="#333333" d="M 62.800781 34.871094 L 66.109375 34.871094 L 70.464844 42.730469 L 71.109375 44.453125 L 71.148438 44.453125 L 71.109375 42.207031 L 71.109375 34.871094 L 73.648438 34.871094 L 73.648438 47.382812 L 70.34375 47.382812 L 65.988281 39.199219 L 65.34375 37.796875 L 65.300781 37.796875 L 65.34375 40.003906 L 65.34375 47.382812 L 62.800781 47.382812 Z M 62.800781 34.871094 " fill-opacity="1" fill-rule="nonzero"/><path fill="#333333" d="M 76.273438 34.871094 L 78.8125 34.871094 L 78.8125 45.257812 L 83.8125 45.257812 L 83.8125 47.382812 L 76.273438 47.382812 Z M 76.273438 34.871094 " fill-opacity="1" fill-rule="nonzero"/><path fill="#333333" d="M 82.242188 34.871094 L 85.183594 34.871094 L 87.765625 39.242188 L 88.167969 40.125 L 88.25 40.125 L 88.652344 39.242188 L 91.277344 34.871094 L 93.976562 34.871094 L 89.421875 42.289062 L 89.421875 47.382812 L 86.878906 47.382812 L 86.878906 42.25 Z M 82.242188 34.871094 " fill-opacity="1" fill-rule="nonzero"/><path fill="#333333" d="M 93.65625 41.125 C 93.65625 39 94.261719 37.394531 95.511719 36.355469 C 96.71875 35.269531 98.171875 34.75 99.824219 34.75 C 101.480469 34.75 102.890625 35.269531 104.101562 36.355469 C 105.3125 37.4375 105.914062 39 105.914062 41.164062 C 105.914062 43.292969 105.3125 44.894531 104.101562 45.9375 C 102.890625 47.019531 101.4375 47.542969 99.824219 47.542969 C 98.171875 47.542969 96.761719 47.019531 95.511719 45.9375 C 94.300781 44.855469 93.65625 43.25 93.65625 41.125 Z M 96.316406 41.125 C 96.316406 42.609375 96.601562 43.652344 97.125 44.332031 C 97.6875 45.015625 98.253906 45.457031 98.9375 45.617188 C 99.101562 45.65625 99.222656 45.699219 99.382812 45.699219 C 99.503906 45.699219 99.664062 45.738281 99.785156 45.738281 C 99.945312 45.738281 100.066406 45.738281 100.230469 45.699219 C 100.390625 45.699219 100.511719 45.65625 100.671875 45.617188 C 101.316406 45.457031 101.921875 45.015625 102.449219 44.332031 C 102.972656 43.652344 103.253906 42.570312 103.253906 41.164062 C 103.253906 39.722656 102.972656 38.679688 102.449219 37.996094 C 101.921875 37.316406 101.316406 36.875 100.671875 36.714844 C 100.511719 36.675781 100.351562 36.632812 100.230469 36.632812 C 100.066406 36.632812 99.945312 36.59375 99.785156 36.59375 C 99.625 36.59375 99.503906 36.59375 99.382812 36.632812 C 99.261719 36.632812 99.101562 36.675781 98.9375 36.714844 C 98.292969 36.875 97.6875 37.316406 97.125 37.996094 C 96.601562 38.597656 96.316406 39.683594 96.316406 41.125 Z M 96.316406 41.125 " fill-opacity="1" fill-rule="nonzero"/><path fill="#333333" d="M 107.691406 34.871094 L 114.707031 34.871094 L 114.707031 36.957031 L 110.230469 36.957031 L 110.230469 40.003906 L 114.507812 40.003906 L 114.507812 42.128906 L 110.230469 42.128906 L 110.230469 47.382812 L 107.691406 47.382812 Z M 107.691406 34.871094 " fill-opacity="1" fill-rule="nonzero"/><path fill="#333333" d="M 116.605469 34.871094 L 123.621094 34.871094 L 123.621094 36.957031 L 119.144531 36.957031 L 119.144531 40.003906 L 123.417969 40.003906 L 123.417969 42.128906 L 119.144531 42.128906 L 119.144531 47.382812 L 116.605469 47.382812 Z M 116.605469 34.871094 " fill-opacity="1" fill-rule="nonzero"/><path fill="#333333" d="M 125.113281 34.871094 L 127.65625 34.871094 L 127.65625 47.382812 L 125.113281 47.382812 Z M 125.113281 34.871094 " fill-opacity="1" fill-rule="nonzero"/><path fill="#333333" d="M 138.851562 35.152344 L 138.851562 37.316406 C 138.40625 37.15625 137.960938 37.035156 137.480469 36.957031 C 136.996094 36.875 136.429688 36.835938 135.867188 36.835938 C 134.535156 36.835938 133.527344 37.234375 132.800781 38.078125 C 132.074219 38.878906 131.710938 39.921875 131.710938 41.164062 C 131.710938 42.367188 132.035156 43.371094 132.71875 44.171875 C 133.40625 44.976562 134.375 45.417969 135.625 45.417969 C 136.066406 45.417969 136.511719 45.375 137.035156 45.335938 C 137.558594 45.257812 138.082031 45.136719 138.648438 44.894531 L 138.808594 47.019531 C 138.730469 47.0625 138.609375 47.101562 138.488281 47.140625 C 138.328125 47.179688 138.164062 47.222656 137.960938 47.261719 C 137.640625 47.339844 137.238281 47.382812 136.753906 47.460938 C 136.269531 47.5 135.785156 47.542969 135.261719 47.542969 C 135.179688 47.542969 135.101562 47.542969 135.058594 47.542969 C 134.980469 47.542969 134.898438 47.542969 134.855469 47.542969 C 133.40625 47.460938 132.074219 46.898438 130.863281 45.9375 C 129.65625 44.933594 129.050781 43.371094 129.050781 41.285156 C 129.050781 39.242188 129.65625 37.636719 130.824219 36.515625 C 131.996094 35.390625 133.609375 34.828125 135.582031 34.828125 C 136.109375 34.828125 136.59375 34.828125 136.996094 34.871094 C 137.4375 34.910156 137.84375 34.992188 138.285156 35.070312 C 138.367188 35.109375 138.488281 35.109375 138.566406 35.152344 C 138.648438 35.109375 138.730469 35.152344 138.851562 35.152344 Z M 138.851562 35.152344 " fill-opacity="1" fill-rule="nonzero"/><path fill="#333333" d="M 140.867188 34.871094 L 148.410156 34.871094 L 148.410156 36.835938 L 143.449219 36.835938 L 143.449219 39.964844 L 147.925781 39.964844 L 147.925781 41.886719 L 143.449219 41.886719 L 143.449219 45.417969 L 148.410156 45.417969 L 148.410156 47.382812 L 140.867188 47.382812 Z M 140.867188 34.871094 " fill-opacity="1" fill-rule="nonzero"/></svg>