<svg xmlns="http://www.w3.org/2000/svg" xmlns:xlink="http://www.w3.org/1999/xlink" width="220" zoomAndPan="magnify" viewBox="0 0 165 82.499998" height="110" preserveAspectRatio="xMidYMid meet" version="1.0"><defs><clipPath id="df0c695e92"><path d="M 0.496094 0 L 164.503906 0 L 164.503906 82.003906 L 0.496094 82.003906 Z M 0.496094 0 " clip-rule="nonzero"/></clipPath><clipPath id="6ffc28d9af"><path d="M 9 30 L 156 30 L 156 52.324219 L 9 52.324219 Z M 9 30 " clip-rule="nonzero"/></clipPath></defs><g clip-path="url(#df0c695e92)"><path fill="#ffffff" d="M 0.496094 0 L 164.503906 0 L 164.503906 82.003906 L 0.496094 82.003906 Z M 0.496094 0 " fill-opacity="1" fill-rule="nonzero"/><path fill="#ffffff" d="M 0.496094 0 L 164.503906 0 L 164.503906 82.003906 L 0.496094 82.003906 Z M 0.496094 0 " fill-opacity="1" fill-rule="nonzero"/></g><g clip-path="url(#6ffc28d9af)"><path fill="#ff4600" d="M 35.96875 31.210938 C 36.449219 31.691406 36.683594 32.273438 36.683594 32.953125 L 36.683594 51.121094 C 36.683594 51.304688 36.617188 51.464844 36.488281 51.59375 C 36.359375 51.726562 36.203125 51.792969 36.019531 51.792969 C 35.695312 51.792969 35.386719 51.730469 35.085938 51.605469 C 34.789062 51.480469 34.527344 51.300781 34.296875 51.070312 C 34.070312 50.839844 33.894531 50.574219 33.769531 50.269531 C 33.648438 49.96875 33.585938 49.65625 33.585938 49.328125 L 33.585938 31.160156 C 33.585938 30.976562 33.648438 30.816406 33.78125 30.6875 C 33.910156 30.554688 34.066406 30.488281 34.25 30.488281 C 34.921875 30.488281 35.496094 30.726562 35.96875 31.210938 Z M 111.566406 41.140625 C 111.566406 41.871094 111.496094 42.59375 111.355469 43.3125 C 111.214844 44.027344 111.007812 44.726562 110.730469 45.398438 C 110.453125 46.074219 110.113281 46.714844 109.714844 47.324219 C 109.3125 47.933594 108.859375 48.492188 108.347656 49.011719 C 107.835938 49.527344 107.28125 49.988281 106.683594 50.394531 C 106.082031 50.800781 105.449219 51.144531 104.78125 51.421875 C 104.113281 51.703125 103.425781 51.914062 102.71875 52.058594 C 102.011719 52.199219 101.296875 52.269531 100.574219 52.269531 C 99.855469 52.269531 99.140625 52.199219 98.429688 52.058594 C 97.722656 51.914062 97.035156 51.703125 96.371094 51.421875 C 95.703125 51.144531 95.070312 50.800781 94.46875 50.394531 C 93.871094 49.988281 93.316406 49.527344 92.804688 49.011719 C 92.292969 48.492188 91.839844 47.933594 91.4375 47.324219 C 91.035156 46.714844 90.699219 46.074219 90.421875 45.398438 C 90.144531 44.726562 89.9375 44.027344 89.796875 43.3125 C 89.65625 42.59375 89.585938 41.871094 89.585938 41.140625 C 89.585938 40.410156 89.65625 39.6875 89.796875 38.96875 C 89.9375 38.253906 90.144531 37.558594 90.421875 36.882812 C 90.699219 36.207031 91.035156 35.566406 91.4375 34.957031 C 91.839844 34.351562 92.292969 33.789062 92.804688 33.269531 C 93.316406 32.753906 93.871094 32.292969 94.46875 31.886719 C 95.070312 31.480469 95.703125 31.136719 96.371094 30.859375 C 97.035156 30.578125 97.722656 30.367188 98.429688 30.226562 C 99.140625 30.082031 99.855469 30.011719 100.574219 30.011719 C 101.296875 30.011719 102.011719 30.082031 102.71875 30.226562 C 103.425781 30.371094 104.113281 30.582031 104.78125 30.863281 C 105.445312 31.140625 106.078125 31.484375 106.679688 31.890625 C 107.277344 32.296875 107.832031 32.757812 108.34375 33.273438 C 108.855469 33.792969 109.308594 34.351562 109.710938 34.960938 C 110.109375 35.566406 110.449219 36.207031 110.726562 36.882812 C 111.003906 37.558594 111.210938 38.253906 111.351562 38.96875 C 111.496094 39.6875 111.566406 40.410156 111.566406 41.140625 Z M 100.574219 33.148438 C 100.058594 33.148438 99.542969 33.199219 99.035156 33.300781 C 98.527344 33.40625 98.035156 33.554688 97.554688 33.757812 C 97.078125 33.957031 96.621094 34.203125 96.191406 34.496094 C 95.761719 34.785156 95.359375 35.117188 94.996094 35.488281 C 94.628906 35.859375 94.300781 36.265625 94.011719 36.699219 C 93.726562 37.136719 93.480469 37.597656 93.285156 38.082031 C 93.085938 38.566406 92.9375 39.066406 92.835938 39.582031 C 92.734375 40.097656 92.683594 40.617188 92.683594 41.140625 C 92.683594 41.664062 92.734375 42.1875 92.835938 42.699219 C 92.9375 43.214844 93.085938 43.714844 93.285156 44.199219 C 93.480469 44.683594 93.726562 45.144531 94.011719 45.582031 C 94.300781 46.019531 94.628906 46.421875 94.996094 46.792969 C 95.363281 47.164062 95.761719 47.496094 96.191406 47.785156 C 96.621094 48.078125 97.078125 48.324219 97.554688 48.523438 C 98.035156 48.726562 98.527344 48.878906 99.035156 48.980469 C 99.542969 49.082031 100.058594 49.132812 100.574219 49.132812 C 101.09375 49.132812 101.605469 49.082031 102.117188 48.980469 C 102.625 48.878906 103.117188 48.726562 103.597656 48.523438 C 104.074219 48.324219 104.53125 48.078125 104.960938 47.785156 C 105.390625 47.496094 105.789062 47.164062 106.15625 46.792969 C 106.523438 46.421875 106.851562 46.019531 107.136719 45.582031 C 107.425781 45.144531 107.667969 44.683594 107.867188 44.199219 C 108.066406 43.714844 108.214844 43.214844 108.316406 42.699219 C 108.417969 42.183594 108.46875 41.664062 108.46875 41.140625 C 108.46875 40.617188 108.417969 40.097656 108.316406 39.582031 C 108.214844 39.066406 108.0625 38.566406 107.867188 38.082031 C 107.667969 37.597656 107.421875 37.140625 107.136719 36.703125 C 106.847656 36.265625 106.519531 35.863281 106.152344 35.492188 C 105.789062 35.121094 105.390625 34.789062 104.957031 34.5 C 104.527344 34.207031 104.074219 33.960938 103.59375 33.757812 C 103.117188 33.558594 102.621094 33.40625 102.113281 33.304688 C 101.605469 33.199219 101.09375 33.148438 100.574219 33.148438 Z M 61.835938 41.140625 L 61.835938 51.121094 C 61.835938 51.304688 61.769531 51.464844 61.640625 51.59375 C 61.511719 51.726562 61.355469 51.792969 61.171875 51.792969 C 60.847656 51.792969 60.539062 51.730469 60.242188 51.605469 C 59.941406 51.480469 59.679688 51.300781 59.449219 51.070312 C 59.222656 50.839844 59.046875 50.574219 58.921875 50.269531 C 58.800781 49.96875 58.738281 49.65625 58.738281 49.328125 L 58.738281 48.875 C 58.445312 49.179688 58.136719 49.46875 57.808594 49.738281 C 57.484375 50.007812 57.144531 50.257812 56.789062 50.488281 C 56.433594 50.71875 56.070312 50.929688 55.691406 51.117188 C 55.3125 51.304688 54.925781 51.46875 54.53125 51.613281 C 54.132812 51.753906 53.730469 51.875 53.320312 51.96875 C 52.910156 52.066406 52.496094 52.136719 52.074219 52.183594 C 51.65625 52.234375 51.238281 52.257812 50.816406 52.253906 C 50.394531 52.253906 49.976562 52.226562 49.558594 52.175781 C 49.140625 52.125 48.726562 52.050781 48.316406 51.953125 C 47.90625 51.855469 47.503906 51.734375 47.109375 51.589844 C 46.714844 51.441406 46.328125 51.273438 45.949219 51.085938 C 45.574219 50.894531 45.207031 50.683594 44.855469 50.449219 C 44.503906 50.21875 44.164062 49.964844 43.839844 49.691406 C 43.515625 49.421875 43.210938 49.128906 42.917969 48.820312 C 42.628906 48.515625 42.355469 48.191406 42.101562 47.851562 C 41.847656 47.511719 41.613281 47.15625 41.398438 46.789062 C 41.183594 46.421875 40.992188 46.042969 40.820312 45.65625 C 40.648438 45.265625 40.5 44.867188 40.375 44.460938 C 40.246094 44.054688 40.144531 43.640625 40.066406 43.222656 C 39.988281 42.804688 39.933594 42.382812 39.902344 41.957031 C 39.871094 41.53125 39.863281 41.105469 39.878906 40.679688 C 39.898438 40.253906 39.9375 39.832031 40.003906 39.410156 C 40.070312 38.988281 40.15625 38.570312 40.269531 38.160156 C 40.382812 37.75 40.519531 37.347656 40.675781 36.953125 C 40.835938 36.558594 41.015625 36.171875 41.214844 35.796875 C 41.417969 35.425781 41.640625 35.0625 41.882812 34.714844 C 42.125 34.367188 42.386719 34.035156 42.667969 33.714844 C 42.949219 33.398438 43.246094 33.097656 43.5625 32.816406 C 43.878906 32.53125 44.207031 32.269531 44.550781 32.023438 C 44.898438 31.777344 45.253906 31.554688 45.625 31.351562 C 45.996094 31.148438 46.375 30.96875 46.765625 30.808594 C 47.15625 30.652344 47.554688 30.515625 47.960938 30.402344 C 48.367188 30.292969 48.777344 30.203125 49.195312 30.136719 C 49.613281 30.074219 50.03125 30.035156 50.449219 30.019531 C 50.871094 30.003906 51.292969 30.011719 51.710938 30.046875 C 52.132812 30.078125 52.546875 30.136719 52.960938 30.21875 C 53.375 30.300781 53.78125 30.40625 54.183594 30.535156 C 54.582031 30.664062 54.976562 30.816406 55.359375 30.992188 C 55.742188 31.164062 56.117188 31.363281 56.476562 31.582031 C 56.839844 31.800781 57.1875 32.039062 57.523438 32.296875 C 57.855469 32.554688 58.175781 32.832031 58.480469 33.128906 C 58.78125 33.425781 59.066406 33.738281 59.335938 34.066406 C 59.601562 34.394531 59.851562 34.738281 60.078125 35.097656 C 60.308594 35.457031 60.515625 35.824219 60.699219 36.207031 C 60.886719 36.589844 61.050781 36.980469 61.191406 37.382812 C 61.335938 37.785156 61.453125 38.191406 61.550781 38.609375 C 61.644531 39.023438 61.714844 39.441406 61.765625 39.867188 C 61.8125 40.289062 61.835938 40.714844 61.835938 41.140625 Z M 50.84375 33.148438 C 50.328125 33.148438 49.8125 33.199219 49.304688 33.300781 C 48.796875 33.40625 48.304688 33.554688 47.824219 33.757812 C 47.347656 33.957031 46.890625 34.203125 46.460938 34.496094 C 46.03125 34.785156 45.632812 35.117188 45.265625 35.488281 C 44.898438 35.859375 44.570312 36.265625 44.28125 36.699219 C 43.996094 37.136719 43.753906 37.597656 43.554688 38.082031 C 43.355469 38.566406 43.207031 39.066406 43.105469 39.582031 C 43.003906 40.097656 42.953125 40.617188 42.953125 41.140625 C 42.953125 41.664062 43.003906 42.1875 43.105469 42.699219 C 43.207031 43.214844 43.355469 43.714844 43.554688 44.199219 C 43.753906 44.683594 43.996094 45.144531 44.28125 45.582031 C 44.570312 46.019531 44.898438 46.421875 45.265625 46.792969 C 45.632812 47.164062 46.03125 47.496094 46.460938 47.785156 C 46.890625 48.078125 47.347656 48.324219 47.824219 48.523438 C 48.304688 48.726562 48.796875 48.878906 49.304688 48.980469 C 49.8125 49.082031 50.328125 49.132812 50.847656 49.132812 C 51.363281 49.132812 51.878906 49.082031 52.386719 48.980469 C 52.894531 48.878906 53.386719 48.726562 53.867188 48.523438 C 54.34375 48.324219 54.800781 48.078125 55.230469 47.785156 C 55.660156 47.496094 56.058594 47.164062 56.425781 46.792969 C 56.792969 46.421875 57.121094 46.015625 57.40625 45.582031 C 57.695312 45.144531 57.9375 44.683594 58.136719 44.199219 C 58.335938 43.714844 58.484375 43.214844 58.585938 42.699219 C 58.6875 42.183594 58.738281 41.664062 58.738281 41.140625 C 58.738281 40.617188 58.6875 40.097656 58.585938 39.582031 C 58.484375 39.066406 58.332031 38.566406 58.136719 38.082031 C 57.9375 37.597656 57.691406 37.136719 57.40625 36.703125 C 57.117188 36.265625 56.789062 35.863281 56.421875 35.492188 C 56.058594 35.121094 55.660156 34.789062 55.226562 34.5 C 54.796875 34.207031 54.34375 33.960938 53.863281 33.757812 C 53.386719 33.558594 52.890625 33.40625 52.382812 33.304688 C 51.875 33.199219 51.363281 33.148438 50.84375 33.148438 Z M 155.765625 41.140625 L 155.765625 51.121094 C 155.765625 51.304688 155.699219 51.464844 155.570312 51.59375 C 155.441406 51.726562 155.285156 51.792969 155.101562 51.792969 C 154.777344 51.792969 154.46875 51.730469 154.167969 51.605469 C 153.871094 51.480469 153.609375 51.300781 153.378906 51.070312 C 153.152344 50.839844 152.976562 50.574219 152.851562 50.269531 C 152.730469 49.96875 152.667969 49.65625 152.667969 49.328125 L 152.667969 48.875 C 152.375 49.179688 152.0625 49.46875 151.738281 49.738281 C 151.414062 50.007812 151.074219 50.257812 150.71875 50.488281 C 150.363281 50.71875 150 50.929688 149.621094 51.117188 C 149.242188 51.304688 148.855469 51.46875 148.457031 51.613281 C 148.0625 51.753906 147.65625 51.875 147.246094 51.96875 C 146.835938 52.066406 146.421875 52.136719 146.003906 52.183594 C 145.585938 52.234375 145.167969 52.257812 144.746094 52.253906 C 144.324219 52.253906 143.90625 52.226562 143.488281 52.175781 C 143.070312 52.125 142.65625 52.050781 142.246094 51.953125 C 141.835938 51.855469 141.433594 51.734375 141.039062 51.589844 C 140.640625 51.441406 140.253906 51.273438 139.878906 51.085938 C 139.5 50.894531 139.136719 50.683594 138.785156 50.449219 C 138.433594 50.21875 138.09375 49.964844 137.769531 49.691406 C 137.445312 49.421875 137.136719 49.128906 136.847656 48.820312 C 136.554688 48.515625 136.28125 48.191406 136.027344 47.851562 C 135.773438 47.511719 135.539062 47.15625 135.324219 46.789062 C 135.113281 46.421875 134.917969 46.042969 134.75 45.65625 C 134.578125 45.265625 134.429688 44.867188 134.300781 44.460938 C 134.175781 44.054688 134.074219 43.640625 133.996094 43.222656 C 133.914062 42.804688 133.859375 42.382812 133.828125 41.957031 C 133.796875 41.53125 133.792969 41.105469 133.808594 40.679688 C 133.824219 40.253906 133.867188 39.832031 133.933594 39.410156 C 133.996094 38.988281 134.085938 38.570312 134.199219 38.160156 C 134.3125 37.75 134.445312 37.347656 134.605469 36.953125 C 134.761719 36.558594 134.941406 36.171875 135.144531 35.796875 C 135.347656 35.425781 135.570312 35.0625 135.8125 34.714844 C 136.054688 34.367188 136.316406 34.035156 136.597656 33.714844 C 136.878906 33.398438 137.175781 33.097656 137.492188 32.816406 C 137.804688 32.53125 138.136719 32.269531 138.480469 32.023438 C 138.824219 31.777344 139.183594 31.554688 139.554688 31.351562 C 139.921875 31.148438 140.304688 30.96875 140.695312 30.808594 C 141.085938 30.652344 141.484375 30.515625 141.890625 30.402344 C 142.296875 30.292969 142.707031 30.203125 143.125 30.136719 C 143.539062 30.074219 143.957031 30.035156 144.378906 30.019531 C 144.800781 30.003906 145.21875 30.011719 145.640625 30.046875 C 146.058594 30.078125 146.476562 30.136719 146.890625 30.21875 C 147.300781 30.300781 147.710938 30.40625 148.109375 30.535156 C 148.511719 30.664062 148.90625 30.816406 149.289062 30.992188 C 149.671875 31.164062 150.046875 31.363281 150.40625 31.582031 C 150.769531 31.800781 151.117188 32.039062 151.449219 32.296875 C 151.785156 32.554688 152.105469 32.832031 152.40625 33.128906 C 152.710938 33.425781 152.996094 33.738281 153.261719 34.066406 C 153.53125 34.394531 153.777344 34.738281 154.007812 35.097656 C 154.234375 35.457031 154.441406 35.824219 154.628906 36.207031 C 154.816406 36.589844 154.980469 36.980469 155.121094 37.382812 C 155.265625 37.785156 155.382812 38.191406 155.476562 38.609375 C 155.574219 39.023438 155.644531 39.441406 155.691406 39.867188 C 155.742188 40.289062 155.765625 40.714844 155.765625 41.140625 Z M 144.773438 33.148438 C 144.257812 33.148438 143.742188 33.199219 143.234375 33.300781 C 142.726562 33.40625 142.234375 33.554688 141.753906 33.757812 C 141.273438 33.957031 140.820312 34.203125 140.390625 34.496094 C 139.957031 34.785156 139.558594 35.117188 139.191406 35.488281 C 138.828125 35.859375 138.5 36.265625 138.210938 36.699219 C 137.921875 37.136719 137.679688 37.597656 137.480469 38.082031 C 137.285156 38.566406 137.132812 39.066406 137.035156 39.582031 C 136.933594 40.097656 136.882812 40.617188 136.882812 41.140625 C 136.882812 41.664062 136.933594 42.1875 137.035156 42.699219 C 137.132812 43.214844 137.285156 43.714844 137.484375 44.199219 C 137.679688 44.683594 137.925781 45.144531 138.210938 45.582031 C 138.5 46.019531 138.828125 46.421875 139.195312 46.792969 C 139.558594 47.164062 139.957031 47.496094 140.390625 47.785156 C 140.820312 48.078125 141.273438 48.324219 141.753906 48.523438 C 142.234375 48.726562 142.726562 48.878906 143.234375 48.980469 C 143.742188 49.082031 144.257812 49.132812 144.773438 49.132812 C 145.292969 49.132812 145.804688 49.082031 146.3125 48.980469 C 146.824219 48.878906 147.316406 48.726562 147.792969 48.523438 C 148.273438 48.324219 148.726562 48.078125 149.160156 47.785156 C 149.589844 47.496094 149.988281 47.164062 150.355469 46.792969 C 150.722656 46.421875 151.050781 46.015625 151.335938 45.582031 C 151.625 45.144531 151.867188 44.683594 152.066406 44.199219 C 152.265625 43.714844 152.414062 43.214844 152.515625 42.699219 C 152.617188 42.183594 152.667969 41.664062 152.667969 41.140625 C 152.667969 40.617188 152.613281 40.097656 152.511719 39.582031 C 152.410156 39.066406 152.261719 38.566406 152.0625 38.082031 C 151.863281 37.597656 151.621094 37.136719 151.332031 36.703125 C 151.046875 36.265625 150.71875 35.863281 150.351562 35.492188 C 149.984375 35.121094 149.585938 34.789062 149.15625 34.5 C 148.726562 34.207031 148.273438 33.960938 147.792969 33.757812 C 147.316406 33.558594 146.820312 33.40625 146.3125 33.304688 C 145.804688 33.199219 145.292969 33.148438 144.773438 33.148438 Z M 76.265625 30.011719 C 76.210938 30.011719 76.15625 30.011719 76.101562 30.011719 C 74.730469 30.03125 73.417969 30.316406 72.164062 30.863281 C 70.90625 31.410156 69.796875 32.179688 68.84375 33.171875 L 68.84375 32.953125 C 68.84375 32.628906 68.78125 32.3125 68.65625 32.011719 C 68.535156 31.710938 68.359375 31.441406 68.128906 31.210938 C 67.902344 30.980469 67.636719 30.804688 67.339844 30.679688 C 67.042969 30.550781 66.730469 30.488281 66.410156 30.488281 C 66.226562 30.488281 66.070312 30.554688 65.941406 30.6875 C 65.808594 30.816406 65.746094 30.976562 65.746094 31.160156 L 65.746094 51.121094 C 65.746094 51.304688 65.808594 51.464844 65.941406 51.59375 C 66.070312 51.726562 66.226562 51.792969 66.410156 51.792969 C 66.730469 51.792969 67.042969 51.730469 67.339844 51.605469 C 67.636719 51.480469 67.902344 51.300781 68.128906 51.070312 C 68.359375 50.839844 68.535156 50.574219 68.65625 50.269531 C 68.78125 49.96875 68.84375 49.65625 68.84375 49.328125 L 68.84375 40.664062 C 68.84375 40.175781 68.894531 39.691406 68.988281 39.214844 C 69.082031 38.738281 69.222656 38.273438 69.40625 37.824219 C 69.585938 37.371094 69.8125 36.941406 70.078125 36.535156 C 70.34375 36.128906 70.644531 35.753906 70.980469 35.40625 C 71.316406 35.058594 71.683594 34.746094 72.082031 34.46875 C 72.480469 34.195312 72.898438 33.960938 73.339844 33.765625 C 73.78125 33.574219 74.238281 33.425781 74.707031 33.320312 C 75.179688 33.21875 75.652344 33.160156 76.132812 33.148438 C 76.175781 33.148438 76.21875 33.148438 76.261719 33.148438 C 77.25 33.148438 78.199219 33.347656 79.109375 33.738281 C 80.023438 34.132812 80.820312 34.691406 81.507812 35.410156 C 82.207031 36.128906 82.742188 36.953125 83.121094 37.886719 C 83.496094 38.820312 83.683594 39.789062 83.683594 40.796875 L 83.683594 49.328125 C 83.683594 49.65625 83.746094 49.96875 83.871094 50.269531 C 83.992188 50.574219 84.171875 50.839844 84.398438 51.070312 C 84.625 51.300781 84.890625 51.480469 85.1875 51.605469 C 85.484375 51.730469 85.796875 51.792969 86.117188 51.792969 C 86.300781 51.792969 86.457031 51.726562 86.585938 51.59375 C 86.71875 51.464844 86.78125 51.304688 86.78125 51.121094 L 86.78125 40.664062 C 86.78125 39.964844 86.714844 39.269531 86.578125 38.585938 C 86.441406 37.898438 86.242188 37.234375 85.976562 36.589844 C 85.714844 35.941406 85.390625 35.328125 85.007812 34.746094 C 84.621094 34.167969 84.1875 33.628906 83.699219 33.132812 C 83.210938 32.640625 82.679688 32.199219 82.105469 31.808594 C 81.53125 31.421875 80.925781 31.09375 80.289062 30.824219 C 79.648438 30.558594 78.992188 30.355469 78.316406 30.21875 C 77.636719 30.082031 76.953125 30.011719 76.265625 30.011719 Z M 133.355469 30.597656 C 133.066406 30.453125 132.761719 30.367188 132.4375 30.34375 C 132.117188 30.320312 131.800781 30.363281 131.496094 30.464844 C 131.191406 30.570312 130.914062 30.726562 130.671875 30.941406 C 130.425781 31.15625 130.234375 31.410156 130.089844 31.703125 L 122.675781 46.714844 L 115.261719 31.703125 C 115.117188 31.410156 114.921875 31.15625 114.679688 30.941406 C 114.4375 30.726562 114.160156 30.570312 113.855469 30.464844 C 113.546875 30.363281 113.234375 30.320312 112.910156 30.34375 C 112.589844 30.367188 112.285156 30.453125 111.996094 30.597656 C 111.832031 30.683594 111.722656 30.8125 111.664062 30.988281 C 111.605469 31.164062 111.617188 31.335938 111.699219 31.5 L 121.289062 50.925781 C 121.421875 51.191406 121.613281 51.402344 121.859375 51.558594 C 122.109375 51.714844 122.382812 51.792969 122.675781 51.792969 C 122.96875 51.792969 123.238281 51.714844 123.488281 51.558594 C 123.738281 51.402344 123.929688 51.191406 124.058594 50.925781 L 133.652344 31.5 C 133.734375 31.335938 133.746094 31.164062 133.6875 30.988281 C 133.628906 30.8125 133.519531 30.683594 133.355469 30.597656 Z M 30.574219 30.597656 C 30.285156 30.453125 29.980469 30.367188 29.660156 30.34375 C 29.335938 30.320312 29.023438 30.363281 28.714844 30.464844 C 28.410156 30.570312 28.132812 30.726562 27.890625 30.941406 C 27.648438 31.15625 27.453125 31.410156 27.308594 31.703125 L 19.894531 46.714844 L 18.804688 44.507812 C 18.710938 44.320312 18.589844 44.160156 18.433594 44.023438 C 18.277344 43.886719 18.101562 43.785156 17.90625 43.71875 C 17.714844 43.652344 17.511719 43.628906 17.308594 43.644531 C 17.105469 43.660156 16.910156 43.710938 16.726562 43.804688 C 16.542969 43.898438 16.382812 44.023438 16.25 44.179688 C 16.113281 44.335938 16.015625 44.515625 15.949219 44.710938 C 15.882812 44.910156 15.859375 45.113281 15.875 45.320312 C 15.886719 45.527344 15.941406 45.722656 16.03125 45.910156 L 18.507812 50.925781 C 18.640625 51.191406 18.832031 51.402344 19.082031 51.558594 C 19.332031 51.714844 19.601562 51.792969 19.894531 51.792969 C 20.1875 51.792969 20.460938 51.714844 20.710938 51.558594 C 20.957031 51.402344 21.148438 51.191406 21.28125 50.925781 L 30.871094 31.5 C 30.953125 31.335938 30.964844 31.164062 30.90625 30.988281 C 30.847656 30.8125 30.738281 30.683594 30.574219 30.597656 Z M 10.90625 30.328125 C 10.6875 30.328125 10.472656 30.371094 10.265625 30.457031 C 10.0625 30.542969 9.882812 30.664062 9.726562 30.824219 C 9.566406 30.984375 9.445312 31.167969 9.363281 31.375 C 9.277344 31.582031 9.234375 31.796875 9.234375 32.023438 C 9.234375 32.246094 9.277344 32.460938 9.363281 32.671875 C 9.445312 32.878906 9.566406 33.0625 9.726562 33.21875 C 9.882812 33.378906 10.0625 33.5 10.265625 33.585938 C 10.472656 33.671875 10.6875 33.714844 10.90625 33.714844 C 11.128906 33.714844 11.34375 33.671875 11.546875 33.585938 C 11.753906 33.5 11.933594 33.378906 12.089844 33.21875 C 12.246094 33.0625 12.367188 32.878906 12.453125 32.671875 C 12.539062 32.460938 12.582031 32.246094 12.582031 32.023438 C 12.582031 31.796875 12.539062 31.582031 12.453125 31.375 C 12.367188 31.167969 12.246094 30.984375 12.089844 30.824219 C 11.933594 30.664062 11.753906 30.542969 11.546875 30.457031 C 11.34375 30.371094 11.128906 30.328125 10.90625 30.328125 Z M 13.097656 34.765625 C 12.875 34.765625 12.664062 34.808594 12.457031 34.894531 C 12.253906 34.980469 12.070312 35.101562 11.914062 35.261719 C 11.757812 35.417969 11.636719 35.601562 11.550781 35.808594 C 11.46875 36.019531 11.425781 36.234375 11.425781 36.457031 C 11.425781 36.683594 11.46875 36.898438 11.550781 37.105469 C 11.636719 37.316406 11.757812 37.496094 11.914062 37.65625 C 12.070312 37.816406 12.253906 37.9375 12.457031 38.023438 C 12.664062 38.109375 12.875 38.152344 13.097656 38.152344 C 13.320312 38.152344 13.53125 38.109375 13.738281 38.023438 C 13.941406 37.9375 14.125 37.816406 14.28125 37.65625 C 14.4375 37.496094 14.558594 37.316406 14.644531 37.105469 C 14.726562 36.898438 14.769531 36.683594 14.769531 36.457031 C 14.769531 36.234375 14.726562 36.019531 14.644531 35.808594 C 14.558594 35.601562 14.4375 35.417969 14.28125 35.261719 C 14.125 35.101562 13.941406 34.980469 13.738281 34.894531 C 13.53125 34.808594 13.320312 34.765625 13.097656 34.765625 Z M 15.289062 39.203125 C 15.066406 39.203125 14.851562 39.246094 14.648438 39.332031 C 14.441406 39.417969 14.261719 39.539062 14.105469 39.699219 C 13.949219 39.855469 13.828125 40.039062 13.742188 40.246094 C 13.65625 40.453125 13.613281 40.671875 13.613281 40.894531 C 13.613281 41.121094 13.65625 41.335938 13.742188 41.542969 C 13.828125 41.75 13.949219 41.933594 14.105469 42.09375 C 14.261719 42.253906 14.441406 42.375 14.648438 42.460938 C 14.851562 42.546875 15.066406 42.589844 15.289062 42.589844 C 15.511719 42.589844 15.722656 42.546875 15.929688 42.460938 C 16.132812 42.375 16.3125 42.253906 16.472656 42.09375 C 16.628906 41.933594 16.75 41.75 16.832031 41.542969 C 16.917969 41.335938 16.960938 41.121094 16.960938 40.894531 C 16.960938 40.671875 16.917969 40.453125 16.832031 40.246094 C 16.75 40.039062 16.628906 39.855469 16.472656 39.699219 C 16.3125 39.539062 16.132812 39.417969 15.929688 39.332031 C 15.722656 39.246094 15.511719 39.203125 15.289062 39.203125 Z M 15.289062 39.203125 " fill-opacity="1" fill-rule="nonzero"/></g></svg>