<svg xmlns="http://www.w3.org/2000/svg" xmlns:xlink="http://www.w3.org/1999/xlink" width="220" zoomAndPan="magnify" viewBox="0 0 165 82.499998" height="110" preserveAspectRatio="xMidYMid meet" version="1.0"><defs><clipPath id="d89d3ea8f8"><path d="M 0.496094 0 L 164.503906 0 L 164.503906 82.003906 L 0.496094 82.003906 Z M 0.496094 0 " clip-rule="nonzero"/></clipPath><clipPath id="220a04b981"><path d="M 152 37 L 156.300781 37 L 156.300781 45 L 152 45 Z M 152 37 " clip-rule="nonzero"/></clipPath><clipPath id="8d09f2e3d7"><path d="M 16 30.71875 L 40 30.71875 L 40 51.277344 L 16 51.277344 Z M 16 30.71875 " clip-rule="nonzero"/></clipPath><clipPath id="d3eae7efd1"><path d="M 8.699219 38 L 27 38 L 27 51.277344 L 8.699219 51.277344 Z M 8.699219 38 " clip-rule="nonzero"/></clipPath><clipPath id="f733137488"><path d="M 25 37 L 35 37 L 35 51.277344 L 25 51.277344 Z M 25 37 " clip-rule="nonzero"/></clipPath></defs><g clip-path="url(#d89d3ea8f8)"><path fill="#ffffff" d="M 0.496094 0 L 164.503906 0 L 164.503906 82.003906 L 0.496094 82.003906 Z M 0.496094 0 " fill-opacity="1" fill-rule="nonzero"/></g><path fill="#000000" d="M 43.828125 37.21875 L 45.257812 37.21875 L 46.566406 42.5 L 46.585938 42.5 L 47.882812 37.21875 L 48.90625 37.21875 L 50.171875 42.5 L 50.195312 42.5 L 51.511719 37.21875 L 52.941406 37.21875 L 50.746094 44.777344 L 49.632812 44.777344 L 48.40625 39.785156 L 48.386719 39.785156 L 47.140625 44.777344 L 46.039062 44.777344 Z M 43.828125 37.21875 " fill-opacity="1" fill-rule="nonzero"/><path fill="#000000" d="M 55.320312 37.21875 L 56.71875 37.21875 L 56.71875 44.777344 L 55.320312 44.777344 Z M 55.320312 37.21875 " fill-opacity="1" fill-rule="nonzero"/><path fill="#000000" d="M 59.722656 37.21875 L 61.4375 37.21875 C 63.296875 37.21875 64.105469 37.71875 64.542969 38.097656 C 64.945312 38.476562 65.253906 38.921875 65.472656 39.429688 C 65.6875 39.9375 65.792969 40.46875 65.789062 41.019531 C 65.800781 41.6875 65.644531 42.3125 65.324219 42.898438 C 65 43.480469 64.554688 43.945312 63.980469 44.289062 C 63.183594 44.660156 62.347656 44.820312 61.46875 44.78125 L 59.722656 44.78125 Z M 61.125 43.46875 L 61.421875 43.46875 C 62.066406 43.519531 62.679688 43.394531 63.257812 43.101562 C 63.621094 42.882812 63.902344 42.585938 64.105469 42.210938 C 64.308594 41.839844 64.40625 41.441406 64.394531 41.019531 C 64.402344 40.28125 64.132812 39.660156 63.589844 39.160156 C 62.941406 38.652344 62.210938 38.441406 61.390625 38.527344 L 61.125 38.527344 Z M 61.125 43.46875 " fill-opacity="1" fill-rule="nonzero"/><path fill="#000000" d="M 68.488281 37.21875 L 72.550781 37.21875 L 72.550781 38.527344 L 69.886719 38.527344 L 69.886719 40.375 L 72.441406 40.375 L 72.441406 41.683594 L 69.886719 41.683594 L 69.886719 43.46875 L 72.550781 43.46875 L 72.550781 44.777344 L 68.488281 44.777344 Z M 68.488281 37.21875 " fill-opacity="1" fill-rule="nonzero"/><path fill="#000000" d="M 76.402344 42.613281 C 76.40625 42.886719 76.503906 43.121094 76.695312 43.316406 C 76.886719 43.511719 77.121094 43.613281 77.394531 43.621094 C 77.667969 43.628906 77.910156 43.542969 78.113281 43.359375 C 78.316406 43.175781 78.425781 42.945312 78.445312 42.671875 C 78.445312 41.894531 77.945312 41.753906 77.007812 41.394531 C 76.425781 41.171875 75.207031 40.8125 75.207031 39.222656 C 75.207031 38.929688 75.261719 38.648438 75.375 38.378906 C 75.488281 38.113281 75.648438 37.875 75.859375 37.671875 C 76.066406 37.46875 76.308594 37.3125 76.578125 37.210938 C 76.851562 37.105469 77.132812 37.054688 77.425781 37.066406 C 77.714844 37.0625 77.996094 37.117188 78.265625 37.222656 C 78.535156 37.332031 78.773438 37.484375 78.984375 37.6875 C 79.191406 37.886719 79.355469 38.121094 79.472656 38.386719 C 79.589844 38.652344 79.652344 38.929688 79.660156 39.222656 L 78.230469 39.222656 C 78.238281 39.105469 78.222656 38.996094 78.179688 38.890625 C 78.140625 38.78125 78.078125 38.6875 78 38.605469 C 77.917969 38.523438 77.824219 38.464844 77.714844 38.425781 C 77.609375 38.382812 77.496094 38.367188 77.382812 38.375 C 77.167969 38.367188 76.984375 38.4375 76.828125 38.589844 C 76.675781 38.738281 76.601562 38.921875 76.609375 39.140625 C 76.609375 39.792969 77.097656 39.9375 77.863281 40.191406 C 78.136719 40.242188 78.394531 40.335938 78.636719 40.476562 C 78.875 40.617188 79.085938 40.792969 79.265625 41.003906 C 79.449219 41.214844 79.585938 41.453125 79.6875 41.710938 C 79.785156 41.972656 79.839844 42.242188 79.84375 42.519531 C 79.855469 42.847656 79.800781 43.160156 79.675781 43.464844 C 79.554688 43.765625 79.378906 44.03125 79.144531 44.261719 C 78.914062 44.488281 78.644531 44.664062 78.339844 44.777344 C 78.035156 44.894531 77.71875 44.945312 77.394531 44.929688 C 77.078125 44.9375 76.773438 44.882812 76.476562 44.769531 C 76.183594 44.65625 75.917969 44.488281 75.691406 44.273438 C 75.460938 44.054688 75.277344 43.804688 75.148438 43.515625 C 75.015625 43.230469 74.945312 42.925781 74.933594 42.613281 Z M 76.402344 42.613281 " fill-opacity="1" fill-rule="nonzero"/><path fill="#000000" d="M 86.046875 37.066406 C 86.566406 37.070312 87.066406 37.171875 87.546875 37.371094 C 88.027344 37.574219 88.449219 37.859375 88.816406 38.226562 C 89.183594 38.597656 89.464844 39.023438 89.664062 39.503906 C 89.859375 39.984375 89.957031 40.484375 89.957031 41.003906 C 89.957031 41.527344 89.855469 42.027344 89.65625 42.507812 C 89.457031 42.988281 89.175781 43.410156 88.804688 43.777344 C 88.4375 44.148438 88.015625 44.429688 87.535156 44.628906 C 87.054688 44.828125 86.550781 44.929688 86.03125 44.929688 C 85.511719 44.933594 85.011719 44.832031 84.53125 44.636719 C 84.046875 44.4375 83.625 44.15625 83.253906 43.789062 C 82.886719 43.421875 82.601562 43 82.398438 42.519531 C 82.199219 42.039062 82.097656 41.539062 82.09375 41.019531 C 82.09375 40.757812 82.117188 40.5 82.167969 40.246094 C 82.21875 39.992188 82.292969 39.742188 82.390625 39.503906 C 82.488281 39.265625 82.609375 39.035156 82.753906 38.820312 C 82.898438 38.601562 83.0625 38.402344 83.246094 38.21875 C 83.429688 38.035156 83.628906 37.871094 83.847656 37.726562 C 84.0625 37.582031 84.289062 37.460938 84.53125 37.363281 C 84.769531 37.265625 85.019531 37.191406 85.273438 37.140625 C 85.527344 37.089844 85.785156 37.066406 86.046875 37.066406 M 86.046875 43.621094 C 86.394531 43.632812 86.734375 43.574219 87.0625 43.449219 C 87.390625 43.324219 87.679688 43.136719 87.933594 42.894531 C 88.1875 42.652344 88.382812 42.371094 88.523438 42.050781 C 88.664062 41.730469 88.738281 41.394531 88.742188 41.042969 C 88.75 40.691406 88.6875 40.355469 88.558594 40.027344 C 88.429688 39.703125 88.242188 39.414062 87.996094 39.164062 C 87.75 38.914062 87.46875 38.71875 87.144531 38.582031 C 86.820312 38.445312 86.484375 38.375 86.136719 38.371094 C 85.785156 38.371094 85.445312 38.433594 85.121094 38.566406 C 84.796875 38.699219 84.511719 38.890625 84.261719 39.140625 C 84.015625 39.386719 83.824219 39.671875 83.691406 39.996094 C 83.554688 40.320312 83.492188 40.65625 83.492188 41.007812 C 83.488281 41.351562 83.550781 41.679688 83.679688 42 C 83.808594 42.316406 83.992188 42.597656 84.230469 42.84375 C 84.46875 43.085938 84.746094 43.277344 85.058594 43.414062 C 85.375 43.546875 85.703125 43.617188 86.046875 43.621094 " fill-opacity="1" fill-rule="nonzero"/><path fill="#000000" d="M 92.707031 37.21875 L 94.109375 37.21875 L 94.109375 43.46875 L 96.417969 43.46875 L 96.417969 44.777344 L 92.707031 44.777344 Z M 92.707031 37.21875 " fill-opacity="1" fill-rule="nonzero"/><path fill="#000000" d="M 100.058594 37.21875 L 100.058594 42.019531 C 100.058594 42.398438 100.058594 43.621094 101.367188 43.621094 C 102.671875 43.621094 102.671875 42.398438 102.671875 42.019531 L 102.671875 37.21875 L 104.074219 37.21875 L 104.074219 42.019531 C 104.113281 42.660156 103.96875 43.257812 103.636719 43.808594 C 103.375 44.167969 103.042969 44.445312 102.644531 44.644531 C 102.246094 44.84375 101.824219 44.9375 101.378906 44.929688 C 100.941406 44.933594 100.523438 44.839844 100.128906 44.652344 C 99.734375 44.460938 99.402344 44.191406 99.132812 43.847656 C 98.777344 43.289062 98.621094 42.679688 98.664062 42.019531 L 98.664062 37.21875 Z M 100.058594 37.21875 " fill-opacity="1" fill-rule="nonzero"/><path fill="#000000" d="M 107.730469 38.527344 L 106.328125 38.527344 L 106.328125 37.21875 L 110.535156 37.21875 L 110.535156 38.527344 L 109.125 38.527344 L 109.125 44.777344 L 107.722656 44.777344 Z M 107.730469 38.527344 " fill-opacity="1" fill-rule="nonzero"/><path fill="#000000" d="M 112.929688 37.21875 L 114.332031 37.21875 L 114.332031 44.777344 L 112.929688 44.777344 Z M 112.929688 37.21875 " fill-opacity="1" fill-rule="nonzero"/><path fill="#000000" d="M 120.980469 37.066406 C 121.5 37.070312 122 37.171875 122.480469 37.371094 C 122.960938 37.574219 123.382812 37.859375 123.75 38.226562 C 124.117188 38.597656 124.398438 39.023438 124.597656 39.503906 C 124.796875 39.984375 124.894531 40.484375 124.894531 41.003906 C 124.890625 41.527344 124.792969 42.027344 124.59375 42.507812 C 124.390625 42.988281 124.109375 43.410156 123.742188 43.777344 C 123.371094 44.148438 122.949219 44.429688 122.46875 44.628906 C 121.988281 44.828125 121.488281 44.929688 120.964844 44.929688 C 120.445312 44.933594 119.945312 44.832031 119.464844 44.636719 C 118.984375 44.4375 118.558594 44.15625 118.1875 43.789062 C 117.820312 43.421875 117.535156 43 117.332031 42.519531 C 117.132812 42.039062 117.03125 41.539062 117.027344 41.019531 C 117.027344 40.757812 117.050781 40.5 117.101562 40.246094 C 117.152344 39.992188 117.226562 39.742188 117.324219 39.503906 C 117.425781 39.265625 117.546875 39.035156 117.691406 38.820312 C 117.832031 38.601562 117.996094 38.402344 118.179688 38.21875 C 118.363281 38.035156 118.566406 37.871094 118.78125 37.726562 C 118.996094 37.582031 119.226562 37.460938 119.464844 37.363281 C 119.707031 37.265625 119.953125 37.191406 120.207031 37.140625 C 120.464844 37.089844 120.71875 37.066406 120.980469 37.066406 M 120.980469 43.621094 C 121.332031 43.632812 121.667969 43.574219 121.996094 43.449219 C 122.324219 43.324219 122.613281 43.136719 122.867188 42.894531 C 123.121094 42.652344 123.316406 42.371094 123.457031 42.050781 C 123.597656 41.730469 123.671875 41.394531 123.679688 41.042969 C 123.683594 40.691406 123.621094 40.355469 123.492188 40.027344 C 123.363281 39.703125 123.175781 39.414062 122.933594 39.164062 C 122.6875 38.914062 122.402344 38.71875 122.082031 38.582031 C 121.757812 38.445312 121.421875 38.375 121.070312 38.371094 C 120.71875 38.371094 120.382812 38.433594 120.058594 38.566406 C 119.734375 38.699219 119.445312 38.890625 119.199219 39.140625 C 118.949219 39.386719 118.757812 39.671875 118.625 39.996094 C 118.492188 40.320312 118.425781 40.65625 118.425781 41.007812 C 118.425781 41.351562 118.488281 41.679688 118.613281 42 C 118.742188 42.316406 118.925781 42.597656 119.164062 42.839844 C 119.402344 43.085938 119.679688 43.277344 119.996094 43.410156 C 120.308594 43.546875 120.636719 43.617188 120.980469 43.621094 " fill-opacity="1" fill-rule="nonzero"/><path fill="#000000" d="M 127.621094 37.21875 L 129.214844 37.21875 L 132.339844 42.714844 L 132.359375 42.714844 L 132.359375 37.21875 L 133.761719 37.21875 L 133.761719 44.777344 L 132.199219 44.777344 L 129.042969 39.28125 L 129.023438 39.28125 L 129.023438 44.777344 L 127.621094 44.777344 Z M 127.621094 37.21875 " fill-opacity="1" fill-rule="nonzero"/><path fill="#000000" d="M 137.691406 42.613281 C 137.695312 42.886719 137.792969 43.121094 137.984375 43.316406 C 138.175781 43.511719 138.410156 43.613281 138.683594 43.621094 C 138.957031 43.632812 139.195312 43.542969 139.398438 43.359375 C 139.605469 43.175781 139.714844 42.945312 139.734375 42.671875 C 139.734375 41.894531 139.234375 41.753906 138.292969 41.394531 C 137.710938 41.171875 136.496094 40.8125 136.496094 39.222656 C 136.496094 38.929688 136.550781 38.648438 136.664062 38.378906 C 136.777344 38.109375 136.9375 37.875 137.148438 37.671875 C 137.355469 37.46875 137.597656 37.3125 137.867188 37.210938 C 138.140625 37.105469 138.421875 37.054688 138.714844 37.066406 C 139.003906 37.0625 139.285156 37.117188 139.554688 37.222656 C 139.824219 37.332031 140.0625 37.484375 140.273438 37.6875 C 140.480469 37.886719 140.644531 38.121094 140.761719 38.386719 C 140.878906 38.652344 140.941406 38.929688 140.949219 39.222656 L 139.519531 39.222656 C 139.527344 39.105469 139.511719 38.996094 139.46875 38.890625 C 139.429688 38.78125 139.367188 38.6875 139.289062 38.605469 C 139.207031 38.523438 139.113281 38.464844 139.003906 38.425781 C 138.898438 38.382812 138.785156 38.367188 138.671875 38.375 C 138.457031 38.363281 138.273438 38.4375 138.117188 38.589844 C 137.964844 38.738281 137.890625 38.921875 137.894531 39.140625 C 137.894531 39.792969 138.386719 39.9375 139.152344 40.191406 C 139.425781 40.242188 139.683594 40.335938 139.925781 40.476562 C 140.164062 40.617188 140.375 40.792969 140.554688 41.003906 C 140.738281 41.214844 140.875 41.453125 140.976562 41.710938 C 141.074219 41.972656 141.128906 42.242188 141.132812 42.519531 C 141.144531 42.847656 141.089844 43.160156 140.964844 43.464844 C 140.84375 43.765625 140.667969 44.03125 140.433594 44.261719 C 140.203125 44.488281 139.933594 44.660156 139.628906 44.777344 C 139.324219 44.894531 139.007812 44.945312 138.683594 44.929688 C 138.367188 44.9375 138.0625 44.882812 137.765625 44.769531 C 137.472656 44.65625 137.210938 44.488281 136.980469 44.273438 C 136.75 44.054688 136.566406 43.804688 136.4375 43.515625 C 136.304688 43.230469 136.234375 42.925781 136.222656 42.613281 Z M 137.691406 42.613281 " fill-opacity="1" fill-rule="nonzero"/><path fill="#000000" d="M 143.789062 43.417969 L 145.148438 43.417969 L 145.148438 44.777344 L 143.789062 44.777344 Z M 143.789062 43.417969 " fill-opacity="1" fill-rule="nonzero"/><path fill="#000000" d="M 148.273438 37.21875 L 149.671875 37.21875 L 149.671875 44.777344 L 148.273438 44.777344 Z M 148.273438 37.21875 " fill-opacity="1" fill-rule="nonzero"/><g clip-path="url(#220a04b981)"><path fill="#000000" d="M 153.492188 38.527344 L 152.089844 38.527344 L 152.089844 37.21875 L 156.296875 37.21875 L 156.296875 38.527344 L 154.886719 38.527344 L 154.886719 44.777344 L 153.488281 44.777344 Z M 153.492188 38.527344 " fill-opacity="1" fill-rule="nonzero"/></g><g clip-path="url(#8d09f2e3d7)"><path fill="#27ae60" d="M 24.046875 30.71875 C 23.578125 30.71875 23.117188 30.765625 22.660156 30.855469 C 22.207031 30.949219 21.761719 31.082031 21.332031 31.261719 C 20.902344 31.4375 20.492188 31.65625 20.105469 31.914062 C 19.71875 32.175781 19.359375 32.46875 19.03125 32.796875 C 18.703125 33.128906 18.40625 33.484375 18.148438 33.871094 C 17.890625 34.257812 17.671875 34.667969 17.492188 35.097656 C 17.316406 35.527344 17.179688 35.972656 17.089844 36.429688 C 17 36.886719 16.953125 37.347656 16.953125 37.8125 L 16.953125 51.277344 L 32.398438 51.277344 C 32.863281 51.277344 33.324219 51.230469 33.78125 51.140625 C 34.238281 51.050781 34.683594 50.914062 35.113281 50.738281 C 35.542969 50.558594 35.953125 50.339844 36.339844 50.082031 C 36.726562 49.824219 37.085938 49.527344 37.414062 49.199219 C 37.742188 48.871094 38.035156 48.511719 38.296875 48.125 C 38.554688 47.738281 38.773438 47.328125 38.949219 46.898438 C 39.128906 46.46875 39.261719 46.023438 39.355469 45.566406 C 39.445312 45.109375 39.492188 44.648438 39.492188 44.183594 L 39.492188 30.71875 Z M 24.046875 30.71875 " fill-opacity="1" fill-rule="nonzero"/></g><g clip-path="url(#d3eae7efd1)"><path fill="#000000" d="M 21.175781 46.75 L 21.226562 46.75 L 24.085938 38.339844 L 26.679688 38.339844 L 21.882812 51.269531 L 20.515625 51.269531 L 17.722656 42.570312 L 17.675781 42.570312 L 14.875 51.269531 L 13.539062 51.269531 L 8.699219 38.339844 L 11.300781 38.339844 L 14.171875 46.734375 L 14.257812 46.734375 L 16.90625 38.339844 L 18.503906 38.339844 Z M 21.175781 46.75 " fill-opacity="1" fill-rule="nonzero"/></g><g clip-path="url(#f733137488)"><path fill="#000000" d="M 27.847656 46.675781 C 27.925781 48.277344 28.835938 49.019531 30.03125 49.019531 C 30.265625 49.035156 30.496094 49.003906 30.71875 48.925781 C 30.941406 48.847656 31.140625 48.730469 31.316406 48.574219 C 31.492188 48.414062 31.632812 48.230469 31.734375 48.015625 C 31.835938 47.804688 31.890625 47.578125 31.902344 47.34375 C 31.902344 46 30.929688 45.753906 29.308594 45.140625 C 28.300781 44.75 25.992188 44.097656 25.992188 41.347656 C 26.019531 40.832031 26.140625 40.339844 26.359375 39.871094 C 26.582031 39.402344 26.882812 38.996094 27.261719 38.648438 C 27.644531 38.296875 28.078125 38.035156 28.5625 37.859375 C 29.046875 37.679688 29.550781 37.601562 30.066406 37.625 C 30.320312 37.613281 30.574219 37.628906 30.824219 37.671875 C 31.074219 37.714844 31.320312 37.78125 31.558594 37.871094 C 31.796875 37.960938 32.023438 38.074219 32.238281 38.210938 C 32.453125 38.347656 32.652344 38.503906 32.835938 38.679688 C 33.023438 38.855469 33.1875 39.050781 33.332031 39.257812 C 33.476562 39.46875 33.601562 39.691406 33.703125 39.925781 C 33.800781 40.160156 33.878906 40.398438 33.929688 40.648438 C 33.984375 40.898438 34.011719 41.152344 34.011719 41.40625 L 31.597656 41.40625 C 31.589844 41.1875 31.535156 40.984375 31.445312 40.789062 C 31.351562 40.589844 31.226562 40.421875 31.066406 40.273438 C 30.90625 40.128906 30.722656 40.019531 30.519531 39.945312 C 30.316406 39.871094 30.105469 39.839844 29.890625 39.847656 C 29.699219 39.832031 29.515625 39.855469 29.339844 39.917969 C 29.160156 39.984375 29 40.078125 28.859375 40.207031 C 28.722656 40.335938 28.613281 40.488281 28.539062 40.660156 C 28.460938 40.832031 28.421875 41.015625 28.421875 41.203125 C 28.421875 42.332031 29.5 42.582031 30.824219 43.023438 C 31.902344 43.375 34.316406 44.203125 34.316406 47.046875 C 34.316406 49.867188 32.199219 51.210938 30.011719 51.210938 C 27.523438 51.210938 25.414062 49.621094 25.414062 46.675781 Z M 27.847656 46.675781 " fill-opacity="1" fill-rule="nonzero"/></g><path fill="#000000" d="M 34.441406 40.664062 C 34.496094 40.65625 34.550781 40.652344 34.605469 40.652344 C 34.675781 40.644531 34.738281 40.660156 34.792969 40.699219 C 34.828125 40.726562 34.84375 40.765625 34.839844 40.808594 C 34.839844 40.886719 34.800781 40.933594 34.722656 40.949219 C 34.773438 40.972656 34.804688 41.007812 34.8125 41.0625 C 34.824219 41.117188 34.84375 41.167969 34.863281 41.222656 L 34.777344 41.222656 C 34.757812 41.175781 34.746094 41.132812 34.734375 41.085938 C 34.714844 41.011719 34.683594 40.980469 34.609375 40.976562 L 34.523438 40.976562 L 34.523438 41.222656 L 34.441406 41.222656 Z M 34.523438 40.921875 L 34.617188 40.921875 C 34.703125 40.921875 34.757812 40.878906 34.757812 40.816406 C 34.757812 40.738281 34.691406 40.710938 34.613281 40.710938 C 34.582031 40.710938 34.550781 40.714844 34.523438 40.71875 Z M 34.523438 40.921875 " fill-opacity="1" fill-rule="nonzero"/><path fill="#000000" d="M 34.636719 41.425781 C 34.503906 41.425781 34.390625 41.378906 34.296875 41.285156 C 34.203125 41.191406 34.15625 41.078125 34.15625 40.945312 C 34.15625 40.8125 34.203125 40.699219 34.296875 40.605469 C 34.390625 40.507812 34.503906 40.460938 34.636719 40.460938 C 34.773438 40.460938 34.886719 40.507812 34.980469 40.605469 C 35.074219 40.699219 35.121094 40.8125 35.121094 40.945312 C 35.121094 41.078125 35.074219 41.191406 34.980469 41.285156 C 34.886719 41.378906 34.773438 41.425781 34.636719 41.425781 M 34.636719 40.558594 C 34.53125 40.558594 34.441406 40.597656 34.367188 40.671875 C 34.292969 40.746094 34.253906 40.835938 34.253906 40.941406 C 34.253906 41.046875 34.292969 41.140625 34.367188 41.214844 C 34.441406 41.289062 34.53125 41.328125 34.636719 41.328125 C 34.746094 41.328125 34.835938 41.289062 34.910156 41.214844 C 34.984375 41.140625 35.023438 41.046875 35.023438 40.941406 C 35.023438 40.835938 34.984375 40.746094 34.910156 40.671875 C 34.835938 40.597656 34.746094 40.558594 34.636719 40.558594 " fill-opacity="1" fill-rule="nonzero"/></svg>